<svg xmlns="http://www.w3.org/2000/svg" width="34" height="31" fill="none" viewBox="0 0 34 31">
  <g filter="url(#a)">
    <rect width="27" height="27" x="4.929" y="1.929" fill="url(#b)" rx="13.5"/>
    <rect width="28.929" height="28.929" x="3.964" y=".964" stroke="url(#c)" stroke-width="1.929" rx="14.464"/>
    <g filter="url(#d)">
      <path fill="#FFDDC3" d="M25.2 12.744h-1.572a2.516 2.516 0 0 1-2.516-2.516V8.656c0-.25-.1-.49-.276-.667-.177-.177-1.675-.276-1.925-.276s-1.748.1-1.925.276a.943.943 0 0 0-.276.667v1.572a2.516 2.516 0 0 1-2.516 2.516h-1.572c-.25 0-.49.1-.667.276-.177.177-.276 1.675-.276 1.925s.1 1.748.276 1.925a.943.943 0 0 0 .667.276h1.572a2.516 2.516 0 0 1 2.516 2.516v1.572c0 .25.1.49.276.667.177.177 1.675.276 1.925.276s1.748-.1 1.925-.276a.943.943 0 0 0 .276-.667v-1.572a2.516 2.516 0 0 1 2.516-2.516H25.2c.25 0 .49-.1.667-.276.177-.177.276-1.675.276-1.925s-.1-1.748-.276-1.925a.943.943 0 0 0-.667-.276Z"/>
      <path stroke="#8D4C00" stroke-width="1.258" d="M18.911 7.084c.158 0 .62.027 1.059.075.221.024.454.056.65.096.097.02.2.044.293.075.064.022.233.08.367.215.295.295.461.694.461 1.111v1.572c0 1.042.845 1.887 1.887 1.887h1.571c.417 0 .818.165 1.112.46a.94.94 0 0 1 .214.367c.032.094.056.197.076.294.04.196.071.43.095.65.048.44.075.902.075 1.06 0 .157-.027.62-.075 1.058a7.653 7.653 0 0 1-.095.65c-.02.097-.044.2-.076.293a.941.941 0 0 1-.213.367 1.575 1.575 0 0 1-1.113.461h-1.571a1.887 1.887 0 0 0-1.887 1.887v1.571c0 .417-.166.818-.46 1.113a.941.941 0 0 1-.368.214 2.477 2.477 0 0 1-.293.075c-.196.04-.429.071-.65.095-.438.049-.901.076-1.059.076-.158 0-.62-.027-1.059-.076a7.665 7.665 0 0 1-.65-.095c-.097-.02-.2-.044-.294-.075a.941.941 0 0 1-.367-.214 1.573 1.573 0 0 1-.46-1.113v-1.57a1.887 1.887 0 0 0-1.887-1.888h-1.572c-.417 0-.816-.166-1.111-.46a.946.946 0 0 1-.215-.368 2.482 2.482 0 0 1-.075-.293 7.653 7.653 0 0 1-.096-.65c-.048-.438-.075-.9-.075-1.059 0-.157.027-.62.075-1.058.024-.222.056-.455.096-.65a2.45 2.45 0 0 1 .075-.295.945.945 0 0 1 .215-.367c.295-.294.694-.46 1.111-.46h1.572a1.887 1.887 0 0 0 1.887-1.886V8.655c0-.417.165-.816.46-1.111a.945.945 0 0 1 .367-.215c.094-.031.197-.056.294-.075.196-.04.43-.072.65-.096a12.86 12.86 0 0 1 1.06-.075Z"/>
    </g>
  </g>
  <defs>
    <linearGradient id="b" x1="18.429" x2="18.429" y1="1.929" y2="28.929" gradientUnits="userSpaceOnUse">
      <stop stop-color="#FFA428"/>
      <stop offset="1" stop-color="#F54812"/>
    </linearGradient>
    <linearGradient id="c" x1="33.429" x2=".929" y1="24.929" y2="6.429" gradientUnits="userSpaceOnUse">
      <stop stop-color="#FFA428"/>
      <stop offset="1" stop-color="#F54812"/>
    </linearGradient>
    <filter id="a" width="33.857" height="30.857" x="0" y="0" color-interpolation-filters="sRGB" filterUnits="userSpaceOnUse">
      <feFlood flood-opacity="0" result="BackgroundImageFix"/>
      <feColorMatrix in="SourceAlpha" result="hardAlpha" values="0 0 0 0 0 0 0 0 0 0 0 0 0 0 0 0 0 0 127 0"/>
      <feOffset dx="-3"/>
      <feComposite in2="hardAlpha" operator="out"/>
      <feColorMatrix values="0 0 0 0 0.612179 0 0 0 0 0.299762 0 0 0 0 0.0441476 0 0 0 1 0"/>
      <feBlend in2="BackgroundImageFix" result="effect1_dropShadow_92_4113"/>
      <feBlend in="SourceGraphic" in2="effect1_dropShadow_92_4113" result="shape"/>
    </filter>
    <filter id="d" width="18.238" height="18.866" x="9.163" y="6.455" color-interpolation-filters="sRGB" filterUnits="userSpaceOnUse">
      <feFlood flood-opacity="0" result="BackgroundImageFix"/>
      <feColorMatrix in="SourceAlpha" result="hardAlpha" values="0 0 0 0 0 0 0 0 0 0 0 0 0 0 0 0 0 0 127 0"/>
      <feOffset dx="-1.258" dy="1.887"/>
      <feComposite in2="hardAlpha" operator="out"/>
      <feColorMatrix values="0 0 0 0 0 0 0 0 0 0 0 0 0 0 0 0 0 0 0.25 0"/>
      <feBlend in2="BackgroundImageFix" result="effect1_dropShadow_92_4113"/>
      <feBlend in="SourceGraphic" in2="effect1_dropShadow_92_4113" result="shape"/>
    </filter>
  </defs>
</svg>
