<svg xmlns="http://www.w3.org/2000/svg" width="156" height="83" fill="none" viewBox="0 0 156 83">
  <g filter="url(#a)">
    <path fill="#F8AE00" d="M133.49 28.982H56.691c-.663 0-1.271.358-1.614.93-.69 1.149-.091 23.48-.008 23.624.343.571.952.921 1.615.921h76.806a1.885 1.885 0 0 0 1.881-1.88V30.87a1.887 1.887 0 0 0-1.881-1.888Z"/>
    <path fill="#412636" d="M133.62 30.69H57.196v21.825h76.424V30.69Z"/>
    <path fill="#6BABFF" d="M64.79 50.786V32.28c0-.394.337-.713.753-.713h8.595c.416 0 .754.32.754.713v18.507c0 .394-.337.713-.754.713h-8.595c-.416 0-.754-.32-.754-.713Z"/>
    <path fill="#6BABFF" d="M74.138 51.498V31.566c.416 0 .753.32.753.713v18.507c0 .395-.337.714-.753.714Zm-9.348-.712V32.28c0-.394.337-.713.753-.713h.03V51.5h-.03c-.416 0-.754-.32-.754-.713Z" opacity=".47"/>
    <path fill="#6BABFF" d="M66.203 51.499h7.277V31.567h-7.277V51.5Z" opacity=".24"/>
    <path fill="#6BABFF" d="M68.501 51.499h2.68V31.567h-2.68V51.5Z" opacity=".24"/>
    <path fill="#6BABFF" d="M76.295 50.786V32.28c0-.394.337-.713.754-.713h8.595c.416 0 .754.32.754.713v18.507c0 .394-.338.713-.754.713H77.05c-.417 0-.754-.32-.754-.713Z"/>
    <path fill="#6BABFF" d="M85.643 51.498V31.566c.417 0 .754.32.754.713v18.507c0 .395-.337.714-.754.714Zm-9.348-.712V32.28c0-.394.337-.713.754-.713h.03V51.5h-.03c-.417 0-.754-.32-.754-.713Z" opacity=".47"/>
    <path fill="#6BABFF" d="M77.709 51.499h7.277V31.567h-7.277V51.5Z" opacity=".24"/>
    <path fill="#6BABFF" d="M80.007 51.499h2.68V31.567h-2.68V51.5Z" opacity=".24"/>
    <path fill="#6BABFF" d="M87.8 50.786V32.28c0-.394.338-.713.754-.713h8.595c.417 0 .754.32.754.713v18.507c0 .394-.337.713-.754.713h-8.595c-.416 0-.754-.32-.754-.713Z"/>
    <path fill="#6BABFF" d="M97.15 51.498V31.566c.415 0 .753.32.753.713v18.507c0 .395-.338.714-.754.714Zm-9.35-.712V32.28c0-.394.338-.713.754-.713h.03V51.5h-.03c-.416 0-.754-.32-.754-.713Z" opacity=".47"/>
    <path fill="#6BABFF" d="M89.214 51.499h7.277V31.567h-7.277V51.5Z" opacity=".24"/>
    <path fill="#6BABFF" d="M91.512 51.499h2.68V31.567h-2.68V51.5Z" opacity=".24"/>
    <path fill="#F8AE00" d="M41.474 20C29.618 20 20 29.618 20 41.474c0 11.857 9.618 21.467 21.474 21.467 11.857 0 21.467-9.61 21.467-21.467C62.94 29.618 53.33 20 41.474 20Zm0 40.27c-10.384 0-18.803-8.42-18.803-18.796 0-10.384 8.419-18.803 18.803-18.803 10.385 0 18.796 8.419 18.796 18.803-.001 10.376-8.41 18.796-18.796 18.796Z"/>
    <path fill="#F8AE00" d="M61.72 41.474c0 11.177-9.06 20.246-20.246 20.246-11.186 0-20.254-9.069-20.254-20.246 0-11.186 9.068-20.254 20.254-20.254 11.187 0 20.246 9.068 20.246 20.254Z" opacity=".22"/>
    <path fill="#F8AE00" d="M61.204 41.474c0 10.892-8.828 19.729-19.729 19.729s-19.739-8.837-19.739-19.729c0-10.901 8.838-19.739 19.74-19.739 10.9 0 19.728 8.838 19.728 19.74Z" opacity=".67"/>
    <path fill="#F8AE00" d="M60.269 41.474c0 10.375-8.41 18.795-18.795 18.795-10.385 0-18.804-8.42-18.804-18.795 0-10.385 8.419-18.804 18.804-18.804 10.385 0 18.795 8.419 18.795 18.803Z"/>
    <path fill="#F8AE00" d="M60.269 41.474c0 10.375-8.41 18.795-18.795 18.795-10.385 0-18.804-8.42-18.804-18.795 0-10.385 8.419-18.804 18.804-18.804 10.385 0 18.795 8.419 18.795 18.803Z" opacity=".16"/>
    <path fill="#F68B55" d="M52.463 28.251a2.03 2.03 0 0 0-1.476-.995c-3.515-.504-10.006.017-13.564.372a3.983 3.983 0 0 0-3.184 2.248l-3.833 10.042c-.707 1.451.479 3.323 2.122 3.227l3.781.217a35.29 35.29 0 0 0-.614 1.73l-.012-.002c-.325 1.046-.656 2.182-.89 3.24a34.98 34.98 0 0 0-.75 4.78c-.174 1.489 1.141 2.855 2.62 2.782.138-.013.335-.02.461-.06.342-.076.66-.217.945-.422 1.948-1.41 4.097-3.292 6.386-5.595 3.049-3.13 5.41-5.795 6.827-7.883.111-.18.149-.288.213-.525.322-1.075-.191-2.325-1.179-2.875a1.797 1.797 0 0 0-.123-.072l-.948-.42-.182-.118c1.042-2.237 2.887-6.23 3.535-7.88a2.052 2.052 0 0 0-.135-1.79Z" opacity=".3"/>
    <path fill="#412636" d="M54.509 41.473c0 7.197-5.833 13.036-13.036 13.036-7.203 0-13.041-5.84-13.041-13.036 0-7.203 5.839-13.041 13.041-13.041 7.203 0 13.036 5.838 13.036 13.041Z"/>
    <path fill="#F8AE00" d="M43.017 57.89a1.546 1.546 0 1 1-3.09-.105 1.546 1.546 0 0 1 3.09.105Z"/>
    <path fill="#F8AE00" d="M43.017 57.89a1.546 1.546 0 1 1-3.09-.105 1.546 1.546 0 0 1 3.09.105Z" opacity=".29"/>
    <path fill="#F8AE00" d="M43.017 57.894a1.55 1.55 0 0 1-1.594 1.49 1.553 1.553 0 0 1-1.499-1.595 1.13 1.13 0 0 1 .035-.246 1.543 1.543 0 0 0 3.04.103c.014.08.02.16.018.248Z" opacity=".29"/>
    <path fill="#fff" d="M42.325 57.241c-.013.373-.394.498-.858.482-.464-.015-.835-.166-.823-.539.012-.372.399-.662.863-.646.464.015.83.33.818.703Z" opacity=".2"/>
    <path fill="#F8AE00" d="M31.394 53.459a1.546 1.546 0 1 0-2.977-.835 1.546 1.546 0 0 0 2.977.835Z"/>
    <path fill="#F8AE00" d="M31.394 53.459a1.546 1.546 0 1 0-2.977-.835 1.546 1.546 0 0 0 2.977.835Z" opacity=".29"/>
    <path fill="#F8AE00" d="M31.442 53.1a1.55 1.55 0 0 1-1.594 1.489 1.552 1.552 0 0 1-1.5-1.594 1.13 1.13 0 0 1 .036-.246 1.543 1.543 0 0 0 3.04.103c.014.08.02.16.018.247Z" opacity=".29"/>
    <path fill="#fff" d="M30.75 52.447c-.014.373-.395.498-.858.482-.464-.015-.836-.166-.824-.539.013-.372.4-.662.863-.646.465.016.83.33.818.703Z" opacity=".2"/>
    <path fill="#F8AE00" d="M26.272 41.522a1.545 1.545 0 1 1-3.09-.104 1.545 1.545 0 0 1 3.09.104Z"/>
    <path fill="#F8AE00" d="M26.272 41.522a1.545 1.545 0 1 1-3.09-.104 1.545 1.545 0 0 1 3.09.104Z" opacity=".29"/>
    <path fill="#F8AE00" d="M26.272 41.525a1.55 1.55 0 0 1-1.594 1.49 1.552 1.552 0 0 1-1.499-1.595 1.14 1.14 0 0 1 .035-.245 1.543 1.543 0 0 0 3.04.103c.015.08.021.159.018.247Z" opacity=".29"/>
    <path fill="#fff" d="M25.58 40.872c-.013.373-.393.498-.857.482-.464-.016-.836-.166-.824-.539.013-.373.4-.662.863-.646.464.015.83.33.818.703Z" opacity=".2"/>
    <path fill="#F8AE00" d="M43.017 25.152a1.546 1.546 0 1 1-3.09-.105 1.546 1.546 0 0 1 3.09.105Z"/>
    <path fill="#F8AE00" d="M43.017 25.152a1.546 1.546 0 1 1-3.09-.105 1.546 1.546 0 0 1 3.09.105Z" opacity=".29"/>
    <path fill="#F8AE00" d="M43.017 25.155a1.55 1.55 0 0 1-1.594 1.49 1.553 1.553 0 0 1-1.499-1.595 1.13 1.13 0 0 1 .035-.245 1.543 1.543 0 0 0 3.04.103c.014.08.02.16.018.247Z" opacity=".29"/>
    <path fill="#fff" d="M42.325 24.503c-.013.373-.394.498-.858.482-.464-.016-.835-.166-.823-.539.013-.373.399-.662.863-.647.464.016.83.332.818.704Z" opacity=".2"/>
    <path fill="#F8AE00" d="M55.634 31.732a1.546 1.546 0 1 1-3.09-.105 1.546 1.546 0 0 1 3.09.105Z"/>
    <path fill="#F8AE00" d="M55.634 31.732a1.546 1.546 0 1 1-3.09-.105 1.546 1.546 0 0 1 3.09.105Z" opacity=".29"/>
    <path fill="#F8AE00" d="M55.634 31.736a1.55 1.55 0 0 1-1.594 1.49 1.552 1.552 0 0 1-1.5-1.595c.004-.088.016-.166.036-.245a1.543 1.543 0 0 0 3.04.103c.014.079.02.159.018.247Z" opacity=".29"/>
    <path fill="#fff" d="M54.942 31.083c-.013.373-.394.498-.858.482-.464-.016-.835-.166-.823-.539.012-.373.399-.662.863-.646.465.015.83.33.818.703Z" opacity=".2"/>
    <path fill="#F8AE00" d="M30.283 31.732a1.546 1.546 0 1 1-3.09-.105 1.546 1.546 0 0 1 3.09.105Z"/>
    <path fill="#F8AE00" d="M30.283 31.732a1.546 1.546 0 1 1-3.09-.105 1.546 1.546 0 0 1 3.09.105Z" opacity=".29"/>
    <path fill="#F8AE00" d="M30.283 31.736a1.55 1.55 0 0 1-1.594 1.49 1.552 1.552 0 0 1-1.499-1.595 1.13 1.13 0 0 1 .035-.245 1.543 1.543 0 0 0 3.04.103c.015.079.02.159.018.247Z" opacity=".29"/>
    <path fill="#fff" d="M29.59 31.083c-.013.373-.393.498-.857.482-.464-.016-.836-.166-.823-.539.012-.373.399-.662.863-.646.464.015.83.33.817.703Z" opacity=".2"/>
    <path fill="#F8AE00" d="M59.79 41.522a1.545 1.545 0 1 1-3.089-.104 1.545 1.545 0 0 1 3.09.104Z"/>
    <path fill="#F8AE00" d="M59.79 41.522a1.545 1.545 0 1 1-3.089-.104 1.545 1.545 0 0 1 3.09.104Z" opacity=".29"/>
    <path fill="#F8AE00" d="M59.79 41.525a1.55 1.55 0 0 1-1.594 1.49 1.552 1.552 0 0 1-1.498-1.595 1.08 1.08 0 0 1 .035-.245 1.543 1.543 0 0 0 3.04.103c.014.08.02.159.017.247Z" opacity=".29"/>
    <path fill="#fff" d="M59.098 40.872c-.013.373-.394.498-.858.482-.464-.016-.835-.166-.823-.539.012-.373.4-.662.863-.646.465.015.83.33.818.703Z" opacity=".2"/>
    <path fill="#F8AE00" d="M54.591 53.096a1.546 1.546 0 1 1-3.09-.105 1.546 1.546 0 0 1 3.09.105Z"/>
    <path fill="#F8AE00" d="M54.591 53.096a1.546 1.546 0 1 1-3.09-.105 1.546 1.546 0 0 1 3.09.105Z" opacity=".29"/>
    <path fill="#F8AE00" d="M54.592 53.1a1.55 1.55 0 0 1-1.595 1.49 1.552 1.552 0 0 1-1.498-1.594c.003-.088.014-.167.035-.246a1.543 1.543 0 0 0 3.04.103c.014.08.02.16.017.247Z" opacity=".29"/>
    <path fill="#fff" d="M53.9 52.448c-.013.373-.394.498-.858.483-.464-.016-.836-.167-.823-.54.012-.372.399-.662.863-.646.464.016.83.33.818.703Z" opacity=".2"/>
    <path fill="#6BABFF" d="M37.516 28.57c3.14-.313 9.847-.877 13.335-.377.706.102 1.125.839.864 1.502-.903 2.297-4.25 9.4-4.25 9.4l1.89.063c1.157.236 1.68 1.592.97 2.537-2.412 3.21-7.837 9.346-12.812 12.945-1.111.804-2.647-.082-2.528-1.448.225-2.592.879-6.52 2.704-10.699l-5.148-.295a1.339 1.339 0 0 1-1.263-1.912l3.814-10.004a3.008 3.008 0 0 1 2.424-1.712Z"/>
    <path fill="url(#b)" d="M50.666 30.211c-.06.154-.134.33-.217.527-1.26 2.978-3.383 5.54-6.147 7.215l-.052.031c-4.012 2.41-8.246 3.47-11.626 3.173a1.21 1.21 0 0 1-.314-1.441l3.425-8.985a2.692 2.692 0 0 1 2.18-1.53c2.815-.284 8.839-.793 11.97-.34a.994.994 0 0 1 .781 1.35Z" opacity=".9"/>
    <path fill="#6BABFF" d="M50.322 41.691c-2.407 3.212-7.83 9.346-12.81 12.95-1.114.799-2.649-.082-2.527-1.45a34.272 34.272 0 0 1 1.36-7.033c4.717.744 10.052-1.792 13.25-6.742.032-.054.063-.1.096-.153.912.402 1.273 1.58.631 2.428Z" opacity=".27"/>
  </g>
  <defs>
    <linearGradient id="b" x1="36.782" x2="43.873" y1="18.597" y2="43.514" gradientUnits="userSpaceOnUse">
      <stop offset=".253" stop-color="#fff"/>
      <stop offset=".807" stop-color="#fff" stop-opacity="0"/>
    </linearGradient>
    <filter id="a" width="155.371" height="82.94" x="0" y="0" color-interpolation-filters="sRGB" filterUnits="userSpaceOnUse">
      <feFlood flood-opacity="0" result="BackgroundImageFix"/>
      <feColorMatrix in="SourceAlpha" result="hardAlpha" values="0 0 0 0 0 0 0 0 0 0 0 0 0 0 0 0 0 0 127 0"/>
      <feOffset/>
      <feGaussianBlur stdDeviation="10"/>
      <feComposite in2="hardAlpha" operator="out"/>
      <feColorMatrix values="0 0 0 0 0.586538 0 0 0 0 0.15641 0 0 0 0 0 0 0 0 0.5 0"/>
      <feBlend in2="BackgroundImageFix" result="effect1_dropShadow_7_15197"/>
      <feBlend in="SourceGraphic" in2="effect1_dropShadow_7_15197" result="shape"/>
    </filter>
  </defs>
</svg>
