<svg xmlns="http://www.w3.org/2000/svg" width="152" height="119" fill="none" viewBox="0 0 152 119">
  <g filter="url(#a)">
    <path fill="#F8AE00" d="M119.921 51.214v3.745H30.649v-3.745c0-6.635 6.233-11.498 12.666-9.877l9.954 2.5c2.764.692 5.328-1.645 4.888-4.46v-.038c-.276-1.797 1.408-3.254 3.167-2.777 4.587 1.269 8.557 1.42 11.448-.566a4.385 4.385 0 0 1 5.026 0c2.89 1.985 6.849 1.835 11.448.566 1.76-.478 3.443.98 3.166 2.777l-.013.038c-.44 2.815 2.137 5.152 4.889 4.46l9.952-2.5c6.436-1.621 12.681 3.243 12.681 9.877Z"/>
    <path fill="url(#b)" d="M119.916 51.205v3.759H30.638v-3.76c0-6.627 6.246-11.482 12.668-9.876l9.956 2.506a3.955 3.955 0 0 0 4.885-3.152 3.84 3.84 0 0 0 .01-1.302v-.04c-.275-1.8 1.409-3.25 3.17-2.78 4.592 1.273 8.557 1.43 11.445-.567a4.387 4.387 0 0 1 5.03 0c2.88 1.997 6.843 1.84 11.444.568 1.763-.47 3.446.978 3.172 2.78l-.02.039c-.02.167-.039.332-.048.49-.088 2.584 2.35 4.63 4.943 3.964l9.956-2.505c6.421-1.607 12.667 3.248 12.667 9.876Z" opacity=".56"/>
    <path fill="#F8AE00" d="M57.992 41.238c-.621 1.882-2.604 3.133-4.718 2.6l-9.953-2.5c-6.433-1.622-12.666 3.242-12.666 9.876v.49c0-6.635 6.233-11.498 12.666-9.877l9.953 2.5c2.292.577 4.445-.945 4.858-3.089h-.14Zm.174-2.153c.212-1.434 1.654-2.441 3.164-2.033 4.586 1.27 8.557 1.42 11.448-.566a4.386 4.386 0 0 1 5.026 0c2.89 1.986 6.85 1.835 11.448.566 1.51-.408 2.952.6 3.164 2.033h.013c.09-1.677-1.502-2.982-3.177-2.523-4.6 1.269-8.557 1.42-11.447-.566a4.386 4.386 0 0 0-5.028 0c-2.89 1.985-6.86 1.835-11.447.566-1.675-.46-3.268.846-3.177 2.523h.013Zm49.082 2.252-9.953 2.5c-2.103.535-4.092-.717-4.717-2.6h-.14c.416 2.144 2.576 3.666 4.858 3.09l9.952-2.5c6.434-1.621 12.679 3.242 12.679 9.877v-.49c0-6.634-6.245-11.497-12.679-9.877Z" opacity=".35"/>
    <path fill="#F68B55" d="M119.921 51.277h-7.347c-9.201 0-18.296-3.06-25.097-9.258a18.237 18.237 0 0 0-12.329-4.768 18.238 18.238 0 0 0-12.329 4.774c-6.797 6.197-15.892 9.253-25.09 9.253h-7.08v3.681h26.204v.005h36.592l-.001-.005h26.476l.001-3.682Z" opacity=".27"/>
    <path fill="#F8AE00" d="M91.558 54.959H58.996c.158-8.86 7.378-15.993 16.29-15.993 8.895 0 16.115 7.133 16.272 15.993Z"/>
    <path fill="#F8AE00" d="M91.558 54.959H58.996c.158-8.86 7.378-15.993 16.29-15.993 8.895 0 16.115 7.133 16.272 15.993Z" opacity=".35"/>
    <path fill="url(#c)" d="M91.558 54.959H58.996c.158-8.86 7.378-15.993 16.29-15.993 8.895 0 16.115 7.133 16.272 15.993Z" opacity=".56"/>
    <path fill="#F8AE00" d="M91.567 54.96h-.105c-.907-8.128-7.796-14.441-16.168-14.441-8.389 0-15.278 6.313-16.185 14.44h-.104c.157-8.86 7.377-15.993 16.29-15.993 8.895 0 16.115 7.133 16.272 15.994Z" opacity=".35"/>
    <path fill="#F8AE00" d="M46.794 88.02v-2.391h56.983v2.39c0 4.236-3.978 7.34-8.086 6.305l-6.352-1.596a2.53 2.53 0 0 0-3.12 2.847v.024c.175 1.147-.899 2.078-2.022 1.773-2.928-.81-5.463-.907-7.307.36a2.8 2.8 0 0 1-3.208 0c-1.846-1.267-4.372-1.17-7.308-.36-1.123.305-2.198-.626-2.02-1.773l.007-.024c.28-1.796-1.364-3.288-3.12-2.847l-6.353 1.596c-4.108 1.035-8.094-2.07-8.094-6.305Z"/>
    <path fill="url(#d)" d="M46.798 88.024v-2.398h56.982v2.398c0 4.229-3.984 7.332-8.085 6.304l-6.354-1.596a2.523 2.523 0 0 0-3.122 2.84v.028c.175 1.146-.901 2.076-2.027 1.772-2.927-.813-5.462-.91-7.303.362a2.798 2.798 0 0 1-3.21 0c-1.84-1.272-4.366-1.174-7.304-.362-1.125.304-2.202-.626-2.026-1.772l.01-.028c.283-1.792-1.361-3.29-3.123-2.84l-6.354 1.596c-4.1 1.028-8.084-2.075-8.084-6.304Z" opacity=".56"/>
    <path fill="#F8AE00" d="M86.323 94.387c.396-1.2 1.662-2 3.012-1.659l6.352 1.597c4.108 1.034 8.086-2.07 8.086-6.305v-.313c0 4.236-3.978 7.34-8.086 6.305l-6.352-1.597c-1.464-.367-2.838.604-3.102 1.972h.09Zm-.11 1.375a1.606 1.606 0 0 1-2.02 1.297c-2.928-.81-5.463-.906-7.307.36a2.8 2.8 0 0 1-3.209 0c-1.845-1.267-4.371-1.17-7.307-.36a1.606 1.606 0 0 1-2.02-1.297h-.007c-.058 1.07.959 1.903 2.027 1.61 2.936-.81 5.463-.906 7.307.361a2.8 2.8 0 0 0 3.209 0c1.845-1.267 4.379-1.17 7.307-.36 1.068.293 2.085-.54 2.027-1.611h-.007Zm-31.33-1.437 6.353-1.597c1.342-.34 2.612.458 3.01 1.659h.09c-.265-1.368-1.644-2.34-3.1-1.972l-6.353 1.597c-4.107 1.035-8.093-2.07-8.093-6.305v.313c0 4.235 3.986 7.339 8.093 6.305Z" opacity=".35"/>
    <path fill="#F68B55" d="M46.794 87.979h4.69c5.873 0 11.679 1.953 16.02 5.91a11.641 11.641 0 0 0 7.87 3.043 11.64 11.64 0 0 0 7.869-3.048c4.338-3.956 10.143-5.906 16.015-5.906h4.519v-2.35H87.051v-.003H63.693v.003h-16.9v2.35Z" opacity=".27"/>
    <path fill="#F8AE00" d="M64.898 85.629h20.785a10.393 10.393 0 0 1-10.398 10.209c-5.678 0-10.287-4.554-10.387-10.21Z"/>
    <path fill="#F8AE00" d="M64.898 85.629h20.785a10.393 10.393 0 0 1-10.398 10.209c-5.678 0-10.287-4.554-10.387-10.21Z" opacity=".35"/>
    <path fill="url(#e)" d="M64.898 85.629h20.785a10.393 10.393 0 0 1-10.398 10.209c-5.678 0-10.287-4.554-10.387-10.21Z" opacity=".56"/>
    <path fill="#F8AE00" d="M64.893 85.629h.066c.579 5.188 4.977 9.218 10.32 9.218 5.355 0 9.752-4.03 10.331-9.218h.067a10.393 10.393 0 0 1-10.398 10.209c-5.677 0-10.286-4.554-10.386-10.21Z" opacity=".35"/>
    <path fill="#F22828" d="M94.048 30.486a11.441 11.441 0 0 1-.825 4.158c-2.162 5.407-8.256 12.181-17.525 15.86a3.724 3.724 0 0 1-.172.063c-.06-.02-.12-.042-.173-.062-9.269-3.679-15.363-10.454-17.525-15.86a11.25 11.25 0 0 1-.792-3.423 6.836 6.836 0 0 1-.033-.736c-.007-.139 0-.284.007-.423.093-3.998 2.302-7.704 5.948-9.294 4.657-2.034 10.027.104 12.528 4.79.02.035.06.035.08 0 2.501-4.686 7.87-6.824 12.528-4.79 3.646 1.59 5.855 5.296 5.948 9.294.006.139.012.284.006.423Z"/>
    <path fill="#F22828" d="M94.048 30.486a11.441 11.441 0 0 1-.825 4.158c-2.162 5.407-8.256 12.181-17.525 15.86a3.724 3.724 0 0 1-.172.063c-.06-.02-.12-.042-.173-.062-9.269-3.679-15.363-10.454-17.525-15.86a11.25 11.25 0 0 1-.792-3.423 6.836 6.836 0 0 1-.033-.736c-.007-.139 0-.284.007-.423.093-3.998 2.302-7.704 5.948-9.294 4.657-2.034 10.027.104 12.528 4.79.02.035.06.035.08 0 2.501-4.686 7.87-6.824 12.528-4.79 3.646 1.59 5.855 5.296 5.948 9.294.006.139.012.284.006.423Z" opacity=".38"/>
    <path fill="#F22828" d="M89.524 31.952a8.656 8.656 0 0 1-.623 3.142c-1.635 4.086-6.241 9.205-13.246 11.986l-.13.047a3.732 3.732 0 0 1-.131-.047c-7.005-2.78-11.611-7.9-13.245-11.987a8.486 8.486 0 0 1-.599-2.586 5.283 5.283 0 0 1-.024-.556c-.006-.105 0-.216.005-.32.07-3.021 1.74-5.823 4.495-7.024 3.52-1.538 7.578.078 9.469 3.62.015.026.045.026.06 0 1.89-3.542 5.95-5.158 9.469-3.62 2.755 1.201 4.425 4.002 4.495 7.024.005.105.01.215.005.32Z" opacity=".57"/>
    <path fill="url(#f)" d="M61 27a3 3 0 0 1 3-3h4a3 3 0 0 1 3 3v6a3 3 0 0 1-3 3h-4a3 3 0 0 1-3-3v-6Z"/>
    <path fill="#F8AE00" d="M125.395 53.945H26.652c-.852 0-1.635.46-2.075 1.195-.887 1.477-.118 30.19-.01 30.376a2.42 2.42 0 0 0 2.075 1.184h98.753a2.422 2.422 0 0 0 2.418-2.418V56.373a2.426 2.426 0 0 0-2.418-2.428Z"/>
    <rect width="103.5" height="32.5" x="24.3" y="54" fill="#412636" rx="4"/>
    <rect width="27.833" height="25" x="29.3" y="57.75" fill="#F22828" rx="2"/>
    <rect width="27.833" height="25" x="62.133" y="57.75" fill="#F22828" rx="2"/>
    <rect width="27.833" height="25" x="94.967" y="57.75" fill="#F22828" rx="2"/>
    <path fill="#412636" d="M127.813 80.113v4.17a2.422 2.422 0 0 1-2.418 2.417h-1.87l-1.947-7.234a.966.966 0 0 1 .283-.979.99.99 0 0 1 .999-.196l4.953 1.822Z" opacity=".21"/>
    <path fill="#F8AE00" d="m122.522 79.213 7.777 8.517-5.225.992-2.552-9.51Z"/>
    <path fill="#F8AE00" d="m122.522 79.213 7.777 8.517-5.225.992-2.552-9.51Z" opacity=".63"/>
    <path fill="#F8AE00" d="m122.522 79.213 7.777 8.517L132 82.69l-9.478-3.477Z"/>
    <path fill="#fff" d="M129.375 86.058c.318.28.711.354.875.166.164-.188.039-.567-.28-.846-.319-.28-.711-.354-.875-.166-.164.188-.039.567.28.846Zm-.935-1.272c.182.159.405.202.499.095.094-.107.022-.323-.16-.482-.182-.16-.405-.202-.499-.095-.094.107-.022.322.16.482Z" opacity=".59"/>
    <g opacity=".21">
      <path fill="#412636" d="M127.813 60.533v-4.17a2.423 2.423 0 0 0-2.418-2.418h-1.87l-1.947 7.235a.966.966 0 0 0 .283.978.99.99 0 0 0 .999.196l4.953-1.821Z" opacity=".41"/>
    </g>
    <path fill="#F8AE00" d="m122.522 61.433 7.777-8.518-5.225-.991-2.552 9.509Z"/>
    <path fill="#F8AE00" d="m122.522 61.433 7.777-8.518-5.225-.991-2.552 9.509Z" opacity=".63"/>
    <path fill="#F8AE00" d="m122.522 61.433 7.777-8.517 1.701 5.04-9.478 3.477Z"/>
    <path fill="#fff" d="M129.375 54.588c.318-.28.711-.354.875-.166.164.188.039.567-.28.846-.319.28-.711.354-.875.166-.164-.188-.039-.566.28-.846Zm-.935 1.272c.182-.16.405-.202.499-.095.094.107.022.323-.16.482-.182.159-.405.202-.499.095-.094-.107-.022-.322.16-.482Z" opacity=".59"/>
    <path fill="#412636" d="M24.187 60.533v-4.17a2.423 2.423 0 0 1 2.418-2.418h1.87l1.947 7.235a.966.966 0 0 1-.283.978.983.983 0 0 1-.999.196l-4.953-1.821Z" opacity=".21"/>
    <path fill="#F8AE00" d="M29.478 61.433 21.7 52.915l5.225-.991 2.552 9.509Z"/>
    <path fill="#F8AE00" d="M29.478 61.433 21.7 52.915l5.225-.991 2.552 9.509Z" opacity=".63"/>
    <path fill="#F8AE00" d="m29.478 61.433-7.777-8.517L20 57.956l9.478 3.477Z"/>
    <path fill="#fff" d="M22.625 54.588c-.318-.28-.71-.354-.875-.166-.164.188-.039.567.28.846.32.28.712.354.876.166.164-.188.038-.566-.28-.846Zm.936 1.272c-.182-.16-.405-.202-.499-.095-.094.107-.022.323.16.482.182.159.405.202.5.095.092-.107.02-.322-.16-.482Z" opacity=".59"/>
    <g opacity=".21">
      <path fill="#412636" d="M24.389 80.113v4.17a2.423 2.423 0 0 0 2.417 2.417h1.87l1.948-7.234a.968.968 0 0 0-.284-.979.988.988 0 0 0-.999-.196l-4.953 1.822Z" opacity=".41"/>
    </g>
    <path fill="#F8AE00" d="M29.478 79.213 21.7 87.73l5.225.992 2.552-9.51Z"/>
    <path fill="#F8AE00" d="M29.478 79.213 21.7 87.73l5.225.992 2.552-9.51Z" opacity=".63"/>
    <path fill="#F8AE00" d="m29.478 79.213-7.777 8.517L20 82.69l9.478-3.477Z"/>
    <path fill="#fff" d="M22.625 86.058c-.318.28-.71.354-.875.166-.164-.188-.039-.567.28-.846.32-.28.712-.354.876-.166.164.188.038.567-.28.846Zm.936-1.272c-.182.159-.405.202-.499.095-.094-.107-.022-.323.16-.482.182-.16.405-.202.5-.095.092.107.02.322-.16.482Z" opacity=".59"/>
  </g>
  <defs>
    <linearGradient id="b" x1="75.277" x2="75.277" y1="23.261" y2="52.904" gradientUnits="userSpaceOnUse">
      <stop offset=".216" stop-color="#fff"/>
      <stop offset=".923" stop-color="#fff" stop-opacity="0"/>
    </linearGradient>
    <linearGradient id="c" x1="75.277" x2="75.277" y1="32.321" y2="51.686" gradientUnits="userSpaceOnUse">
      <stop offset=".29" stop-color="#fff"/>
      <stop offset=".923" stop-color="#fff" stop-opacity="0"/>
    </linearGradient>
    <linearGradient id="d" x1="75.289" x2="75.289" y1="105.862" y2="86.941" gradientUnits="userSpaceOnUse">
      <stop offset=".216" stop-color="#fff"/>
      <stop offset=".923" stop-color="#fff" stop-opacity="0"/>
    </linearGradient>
    <linearGradient id="e" x1="75.29" x2="75.29" y1="100.079" y2="87.718" gradientUnits="userSpaceOnUse">
      <stop offset=".29" stop-color="#fff"/>
      <stop offset=".923" stop-color="#fff" stop-opacity="0"/>
    </linearGradient>
    <linearGradient id="f" x1="83" x2="87.982" y1="11" y2="34.964" gradientUnits="userSpaceOnUse">
      <stop offset=".253" stop-color="#fff"/>
      <stop offset=".807" stop-color="#fff" stop-opacity="0"/>
    </linearGradient>
    <filter id="a" width="152" height="118.241" x="0" y="0" color-interpolation-filters="sRGB" filterUnits="userSpaceOnUse">
      <feFlood flood-opacity="0" result="BackgroundImageFix"/>
      <feColorMatrix in="SourceAlpha" result="hardAlpha" values="0 0 0 0 0 0 0 0 0 0 0 0 0 0 0 0 0 0 127 0"/>
      <feOffset/>
      <feGaussianBlur stdDeviation="10"/>
      <feComposite in2="hardAlpha" operator="out"/>
      <feColorMatrix values="0 0 0 0 0.586538 0 0 0 0 0.15641 0 0 0 0 0 0 0 0 0.5 0"/>
      <feBlend in2="BackgroundImageFix" result="effect1_dropShadow_7_14963"/>
      <feBlend in="SourceGraphic" in2="effect1_dropShadow_7_14963" result="shape"/>
    </filter>
  </defs>
</svg>
