<svg xmlns="http://www.w3.org/2000/svg" width="16" height="25" fill="none" viewBox="0 0 16 25">
  <g filter="url(#a)">
    <path fill="#FFEAD3" stroke="#7596B5" d="M9.718.562c1.7-.088 3.474-.103 4.713.091.842.133 1.243 1.044.98 1.779-.313.867-1.04 2.624-1.681 4.151-.323.766-.627 1.48-.85 2.001l-.076.18.552.02.046.002.045.01c1.1.245 1.56 1.523 1.073 2.469l-.11.184c-1.65 2.404-5.362 7.002-8.79 9.716a1.488 1.488 0 0 1-1.747.098 1.716 1.716 0 0 1-.776-1.605 28.3 28.3 0 0 1 1.62-7.443l-2.81-.176v-.002C.828 12.046.234 10.88.608 9.956l2.586-7.423.006-.017.008-.017C3.58 1.639 4.346 1.03 5.256.931a80.757 80.757 0 0 1 4.46-.37Z"/>
    <path fill="url(#b)" d="M14.228 2.645a22.59 22.59 0 0 1-.147.391c-.854 2.21-2.294 4.11-4.168 5.354l-.035.024c-2.72 1.788-5.592 2.574-7.884 2.354a.956.956 0 0 1-.213-1.07l2.322-6.667c.275-.636.835-1.068 1.479-1.136 1.909-.21 5.994-.588 8.117-.251.431.065.687.558.53 1.001Z" opacity=".9"/>
    <path fill="#FFEAD3" d="M13.995 11.163c-1.632 2.384-5.31 6.936-8.686 9.61-.755.593-1.797-.061-1.714-1.076.104-1.35.355-3.18.922-5.219 3.199.552 6.816-1.33 8.985-5.003l.065-.114c.618.299.863 1.174.428 1.802Z" opacity=".27"/>
  </g>
  <defs>
    <linearGradient id="b" x1="4.814" x2="10.488" y1="-5.973" y2="12.248" gradientUnits="userSpaceOnUse">
      <stop offset=".253" stop-color="#fff"/>
      <stop offset=".807" stop-color="#fff" stop-opacity="0"/>
    </linearGradient>
    <filter id="a" width="15.988" height="24.249" x="0" y="0" color-interpolation-filters="sRGB" filterUnits="userSpaceOnUse">
      <feFlood flood-opacity="0" result="BackgroundImageFix"/>
      <feColorMatrix in="SourceAlpha" result="hardAlpha" values="0 0 0 0 0 0 0 0 0 0 0 0 0 0 0 0 0 0 127 0"/>
      <feOffset dy="2.25"/>
      <feComposite in2="hardAlpha" operator="out"/>
      <feColorMatrix values="0 0 0 0 0 0 0 0 0 0 0 0 0 0 0 0 0 0 0.5 0"/>
      <feBlend in2="BackgroundImageFix" result="effect1_dropShadow_92_4107"/>
      <feBlend in="SourceGraphic" in2="effect1_dropShadow_92_4107" result="shape"/>
    </filter>
  </defs>
</svg>
