<svg xmlns="http://www.w3.org/2000/svg" width="156" height="84" fill="none" viewBox="0 0 156 84">
  <g filter="url(#a)">
    <path fill="#F8AE00" d="M21.89 29.156h77.168c.665 0 1.277.36 1.621.934.693 1.154.092 23.593.008 23.738a1.892 1.892 0 0 1-1.622.925H21.89c-1.04 0-1.89-.849-1.89-1.89v-21.81c0-1.047.85-1.897 1.89-1.897Z"/>
    <path fill="#412636" d="M21.76 30.871h76.79V52.8H21.76V30.871Z"/>
    <path fill="#F68B55" d="M90.92 51.065V32.469c0-.395-.339-.716-.757-.716h-8.637c-.418 0-.757.32-.757.716v18.596c0 .396.34.716.757.716h8.637c.418 0 .757-.32.757-.716Z"/>
    <path fill="#F68B55" d="M81.527 51.78V31.75c-.418 0-.757.32-.757.716v18.596c0 .396.339.717.757.717Zm9.393-.715V32.469c0-.395-.339-.716-.757-.716h-.03v20.029h.03c.418 0 .757-.321.757-.717Z" opacity=".47"/>
    <path fill="#F68B55" d="M89.5 51.78h-7.312V31.753H89.5V51.78Z" opacity=".24"/>
    <path fill="#F68B55" d="M87.19 51.78h-2.693V31.753h2.693V51.78Z" opacity=".24"/>
    <path fill="#F68B55" d="M79.29 51.065V32.469c0-.395-.339-.716-.757-.716h-8.636c-.418 0-.757.32-.757.716v18.596c0 .396.339.716.757.716h8.636c.418 0 .757-.32.757-.716Z"/>
    <path fill="#F68B55" d="M69.897 51.78V31.75c-.418 0-.757.32-.757.716v18.596c0 .396.339.717.757.717Zm9.393-.715V32.469c0-.395-.339-.716-.757-.716h-.03v20.029h.03c.418 0 .757-.321.757-.717Z" opacity=".47"/>
    <path fill="#F68B55" d="M77.87 51.78h-7.312V31.753h7.312V51.78Z" opacity=".24"/>
    <path fill="#F68B55" d="M75.56 51.78h-2.692V31.753h2.693V51.78Z" opacity=".24"/>
    <path fill="#F68B55" d="M67.66 51.065V32.469c0-.395-.339-.716-.757-.716h-8.636c-.419 0-.758.32-.758.716v18.596c0 .396.34.716.758.716h8.636c.418 0 .757-.32.757-.716Z"/>
    <path fill="#F68B55" d="M58.267 51.78V31.75c-.418 0-.757.32-.757.716v18.596c0 .396.34.717.757.717Zm9.393-.715V32.469c0-.395-.339-.716-.757-.716h-.03v20.029h.03c.418 0 .757-.321.757-.717Z" opacity=".47"/>
    <path fill="#F68B55" d="M66.24 51.78h-7.312V31.753h7.312V51.78Z" opacity=".24"/>
    <path fill="#F68B55" d="M63.93 51.78h-2.692V31.753h2.693V51.78Z" opacity=".24"/>
    <path fill="#F68B55" d="M56.03 51.065V32.469c0-.395-.339-.716-.757-.716h-8.636c-.419 0-.758.32-.758.716v18.596c0 .396.34.716.758.716h8.636c.418 0 .758-.32.758-.716Z"/>
    <path fill="#F68B55" d="M46.638 51.78V31.75c-.419 0-.758.32-.758.716v18.596c0 .396.34.717.758.717Zm9.392-.715V32.469c0-.395-.339-.716-.757-.716h-.03v20.029h.03c.418 0 .758-.321.758-.717Z" opacity=".47"/>
    <path fill="#F68B55" d="M54.61 51.78h-7.312V31.753h7.312V51.78Z" opacity=".24"/>
    <path fill="#F68B55" d="M52.301 51.78h-2.693V31.753h2.693V51.78Z" opacity=".24"/>
    <path fill="#F8AE00" d="M113.778 20c11.913 0 21.577 9.664 21.577 21.578 0 11.913-9.664 21.569-21.577 21.569-11.914 0-21.57-9.656-21.57-21.57 0-11.913 9.655-21.577 21.57-21.577Zm0 40.463c10.434 0 18.893-8.46 18.893-18.885 0-10.435-8.459-18.894-18.893-18.894-10.435 0-18.886 8.459-18.886 18.894 0 10.426 8.451 18.885 18.886 18.885Z"/>
    <path fill="#F8AE00" d="M93.434 41.578c0 11.23 9.103 20.343 20.343 20.343s20.352-9.112 20.352-20.343c0-11.24-9.112-20.351-20.352-20.351s-20.343 9.111-20.343 20.351Z" opacity=".22"/>
    <path fill="#F8AE00" d="M93.953 41.578c0 10.944 8.871 19.823 19.824 19.823 10.954 0 19.833-8.88 19.833-19.823 0-10.954-8.879-19.834-19.833-19.834-10.953 0-19.824 8.88-19.824 19.834Z" opacity=".67"/>
    <path fill="#F8AE00" d="M94.892 41.577c0 10.426 8.451 18.886 18.886 18.886 10.434 0 18.894-8.46 18.894-18.886 0-10.434-8.46-18.893-18.894-18.893-10.435 0-18.886 8.459-18.886 18.893Z"/>
    <path fill="#F8AE00" d="M94.892 41.577c0 10.426 8.451 18.886 18.886 18.886 10.434 0 18.894-8.46 18.894-18.886 0-10.434-8.46-18.893-18.894-18.893-10.435 0-18.886 8.459-18.886 18.893Z" opacity=".16"/>
    <path fill="#F68B55" d="M98.965 36.84c.582-1.793 2.176-2.95 4.06-2.95h5.15l1.591-4.898c.582-1.792 2.176-2.95 4.06-2.95 1.884 0 3.478 1.158 4.06 2.95l1.591 4.897h5.15c1.884 0 3.478 1.159 4.06 2.95.582 1.793-.026 3.666-1.551 4.773l-4.165 3.027.751 2.311a.98.98 0 0 1 .035.091l.809 2.49c.582 1.794-.029 3.67-1.555 4.779-1.527 1.11-3.5 1.11-5.027.001l-4.158-3.023-4.159 3.023a4.263 4.263 0 0 1-2.512.831 4.268 4.268 0 0 1-2.515-.833c-1.526-1.11-2.135-2.986-1.55-4.779l.817-2.512a1.08 1.08 0 0 1 .02-.057l.755-2.322-4.166-3.027c-1.524-1.107-2.133-2.98-1.55-4.773Z" opacity=".3"/>
    <path fill="#412636" d="M100.681 41.576c0 7.23 5.861 13.098 13.098 13.098 7.237 0 13.104-5.867 13.104-13.098 0-7.237-5.867-13.104-13.104-13.104-7.237 0-13.098 5.867-13.098 13.104Z"/>
    <path fill="#F8AE00" d="M112.228 58.072a1.553 1.553 0 1 0 3.103-.104 1.553 1.553 0 0 0-3.103.104Z"/>
    <path fill="#F8AE00" d="M112.228 58.072a1.553 1.553 0 1 0 3.103-.104 1.553 1.553 0 0 0-3.103.104Z" opacity=".29"/>
    <path fill="#F8AE00" d="M112.228 58.078c.029.85.751 1.525 1.601 1.496a1.56 1.56 0 0 0 1.506-1.602 1.146 1.146 0 0 0-.035-.246 1.553 1.553 0 0 1-1.488 1.344 1.552 1.552 0 0 1-1.567-1.241c-.014.08-.02.16-.017.248Z" opacity=".29"/>
    <path fill="#fff" d="M112.923 57.421c.013.375.395.5.861.485.467-.016.84-.167.828-.542-.013-.374-.401-.665-.868-.65-.466.016-.834.333-.821.707Z" opacity=".2"/>
    <path fill="#F8AE00" d="M123.859 53.256a1.553 1.553 0 1 0 3.103-.104 1.553 1.553 0 0 0-3.103.104Z"/>
    <path fill="#F8AE00" d="M123.859 53.256a1.553 1.553 0 1 0 3.103-.104 1.553 1.553 0 0 0-3.103.104Z" opacity=".29"/>
    <path fill="#F8AE00" d="M123.859 53.26c.029.85.751 1.526 1.601 1.497a1.56 1.56 0 0 0 1.506-1.602 1.088 1.088 0 0 0-.035-.247 1.55 1.55 0 0 1-3.054.103c-.015.08-.021.16-.018.25Z" opacity=".29"/>
    <path fill="#fff" d="M124.554 52.604c.013.375.395.5.862.485.466-.017.839-.168.827-.542-.013-.375-.401-.665-.867-.65-.467.016-.835.332-.822.707Z" opacity=".2"/>
    <path fill="#F8AE00" d="M129.053 41.624a1.553 1.553 0 1 0 3.104-.104 1.553 1.553 0 0 0-3.104.104Z"/>
    <path fill="#F8AE00" d="M129.053 41.624a1.553 1.553 0 1 0 3.104-.104 1.553 1.553 0 0 0-3.104.104Z" opacity=".29"/>
    <path fill="#F8AE00" d="M129.053 41.63c.029.85.752 1.526 1.602 1.497a1.56 1.56 0 0 0 1.505-1.602 1.088 1.088 0 0 0-.035-.247 1.55 1.55 0 0 1-3.054.103c-.015.08-.021.16-.018.25Z" opacity=".29"/>
    <path fill="#fff" d="M129.748 40.974c.013.375.396.5.862.485.466-.016.839-.167.827-.542-.013-.375-.401-.665-.867-.65-.467.016-.835.332-.822.707Z" opacity=".2"/>
    <path fill="#F8AE00" d="M123.859 29.995a1.552 1.552 0 1 0 3.104-.105 1.553 1.553 0 1 0-3.104.105Z"/>
    <path fill="#F8AE00" d="M123.859 29.995a1.552 1.552 0 1 0 3.104-.105 1.553 1.553 0 1 0-3.104.105Z" opacity=".29"/>
    <path fill="#F8AE00" d="M123.859 29.997c.028.85.751 1.526 1.601 1.497a1.56 1.56 0 0 0 1.506-1.602 1.147 1.147 0 0 0-.035-.247 1.553 1.553 0 0 1-1.488 1.345 1.552 1.552 0 0 1-1.567-1.241c-.014.08-.02.16-.017.248Z" opacity=".29"/>
    <path fill="#fff" d="M124.554 29.342c.013.375.395.5.861.485.467-.016.84-.167.828-.542-.013-.375-.401-.665-.867-.65-.467.016-.835.333-.822.707Z" opacity=".2"/>
    <path fill="#F8AE00" d="M112.228 25.177a1.553 1.553 0 1 0 3.104-.104 1.553 1.553 0 0 0-3.104.104Z"/>
    <path fill="#F8AE00" d="M112.228 25.177a1.553 1.553 0 1 0 3.104-.104 1.553 1.553 0 0 0-3.104.104Z" opacity=".29"/>
    <path fill="#F8AE00" d="M112.228 25.182c.029.85.751 1.525 1.601 1.496a1.56 1.56 0 0 0 1.506-1.602 1.146 1.146 0 0 0-.035-.247 1.553 1.553 0 0 1-1.488 1.344 1.552 1.552 0 0 1-1.567-1.24c-.014.08-.02.16-.017.249Z" opacity=".29"/>
    <path fill="#fff" d="M112.923 24.526c.013.374.395.5.861.484.467-.016.84-.167.828-.541-.013-.375-.401-.665-.868-.65-.466.016-.834.332-.821.707Z" opacity=".2"/>
    <path fill="#F8AE00" d="M100.597 29.995a1.553 1.553 0 1 0 3.104-.104 1.553 1.553 0 0 0-3.104.104Z"/>
    <path fill="#F8AE00" d="M100.597 29.995a1.553 1.553 0 1 0 3.104-.104 1.553 1.553 0 0 0-3.104.104Z" opacity=".29"/>
    <path fill="#F8AE00" d="M100.597 29.997c.029.85.752 1.526 1.602 1.497a1.56 1.56 0 0 0 1.506-1.602 1.147 1.147 0 0 0-.035-.247 1.55 1.55 0 0 1-3.055.103 1.133 1.133 0 0 0-.018.25Z" opacity=".29"/>
    <path fill="#fff" d="M101.292 29.342c.013.375.396.5.862.485.466-.016.84-.167.827-.542-.013-.375-.401-.665-.867-.65-.466.016-.834.333-.822.707Z" opacity=".2"/>
    <path fill="#F8AE00" d="M95.374 41.624a1.553 1.553 0 1 0 3.104-.104 1.553 1.553 0 0 0-3.104.104Z"/>
    <path fill="#F8AE00" d="M95.374 41.624a1.553 1.553 0 1 0 3.104-.104 1.553 1.553 0 0 0-3.104.104Z" opacity=".29"/>
    <path fill="#F8AE00" d="M95.374 41.63c.029.85.752 1.526 1.602 1.497a1.56 1.56 0 0 0 1.505-1.602 1.128 1.128 0 0 0-.035-.247 1.55 1.55 0 0 1-3.055.103c-.014.08-.02.16-.017.25Z" opacity=".29"/>
    <path fill="#fff" d="M96.07 40.974c.012.375.395.5.86.485.467-.016.84-.167.828-.542-.013-.375-.401-.665-.867-.65-.467.016-.835.332-.822.707Z" opacity=".2"/>
    <path fill="#F8AE00" d="M100.597 53.256a1.553 1.553 0 1 0 3.104-.105 1.553 1.553 0 0 0-3.104.105Z"/>
    <path fill="#F8AE00" d="M100.597 53.256a1.553 1.553 0 1 0 3.104-.105 1.553 1.553 0 0 0-3.104.105Z" opacity=".29"/>
    <path fill="#F8AE00" d="M100.597 53.26c.029.85.752 1.526 1.602 1.497a1.56 1.56 0 0 0 1.506-1.602 1.147 1.147 0 0 0-.035-.247 1.55 1.55 0 0 1-3.055.103c-.015.08-.021.16-.018.25Z" opacity=".29"/>
    <path fill="#fff" d="M101.292 52.604c.013.375.396.5.862.485.466-.017.84-.168.827-.542-.012-.375-.401-.665-.867-.65-.466.016-.834.332-.822.707Z" opacity=".2"/>
    <path fill="#F68B55" d="m110.816 29.22-1.798 5.534h-5.819c-3.243 0-4.592 4.15-1.967 6.056l4.707 3.42-1.798 5.535c-1.003 3.084 2.528 5.649 5.152 3.743l4.707-3.42 4.707 3.42c2.624 1.906 6.155-.659 5.152-3.744l-1.798-5.534 4.707-3.42c2.624-1.906 1.276-6.056-1.967-6.056h-5.819l-1.798-5.534c-1.003-3.085-5.366-3.085-6.368 0Z"/>
    <path fill="#F68B55" d="m112.235 36.319-.73 2.244a.09.09 0 0 1-.085.062h-2.36c-1.592 0-2.255 2.038-.966 2.974l1.909 1.387a.089.089 0 0 1 .033.1l-.729 2.245c-.492 1.514 1.241 2.774 2.529 1.838l1.91-1.387a.09.09 0 0 1 .105 0l1.91 1.387c1.288.936 3.021-.324 2.529-1.838l-.729-2.245a.09.09 0 0 1 .032-.1l1.91-1.387c1.288-.936.626-2.974-.966-2.974h-2.36a.09.09 0 0 1-.086-.062l-.729-2.245c-.492-1.514-2.635-1.514-3.127 0Z" opacity=".3"/>
    <path fill="url(#b)" d="M101.553 40.244c1.222.887 2.566 1.6 4.006 2.056 2.631.833 5.688 1.31 8.952 1.31a31.76 31.76 0 0 0 5.649-.497c2.109-.382 4.092-1.275 5.825-2.535l.462-.335c2.168-1.576 1.053-5.006-1.627-5.006h-6.105a.204.204 0 0 1-.194-.143l-1.598-5.601c-.922-2.83-4.925-2.83-5.842 0l-1.599 5.601a.207.207 0 0 1-.197.143h-6.105c-2.682 0-3.796 3.431-1.627 5.007Z"/>
    <path fill="#F68B55" d="m109.299 53.51 4.568-3.322a.221.221 0 0 1 .264 0l4.568 3.322c2.628 1.908 6.166-.662 5.164-3.752l-.809-2.489c-2.528 1.367-5.652 2.168-9.028 2.168-3.395 0-6.534-.813-9.07-2.19l-.817 2.511c-1.006 3.09 2.532 5.66 5.16 3.752Z" opacity=".3"/>
  </g>
  <defs>
    <linearGradient id="b" x1="115.662" x2="112.968" y1="24.633" y2="46.342" gradientUnits="userSpaceOnUse">
      <stop offset=".471" stop-color="#fff"/>
      <stop offset=".991" stop-color="#fff" stop-opacity="0"/>
    </linearGradient>
    <filter id="a" width="155.355" height="83.147" x="0" y="0" color-interpolation-filters="sRGB" filterUnits="userSpaceOnUse">
      <feFlood flood-opacity="0" result="BackgroundImageFix"/>
      <feColorMatrix in="SourceAlpha" result="hardAlpha" values="0 0 0 0 0 0 0 0 0 0 0 0 0 0 0 0 0 0 127 0"/>
      <feOffset/>
      <feGaussianBlur stdDeviation="10"/>
      <feComposite in2="hardAlpha" operator="out"/>
      <feColorMatrix values="0 0 0 0 0.586538 0 0 0 0 0.15641 0 0 0 0 0 0 0 0 0.5 0"/>
      <feBlend in2="BackgroundImageFix" result="effect1_dropShadow_7_15067"/>
      <feBlend in="SourceGraphic" in2="effect1_dropShadow_7_15067" result="shape"/>
    </filter>
  </defs>
</svg>
