<svg xmlns="http://www.w3.org/2000/svg" width="189" height="801" fill="none" viewBox="0 0 189 801">
  <g filter="url(#a)">
    <path fill="url(#b)" d="M30.363 0h158v800h-159c5.027 2.377 169.928-69.957 152-166-17.927-96.043-152.18-92.596-175.882-110.5-6.813-5.147-7.711-14.522-.21-18.6 13.517-7.345 41.486-17.159 79.605-29.13 4.972-1.561 9.856-3.454 14.507-5.806 26.319-13.316 43.499-25.808 50.468-40.014 4.237-8.636 4.767-19.177.454-27.775-1.975-3.937-4.804-8.693-8.516-14.581a79.972 79.972 0 0 1-5.177-9.547l-3.334-7.335a27.517 27.517 0 0 1 3.911-29.003l1.636-1.963c2.343-2.812 5.143-5.22 8.245-7.164 20.166-12.641 29.026-20.169 31.283-27.692 1.138-3.796.771-7.001.446-10.95-1.328-16.101-7.639-32.543-5.651-48.575 1.043-8.412 1.742-15.496 1.906-21.797.156-6.037.495-12.271-1.473-17.98-.379-1.1-.84-2.249-1.386-3.457-11.166-24.697-20.871-50.126-18.876-77.156C158.582 53.652 141.976 23.538 30.363 0Z"/>
  </g>
  <defs>
    <linearGradient id="b" x1="69.191" x2="199.691" y1="477.5" y2="477.5" gradientUnits="userSpaceOnUse">
      <stop stop-color="#99F5FF"/>
      <stop offset=".654" stop-color="#3B92AB"/>
      <stop offset="1" stop-color="#3A6C9E"/>
    </linearGradient>
    <filter id="a" width="200.364" height="804.057" x="0" y="0" color-interpolation-filters="sRGB" filterUnits="userSpaceOnUse">
      <feFlood flood-opacity="0" result="BackgroundImageFix"/>
      <feBlend in="SourceGraphic" in2="BackgroundImageFix" result="shape"/>
      <feColorMatrix in="SourceAlpha" result="hardAlpha" values="0 0 0 0 0 0 0 0 0 0 0 0 0 0 0 0 0 0 127 0"/>
      <feOffset dx="12" dy="4"/>
      <feGaussianBlur stdDeviation="11.95"/>
      <feComposite in2="hardAlpha" k2="-1" k3="1" operator="arithmetic"/>
      <feColorMatrix values="0 0 0 0 1 0 0 0 0 1 0 0 0 0 1 0 0 0 0.77 0"/>
      <feBlend in2="shape" result="effect1_innerShadow_396_5966"/>
    </filter>
  </defs>
</svg>
