<svg xmlns="http://www.w3.org/2000/svg" width="23" height="26" fill="none" viewBox="0 0 23 26">
  <g filter="url(#a)">
    <path fill="#63EAD1" d="m.583 11.083 10.5 10.5 10.5-10.5-10.5-10.5-10.5 10.5Z"/>
    <path fill="#02476F" fill-rule="evenodd" d="M.17 10.67a.583.583 0 0 0 0 .826l10.5 10.5a.583.583 0 0 0 .826 0l10.5-10.5a.583.583 0 0 0 0-.825L11.496.17a.583.583 0 0 0-.825 0L.17 10.67Zm.413.413 10.5 10.5 10.5-10.5-10.5-10.5-10.5 10.5Z" clip-rule="evenodd"/>
    <path fill="#50D5BC" d="M14.292 13.708a.292.292 0 1 1-.583 0 .292.292 0 0 1 .583 0Zm0 1.167a.292.292 0 1 1-.583 0 .292.292 0 0 1 .583 0Zm-1.168 1.165a.292.292 0 1 1-.583 0 .292.292 0 0 1 .583 0Zm-.874 1.168a.292.292 0 1 1-.583 0 .292.292 0 0 1 .583 0Zm.584-4.375a.292.292 0 1 1-.583 0 .292.292 0 0 1 .583 0Zm2.916-.875a.292.292 0 1 1-.583 0 .292.292 0 0 1 .583 0Zm-1.459.146a.438.438 0 1 1-.875 0 .438.438 0 0 1 .875 0Zm-1.165 2.625a.438.438 0 1 1-.876 0 .438.438 0 0 1 .876 0Z"/>
    <path fill="#77F9E1" d="m.583 11.083 10.5-10.5 10.5 10.5h-21Z"/>
    <path fill="#DFFFF9" fill-rule="evenodd" d="M11.06 1.777c.146.068.21.242.142.388l-3.938 8.458a.292.292 0 0 1-.529-.246l3.938-8.458a.292.292 0 0 1 .387-.142Z" clip-rule="evenodd"/>
    <path fill="#5AD9C2" d="m5.833 11.083 5.25 10.5-10.5-10.5 10.5-10.5-5.25 10.5Z"/>
    <path fill="#84F8E3" d="m2.916 11.083 8.167 10.5-10.5-10.5 10.5-10.5-8.167 10.5Z"/>
    <path fill="#7AEED9" d="m5.833 11.083 5.25-10.5-10.5 10.5h5.25Z"/>
    <path fill="#B1FFF1" d="m2.916 11.083 8.167-10.5-10.5 10.5h2.333Z"/>
    <path fill="#2E90A6" d="m16.333 11.083-5.25 10.5 10.5-10.5-10.5-10.5 5.25 10.5Z"/>
    <path fill="#4AACC2" d="m16.333 11.083-5.25-10.5 10.5 10.5h-5.25Z"/>
    <path fill="#1EB5AC" d="m19.25 11.083-8.167 10.5 10.5-10.5-10.5-10.5 8.167 10.5Z"/>
    <path fill="#30CFC6" d="M19.25 11.083 11.083.583l10.5 10.5H19.25Z"/>
    <path fill="#fff" fill-rule="evenodd" d="M6.324 5.912c.117.11.124.295.014.413L2.254 10.7a.292.292 0 0 1-.426-.398l4.083-4.375a.292.292 0 0 1 .413-.015Z" clip-rule="evenodd"/>
  </g>
  <defs>
    <filter id="a" width="22.166" height="25.052" x="0" y="0" color-interpolation-filters="sRGB" filterUnits="userSpaceOnUse">
      <feFlood flood-opacity="0" result="BackgroundImageFix"/>
      <feColorMatrix in="SourceAlpha" result="hardAlpha" values="0 0 0 0 0 0 0 0 0 0 0 0 0 0 0 0 0 0 127 0"/>
      <feOffset dy="2.885"/>
      <feComposite in2="hardAlpha" operator="out"/>
      <feColorMatrix values="0 0 0 0 0 0 0 0 0 0 0 0 0 0 0 0 0 0 0.42 0"/>
      <feBlend in2="BackgroundImageFix" result="effect1_dropShadow_109_48"/>
      <feBlend in="SourceGraphic" in2="effect1_dropShadow_109_48" result="shape"/>
    </filter>
  </defs>
</svg>
