<svg xmlns="http://www.w3.org/2000/svg" width="27" height="21" fill="none" viewBox="0 0 27 21">
  <path fill="url(#a)" fill-rule="evenodd" d="M14.5 20.778c9.27 1.17 12.5-3.08 11.85-8.1-.46-3.63-2.97-7.65-6.67-10.29-7.73-5.51-15.06-.45-18.24 4.76a13.2 13.2 0 0 0-1.09 2.2c-2.22 5.75 6.77 10.5 14.15 11.43Z" clip-rule="evenodd"/>
  <path fill="url(#b)" fill-rule="evenodd" d="M14.5 20.777c9.27 1.17 12.5-3.08 11.85-8.1-.15 3.11-2.74 6.77-13.56 6.07-10.81-.7-12.8-7.49-11.36-11.6a13.2 13.2 0 0 0-1.09 2.2c-2.21 5.75 6.78 10.5 14.16 11.43Z" clip-rule="evenodd" opacity=".8"/>
  <path fill="#FCC400" fill-rule="evenodd" d="M20.49 17.878c6.29-1.86-3.37-15.19-13.8-12.85-10.44 2.34-2.17 17.56 13.8 12.85Z" clip-rule="evenodd" opacity=".3"/>
  <path fill="#CC7CD4" fill-rule="evenodd" d="M20.68 4.208c1.3 1.89-12.72.04-13.66-.98-.93-1.01 8.7-6.27 13.66.98Zm2.89 5.099c.93 1.82-2.31.83-2.81-.13-.49-.95 2.11-1.24 2.81.13ZM4.92 7.988c8.33 2.42 1.98 7.42-.18 4.5-2.17-2.93-2.02-5.14.18-4.5Z" clip-rule="evenodd" opacity=".2"/>
  <path fill="#E88C40" fill-rule="evenodd" d="M16.62 17.238c.97-1.39-1.23-2.1-2.44-.95-1.21 1.14 1.76 1.92 2.44.95Zm-3.83-.141c.52.88-.65 1.13-2 .27-1.35-.85 1.49-1.12 2-.27ZM4.9 14.068c.6.98-1.49.25-1.84-.38-.35-.64 1.21-.67 1.84.38Zm6.17-4.141c.96 1.38-.99.35-1.11-.19-.13-.54.83-.22 1.11.19Zm12.67 1.53c1.32 1.76-1.43 3.4-2.98 1.43-1.54-1.97 2-2.73 2.98-1.43Z" clip-rule="evenodd"/>
  <defs>
    <linearGradient id="a" x1="13.211" x2="13.211" y1="20.979" y2=".006" gradientUnits="userSpaceOnUse">
      <stop stop-color="#E07034"/>
      <stop offset=".541" stop-color="#D6782A"/>
      <stop offset="1" stop-color="#CA821D"/>
    </linearGradient>
    <linearGradient id="b" x1="13.211" x2="13.211" y1="20.979" y2="7.152" gradientUnits="userSpaceOnUse">
      <stop stop-color="#B1765E"/>
      <stop offset=".176" stop-color="#C28E72"/>
      <stop offset=".547" stop-color="#E3BB97"/>
      <stop offset=".834" stop-color="#F7D7AD"/>
      <stop offset="1" stop-color="#FFE1B6"/>
    </linearGradient>
  </defs>
</svg>
