<svg xmlns="http://www.w3.org/2000/svg" width="47" height="34" fill="none" viewBox="0 0 47 34">
  <path fill="url(#a)" fill-rule="evenodd" d="M4.952 32.083c5.17 3.48 36.1-2.11 39.01-4.57 2.54-2.16 3.39-6.59 2-11.25 0-.01-.01-.03-.01-.04-1.61-5.39-6.19-11.08-14.54-13.98-15.6-5.43-28.33-.4-30.36 8.66-.58 2.56-.93 5.1-1.02 7.49v.02c-.23 6.04 1.21 11.17 4.92 13.67Z" clip-rule="evenodd"/>
  <path fill="url(#b)" fill-rule="evenodd" d="M4.952 32.083c5.17 3.48 36.1-2.11 39.01-4.57 2.54-2.16 3.39-6.59 2-11.25 1.91 7.51-11.01 12.95-28.73 12.61-15.37-.3-17.2-8.73-17.21-10.45-.22 6.03 1.22 11.16 4.93 13.66Z" clip-rule="evenodd" opacity=".8"/>
  <path fill="#FCC400" fill-rule="evenodd" d="M31.542 26.803c9.51-2.36-3.54-20-20.92-17.37-17.39 2.63-6.67 24.23 20.92 17.37Zm.81-24.221c4.26 1.39-13.64 5.29-20.45 5.29-6.8 0-3.56-13.12 20.45-5.29Z" clip-rule="evenodd" opacity=".3"/>
  <path fill="#F3CAB6" fill-rule="evenodd" d="M36.292 13.193c2.73-1.73-.68-6.81-5.17-4.15-4.48 2.66 2.99 5.54 5.17 4.15Z" clip-rule="evenodd" opacity=".8"/>
  <path fill="url(#c)" fill-rule="evenodd" d="M37.212 11.943c.08-1.28-1.57-2.96-4.54-2.27-2.97.69-2.71 1.75-2.71 1.75s-.49-.4-.25-1.27 1.79-2.35 5.13-1.87c3.34.49 2.37 3.66 2.37 3.66Z" clip-rule="evenodd"/>
  <path fill="url(#d)" fill-rule="evenodd" d="M30.972 31.093s-15.69-1.63-21.86-2.95c-6.17-1.32-8.52-4.88-8.52-4.88s.32 6.74 5.28 8.74c4.96 2.01 25.1-.91 25.1-.91Z" clip-rule="evenodd" opacity=".8"/>
  <path fill="#CC7CD4" fill-rule="evenodd" d="M39.132 16.253c2.41 2.71-4.91 1.87-5.64.34-.72-1.54 3.48-2.77 5.64-.34Zm-7.95-2.17c.67 1.36-1.97-.05-2.35-.52-.38-.48 1.53-1.16 2.35.52ZM7.402 3.093c1.56.15 1.14 4.09-2.3 6.51-3.43 2.42-4.52 3.95-4.52 3.95s.77-7.89 6.82-10.46Zm33.71 20.759c2.87-2.36-3.7-5.3-5.3-4.24-1.6 1.06-.61 4.57.89 5.39 1.5.81 3.22-.17 4.41-1.15Z" clip-rule="evenodd" opacity=".2"/>
  <path fill="#D96E40" fill-rule="evenodd" d="M36.212 26.523s-9.55 1.84-21.19.82c-11.64-1.03-13.64-4.99-13.64-4.99s1.15 5.36 11.28 6.67c10.15 1.3 23.55-2.5 23.55-2.5Z" clip-rule="evenodd"/>
  <path fill="url(#e)" fill-rule="evenodd" d="M8.271 27.702s-.87-2.21-3.23-4.05c-2.35-1.84-3.81-1.56-3.81-1.56s.37 4.98 7.04 5.61Z" clip-rule="evenodd"/>
  <path fill="#CC81B3" fill-rule="evenodd" d="M6.992 25.612s.11 1.48-2.63 0c-2.74-1.48-2.64-3.54-2.64-3.54s3.35.29 5.27 3.54Z" clip-rule="evenodd" opacity=".8"/>
  <path fill="#D46D31" fill-rule="evenodd" d="M8.272 27.703s-2.29-.67-4.48-1.99c-2.2-1.32-2.52-3.36-2.52-3.36s-.1 5.12 7 5.35Z" clip-rule="evenodd"/>
  <path fill="#CC7CD4" fill-rule="evenodd" d="M11.592 11.733c6.27 2.55-3.45 5.24-5.57 3.73-2.13-1.51.74-5.7 5.57-3.73Z" clip-rule="evenodd" opacity=".2"/>
  <path fill="#DB7F40" fill-rule="evenodd" d="M31.292 25.302c.99-1.26-1.92-.71-2.88.52-.95 1.22 2 .6 2.88-.52Zm-3.42-1.14c1.14.54-.35 1.16-.89.56-.54-.6.26-.86.89-.56Zm-10.011.721c.83 2.34-2.83 2.78-4.42.09-1.6-2.7 4.06-1.11 4.42-.09Zm-4.709 1.23c.51.48-.5.86-.91.24-.41-.63.46-.67.91-.24Zm-3.66-2.45c1.28-.88-.49-2.32-2.49-1.72-2.01.6 1.04 2.72 2.49 1.72Zm-.57.64c1.02.56-.85.64-1.36.11-.51-.54.93-.34 1.36-.11Zm11.3-10.47c3.7 2.53-1.95 6.41-4.74 2.42-2.81-3.99 3.23-3.45 4.74-2.42Z" clip-rule="evenodd"/>
  <defs>
    <linearGradient id="a" x1="23.313" x2="23.313" y1="33.193" y2="-.009" gradientUnits="userSpaceOnUse">
      <stop stop-color="#C35934"/>
      <stop offset=".347" stop-color="#C5632E"/>
      <stop offset=".945" stop-color="#C97F1F"/>
      <stop offset="1" stop-color="#CA821D"/>
    </linearGradient>
    <linearGradient id="b" x1="23.313" x2="23.313" y1="33.193" y2="16.254" gradientUnits="userSpaceOnUse">
      <stop stop-color="#B1765E"/>
      <stop offset=".176" stop-color="#C28E72"/>
      <stop offset=".547" stop-color="#E3BB97"/>
      <stop offset=".834" stop-color="#F7D7AD"/>
      <stop offset="1" stop-color="#FFE1B6"/>
    </linearGradient>
    <linearGradient id="c" x1="33.499" x2="33.499" y1="11.948" y2="8.197" gradientUnits="userSpaceOnUse">
      <stop stop-color="#B8661D"/>
      <stop offset=".059" stop-color="#B55F1E"/>
      <stop offset=".482" stop-color="#A33224"/>
      <stop offset=".81" stop-color="#971628"/>
      <stop offset="1" stop-color="#930C29"/>
    </linearGradient>
    <linearGradient id="d" x1="15.778" x2="15.778" y1="32.709" y2="23.262" gradientUnits="userSpaceOnUse">
      <stop stop-color="#B1765E"/>
      <stop offset=".176" stop-color="#C28E72"/>
      <stop offset=".547" stop-color="#E3BB97"/>
      <stop offset=".834" stop-color="#F7D7AD"/>
      <stop offset="1" stop-color="#FFE1B6"/>
    </linearGradient>
    <linearGradient id="e" x1="4.747" x2="4.747" y1="27.698" y2="22.067" gradientUnits="userSpaceOnUse">
      <stop stop-color="#B8661D"/>
      <stop offset=".059" stop-color="#B55F1E"/>
      <stop offset=".482" stop-color="#A33224"/>
      <stop offset=".81" stop-color="#971628"/>
      <stop offset="1" stop-color="#930C29"/>
    </linearGradient>
  </defs>
</svg>
