<svg xmlns="http://www.w3.org/2000/svg" width="64" height="44" fill="none" viewBox="0 0 64 44">
  <path fill="url(#a)" fill-rule="evenodd" d="M50.454 43.458c9.89-1.09 15.33-12.7 12.68-23.68v-.01c-1.61-6.66-6.18-13.1-14.53-16.83-17.88-7.96-35.8 1.74-44.11 11.44-1.99 2.31-3.42 4.63-4.18 6.71-3.95 10.78 31.4 24.44 50.14 22.37Z" clip-rule="evenodd"/>
  <path fill="url(#b)" fill-rule="evenodd" d="M50.454 43.458c9.89-1.09 15.33-12.7 12.68-23.68-.02.52-.98 18.11-24.14 19-23.5.89-37.47-17.78-34.51-24.39-1.99 2.31-3.42 4.63-4.18 6.71-3.94 10.77 31.41 24.43 50.15 22.36Z" clip-rule="evenodd" opacity=".8"/>
  <path fill="#FCC400" fill-rule="evenodd" d="M58.304 29.028c2.45-10.15-10.59-23.2-30.57-11.45-19.97 11.74 17.14 28.88 30.57 11.45Zm-27.15-26.8c12.66 1.39-4.43 16.86-18.48 17.41-14.05.55.64-19.37 18.48-17.41Z" clip-rule="evenodd" opacity=".3"/>
  <path fill="url(#c)" fill-rule="evenodd" d="M57.114 32.208c-.5-.77-7.35-1.26-10.89 1.19-3.54 2.45-3.92 5.49-3.92 5.49s3.86 2.67 9.09 1.85c5.23-.81 5.72-8.53 5.72-8.53Z" clip-rule="evenodd"/>
  <path fill="url(#d)" fill-rule="evenodd" d="M10.794 28.438c1.2-.19-1.4-4.05-4.66-4.99-3.26-.94-2.87 6.21 4.66 4.99Z" clip-rule="evenodd"/>
  <path fill="#CC81B3" fill-rule="evenodd" d="M9.914 25.968c1.72 1.48-2.64 2.25-4.49 0s.6-2.21.6-2.21 1.97.55 3.89 2.21Zm46.35 5.869c1.58.14-1.56 6-6.55 7.04-4.98 1.03-6.4-1.77-6.4-1.77s1.25-6.33 12.95-5.27Z" clip-rule="evenodd" opacity=".8"/>
  <path fill="#D46D31" fill-rule="evenodd" d="M56.414 35.618s-3.5 3.21-6.42 3.9c-2.91.69-6.16.19-6.16.19s2.56 1.75 7.38 1.19 5.2-5.28 5.2-5.28Zm-45.78-7.04s-4.97-.21-6.42-3.31c0 0 0 2.11 2.1 2.96 2.11.86 4.32.35 4.32.35Z" clip-rule="evenodd"/>
  <path fill="#CC7CD4" fill-rule="evenodd" d="M51.904 6.768c5.98 6.64-12.91 1.6-15.16-2.25s7.33-6.46 15.16 2.25Zm4.13 7.61c3.13 4.46-2.83 1.16-3.92-.37-1.08-1.51 1.89-2.52 3.92.37Zm-35.72 11.95c2.73 5.61-8.24.85-9.22-2.56-.99-3.42 6.15-3.75 9.22 2.56Z" clip-rule="evenodd" opacity=".3"/>
  <path fill="#F3CAB6" fill-rule="evenodd" d="M50.984 26.028c7.48-3.12-1.86-12.31-14.17-7.51-12.3 4.81 8.18 10.01 14.17 7.51Z" clip-rule="evenodd" opacity=".8"/>
  <path fill="url(#e)" fill-rule="evenodd" d="M53.514 23.767c.22-2.31-4.25-6.75-12.38-5.5s-7.5 4.57-7.5 4.57-1.34-.72-.68-2.3c.66-1.58 4.9-4.24 14.05-3.38 9.16.86 6.51 6.61 6.51 6.61Z" clip-rule="evenodd"/>
  <path fill="#C55A40" fill-rule="evenodd" d="M59.144 29.948c-.64.79-8.11.14-12.36 1.99-4.24 1.85-10.66 4.35-14.89 5.02-4.23.68-11.59-1.89-11.59-1.89s5.59 4.77 22 3.83c0 0 1.47-4.93 6.18-6.6s8.62-.09 8.62-.09l2.04-2.26Z" clip-rule="evenodd"/>
  <path fill="#D96E40" fill-rule="evenodd" d="M27.254 37.908s-11.78-2.77-16.62-9.32c0-.01 13.79 7.02 16.62 9.32Z" clip-rule="evenodd"/>
  <path fill="#CC81B3" fill-rule="evenodd" d="M49.994 43.498s-4.45-2.65-10.27-3.88c-5.81-1.23-16.38-1.09-23.39-3.16 0 .01 13.55 7.59 33.66 7.04Z" clip-rule="evenodd" opacity=".8"/>
  <path fill="#D96E40" fill-rule="evenodd" d="M58.984 27.658c.88-1.79-3-1.9-3.76-.4-.75 1.49 3.06 1.8 3.76.4Zm-18.7 6.48c3.94.64.85 4.08-3.83 3.13-4.68-.95 1.13-3.56 3.83-3.13Zm-7.12-4.431c.32.44-.96.65-1.4.24-.43-.41.84-1 1.4-.24Zm8.6 1.831c.32.44-.96.65-1.4.24-.43-.4.84-1 1.4-.24Zm-15.68 1.94c2.9 3.15-2.93 2.2-4.8 0-1.87-2.2 3.35-1.58 4.8 0Zm-20.39-14.61c2.53 3.01.74 3.49-.69 1.51-1.44-1.98.09-2.22.69-1.51Z" clip-rule="evenodd"/>
  <defs>
    <linearGradient id="a" x1="31.898" x2="31.898" y1="43.667" y2="-.002" gradientUnits="userSpaceOnUse">
      <stop stop-color="#A93D54"/>
      <stop offset=".277" stop-color="#AC454A"/>
      <stop offset=".754" stop-color="#B3592E"/>
      <stop offset="1" stop-color="#B8661D"/>
    </linearGradient>
    <linearGradient id="b" x1="31.898" x2="31.898" y1="43.667" y2="14.383" gradientUnits="userSpaceOnUse">
      <stop stop-color="#B1765E"/>
      <stop offset=".176" stop-color="#C28E72"/>
      <stop offset=".547" stop-color="#E3BB97"/>
      <stop offset=".834" stop-color="#F7D7AD"/>
      <stop offset="1" stop-color="#FFE1B6"/>
    </linearGradient>
    <linearGradient id="c" x1="49.715" x2="49.715" y1="40.903" y2="31.587" gradientUnits="userSpaceOnUse">
      <stop stop-color="#B8661D"/>
      <stop offset=".059" stop-color="#B55F1E"/>
      <stop offset=".482" stop-color="#A33224"/>
      <stop offset=".81" stop-color="#971628"/>
      <stop offset="1" stop-color="#930C29"/>
    </linearGradient>
    <linearGradient id="d" x1="7.64" x2="7.64" y1="28.58" y2="23.361" gradientUnits="userSpaceOnUse">
      <stop stop-color="#B8661D"/>
      <stop offset=".059" stop-color="#B55F1E"/>
      <stop offset=".482" stop-color="#A33224"/>
      <stop offset=".81" stop-color="#971628"/>
      <stop offset="1" stop-color="#930C29"/>
    </linearGradient>
    <linearGradient id="e" x1="43.318" x2="43.318" y1="23.768" y2="16.989" gradientUnits="userSpaceOnUse">
      <stop stop-color="#B8661D"/>
      <stop offset=".059" stop-color="#B55F1E"/>
      <stop offset=".482" stop-color="#A33224"/>
      <stop offset=".81" stop-color="#971628"/>
      <stop offset="1" stop-color="#930C29"/>
    </linearGradient>
  </defs>
</svg>
