<svg xmlns="http://www.w3.org/2000/svg" width="30" height="16" fill="none" viewBox="0 0 30 16">
  <path fill="url(#a)" fill-rule="evenodd" d="M0 5.13c-.01 2.72 1.69 12.62 16.43 10.25 11.54-1.85 16.13-7.43 11.7-11.36-.01 0-.01-.01-.01-.01-1.23-1.08-3.15-2.04-5.81-2.76C9.85-2.12 2.59 2.16.57 4.24c0 .01-.01.01-.01.01-.37.41-.56.72-.56.88Z" clip-rule="evenodd"/>
  <path fill="url(#b)" fill-rule="evenodd" d="M0 5.13c-.01 2.72 1.69 12.62 16.43 10.25 11.54-1.85 16.13-7.43 11.7-11.36 2.5 3.28-4.29 11.29-15.69 10.23C1.06 13.19-.3 5.83.57 4.27c-.38.39-.57.7-.57.86Z" clip-rule="evenodd" opacity=".8"/>
  <path fill="#FCC400" fill-rule="evenodd" d="M25.89 8.18C26.87 2.79 7.53-.64 3.16 5.47c-4.37 6.11 7.89 8.78 13.4 8.35 5.51-.42 9.24-5.17 9.33-5.64Z" clip-rule="evenodd" opacity=".3"/>
  <path fill="#FCC400" fill-rule="evenodd" d="M13.24 13.77c1.67.13-7.16-5.67-9.62-5.58-2.46.09.1 4.83 9.62 5.58Z" clip-rule="evenodd" opacity=".4"/>
  <path fill="#CC7CD4" fill-rule="evenodd" d="M21.63 1.35c2.61.93-10.24.79-12.98.53-2.74-.25 4.01-3.74 12.98-.53Z" clip-rule="evenodd" opacity=".2"/>
  <path fill="#CC7F40" fill-rule="evenodd" d="M25.89 10.43s-6.7 3.53-16.07 3.33c0 .01 9.83 2.53 16.07-3.33Z" clip-rule="evenodd"/>
  <defs>
    <linearGradient id="a" x1="14.899" x2="14.899" y1="15.747" y2=".004" gradientUnits="userSpaceOnUse">
      <stop stop-color="#C35934"/>
      <stop offset=".347" stop-color="#C5632E"/>
      <stop offset=".945" stop-color="#C97F1F"/>
      <stop offset="1" stop-color="#CA821D"/>
    </linearGradient>
    <linearGradient id="b" x1="14.899" x2="14.899" y1="15.746" y2="4.021" gradientUnits="userSpaceOnUse">
      <stop stop-color="#B1765E"/>
      <stop offset=".176" stop-color="#C28E72"/>
      <stop offset=".547" stop-color="#E3BB97"/>
      <stop offset=".834" stop-color="#F7D7AD"/>
      <stop offset="1" stop-color="#FFE1B6"/>
    </linearGradient>
  </defs>
</svg>
