<svg xmlns="http://www.w3.org/2000/svg" width="61" height="41" fill="none" viewBox="0 0 61 41">
  <path fill="url(#a)" fill-rule="evenodd" d="M.07 20.598c.73 5.98 7.21 13.61 13.51 17.06 10.76 5.91 33.68-.26 40.91-6.21 5.56-4.57 6.61-12.39 6.31-17.85v-.03c-.09-1.64-.32-3.07-.56-4.12-.42-1.78-9.23-11.14-32.42-9.18-8.57.72-24.27 9.02-27.37 16.74-.43 1.08-.54 2.3-.38 3.59Z" clip-rule="evenodd"/>
  <path fill="url(#b)" fill-rule="evenodd" d="M.07 20.599c.73 5.98 7.21 13.61 13.51 17.06 10.76 5.91 33.68-.26 40.91-6.21 5.56-4.57 6.61-12.39 6.31-17.85-.14.71-3.13 15.52-20.14 22.54-17.42 7.19-38.31-8.65-40.59-15.54Z" clip-rule="evenodd" opacity=".8"/>
  <path fill="#FCC400" fill-rule="evenodd" d="M44.36 32.218c11.01-5.61 2.82-23.49-20.73-22.85-23.55.63-21.29 13.93-17.03 19.02 4.26 5.1 19.27 13.25 37.76 3.83Zm15.29-23.84c3.02 3.4-6.36 8.01-16.73 3.57-10.37-4.44-11.7-8.01-12.15-9.36-.44-1.35 19.08-5.23 28.88 5.79Z" clip-rule="evenodd" opacity=".3"/>
  <path fill="url(#c)" fill-rule="evenodd" d="M55.98 21.528c.71-2.84-5.01.74-6.79 8.36 0 0 5.01-1.27 6.79-8.36Z" clip-rule="evenodd"/>
  <path fill="#CC81B3" fill-rule="evenodd" d="M54.62 20.918c.98.03-1.34 5.19-2.9 6.58-1.56 1.39-1.98.49-1.98.49s1.06-4.21 4.88-7.07Z" clip-rule="evenodd" opacity=".8"/>
  <path fill="#D46D31" fill-rule="evenodd" d="M55.69 22.568s-.83 2.43-3.27 4.6c-2.44 2.17-3.06 2.04-3.06 2.04l-.17.68s3.7.48 6.5-7.32Z" clip-rule="evenodd"/>
  <path fill="#CC7CD4" fill-rule="evenodd" d="M16.62 13.819c6.69 2.73 1.57 8.72-4.41 5.55-5.97-3.18.93-6.97 4.41-5.55Zm11.7-12.4c1.68-.13 3.77 4.29-6.06 6.48-9.84 2.19-12.43 2.02-12.43 2.02s8.35-7.7 18.49-8.5Z" clip-rule="evenodd" opacity=".2"/>
  <path fill="#D96E40" fill-rule="evenodd" d="M47.02 32.789s-22.39 6.56-40.84-4.94c0 0 10.41 9.56 23.91 10.1 13.49.54 16.93-5.16 16.93-5.16Z" clip-rule="evenodd"/>
  <path fill="#F3CAB6" fill-rule="evenodd" d="M54.52 13.929c3.7-1.93-.92-7.6-7.02-4.64-6.09 2.97 4.05 6.18 7.02 4.64Z" clip-rule="evenodd" opacity=".8"/>
  <path fill="url(#d)" fill-rule="evenodd" d="M55.77 12.528c.11-1.43-2.1-4.17-6.13-3.4-4.03.77-3.71 2.82-3.71 2.82s-.66-.45-.34-1.42c.33-.97 2.43-2.62 6.96-2.09 4.53.54 3.22 4.09 3.22 4.09Z" clip-rule="evenodd"/>
  <path fill="#D96E40" fill-rule="evenodd" d="M36.57 19.918c2.39 2.97-3.12 2.36-4.13.35-1.03-2.02 3.63-.96 4.13-.35Zm-2.29-4.529c.82 2.25-2.29 3.37-3.82.38-1.53-2.99 3.47-1.33 3.82-.38Z" clip-rule="evenodd"/>
  <path fill="#D96E40" fill-rule="evenodd" d="M33.72 22.768c.95-.85-1.19-1.79-2.04-.9-.84.9 1.09 1.76 2.04.9Zm9.54 5.69c3.09.87-.84 5.12-4.98 4.45-4.13-.66 1.25-5.5 4.98-4.45Z" clip-rule="evenodd"/>
  <defs>
    <linearGradient id="a" x1="30.425" x2="30.425" y1="40.054" y2=".002" gradientUnits="userSpaceOnUse">
      <stop stop-color="#A93D54"/>
      <stop offset=".277" stop-color="#AC454A"/>
      <stop offset=".754" stop-color="#B3592E"/>
      <stop offset="1" stop-color="#B8661D"/>
    </linearGradient>
    <linearGradient id="b" x1="30.46" x2="30.46" y1="40.054" y2="13.596" gradientUnits="userSpaceOnUse">
      <stop stop-color="#B1765E"/>
      <stop offset=".176" stop-color="#C28E72"/>
      <stop offset=".547" stop-color="#E3BB97"/>
      <stop offset=".834" stop-color="#F7D7AD"/>
      <stop offset="1" stop-color="#FFE1B6"/>
    </linearGradient>
    <linearGradient id="c" x1="52.616" x2="52.616" y1="29.89" y2="20.562" gradientUnits="userSpaceOnUse">
      <stop stop-color="#B8661D"/>
      <stop offset=".059" stop-color="#B55F1E"/>
      <stop offset=".482" stop-color="#A33224"/>
      <stop offset=".81" stop-color="#971628"/>
      <stop offset="1" stop-color="#930C29"/>
    </linearGradient>
    <linearGradient id="d" x1="50.719" x2="50.719" y1="12.53" y2="8.343" gradientUnits="userSpaceOnUse">
      <stop stop-color="#B8661D"/>
      <stop offset=".059" stop-color="#B55F1E"/>
      <stop offset=".482" stop-color="#A33224"/>
      <stop offset=".81" stop-color="#971628"/>
      <stop offset="1" stop-color="#930C29"/>
    </linearGradient>
  </defs>
</svg>
