<svg xmlns="http://www.w3.org/2000/svg" width="39" height="22" fill="none" viewBox="0 0 39 22">
  <path fill="url(#a)" fill-rule="evenodd" d="M18.165 21.27c9.91.17 19.36-6.24 19.75-7.47.42-1.28-.48-3.73-2.13-6.19-.01-.03-.03-.05-.05-.08-2.16-3.22-5.59-6.45-9.02-7.12-6.09-1.2-19.4.49-25.21 4.71l-.03.03c-5.8 4.24 6.78 15.95 16.69 16.12Z" clip-rule="evenodd"/>
  <path fill="url(#b)" fill-rule="evenodd" d="M18.165 21.268c9.91.17 19.36-6.24 19.75-7.47.42-1.28-.48-3.73-2.13-6.19 2.65 4.87-10.74 13.29-22.64 11.28-12.05-2.03-12.37-13.27-11.68-13.74-5.79 4.24 6.79 15.95 16.7 16.12Z" clip-rule="evenodd" opacity=".8"/>
  <path fill="#FCC400" fill-rule="evenodd" d="M33.335 12.188c5.08-5.35-22.48-12.81-27.99-3.99-5.51 8.83 16.63 15.95 27.99 3.99Z" clip-rule="evenodd" opacity=".3"/>
  <path fill="#FCC400" fill-rule="evenodd" d="M21.855 18.17c2.44-.56-9.48-6.27-15.22-4.96-5.74 1.32 7.56 7.09 15.22 4.96Z" clip-rule="evenodd" opacity=".4"/>
  <path fill="#CC7CD4" fill-rule="evenodd" d="M23.985.089c5.89.42-7.65 4.66-14.54 5.06-6.9.4-7.09 0-7.09 0s9.23-5.94 21.63-5.06Z" clip-rule="evenodd" opacity=".2"/>
  <path fill="url(#c)" fill-rule="evenodd" d="M3.655 8.548c.69-1.59 3.65 4.57 3.05 5.21-.59.64-5.33.01-3.05-5.21Z" clip-rule="evenodd"/>
  <path fill="#CC81B3" fill-rule="evenodd" d="M6.475 12.139c.63 1.73-1.91.53-2.61-.82-.69-1.35.85-2.48.85-2.48s1.18 1.72 1.76 3.3Z" clip-rule="evenodd" opacity=".8"/>
  <path fill="#E69031" fill-rule="evenodd" d="M6.765 13.64s-.96.4-2.28-.33c-1.32-.72-1.44-2.19-1.44-2.19s-.21 1.23 1.06 2.37c1.27 1.15 2.64.52 2.66.15Z" clip-rule="evenodd"/>
  <path fill="#DB7F40" fill-rule="evenodd" d="M26.315 17.47s-9.32 1.59-18.48-.39c-.01 0 6.14 4.5 18.48.39Zm-2.71-3.02c1.76 1.51-2.21 1.71-4.07.82-1.87-.9 1.23-3.25 4.07-.82Zm-4.12 1.978c-.26-.56-1-.81-1.55-.3s1.84.92 1.55.3Z" clip-rule="evenodd"/>
  <path fill="#DB7F40" fill-rule="evenodd" d="M11.985 16.739c.84.78-1.84 1.12-2.82 0-.98-1.12 2.27-.51 2.82 0Zm-2.87-1.479c.42.38-.45.66-1.06.3-.61-.36.64-.68 1.06-.3Zm16.1-5.261c.89 1.83-3.82 2.29-5.47 0-1.66-2.29 4.45-2.1 5.47 0Zm-11.73.661c.78.93-.87 1.46-2.18.47-1.32-1 1.52-1.26 2.18-.47Z" clip-rule="evenodd"/>
  <defs>
    <linearGradient id="a" x1="19.014" x2="19.014" y1="21.274" y2=".04" gradientUnits="userSpaceOnUse">
      <stop stop-color="#C35934"/>
      <stop offset=".347" stop-color="#C5632E"/>
      <stop offset=".945" stop-color="#C97F1F"/>
      <stop offset="1" stop-color="#CA821D"/>
    </linearGradient>
    <linearGradient id="b" x1="19.015" x2="19.015" y1="21.273" y2="5.155" gradientUnits="userSpaceOnUse">
      <stop stop-color="#B1765E"/>
      <stop offset=".176" stop-color="#C28E72"/>
      <stop offset=".547" stop-color="#E3BB97"/>
      <stop offset=".834" stop-color="#F7D7AD"/>
      <stop offset="1" stop-color="#FFE1B6"/>
    </linearGradient>
    <linearGradient id="c" x1="4.91" x2="4.91" y1="13.962" y2="8.285" gradientUnits="userSpaceOnUse">
      <stop stop-color="#B8661D"/>
      <stop offset=".059" stop-color="#B55F1E"/>
      <stop offset=".482" stop-color="#A33224"/>
      <stop offset=".81" stop-color="#971628"/>
      <stop offset="1" stop-color="#930C29"/>
    </linearGradient>
  </defs>
</svg>
