<svg xmlns="http://www.w3.org/2000/svg" width="39" height="24" fill="none" viewBox="0 0 39 24">
  <path fill="url(#a)" fill-rule="evenodd" d="M21.65 23.783c13.31 2.04 16.99-10.34 16.42-12.68-.32-1.3-1.22-2.73-2.56-4.11-.01-.01-.01-.02-.03-.03-5.63-5.74-18.97-10.72-30.25-3.02-1.73 1.18-2.99 2.34-3.83 3.48-6.01 8.01 8.58 14.57 20.25 16.36Z" clip-rule="evenodd"/>
  <path fill="url(#b)" fill-rule="evenodd" d="M21.65 23.783c13.31 2.04 16.99-10.34 16.42-12.68-.32-1.3-1.22-2.73-2.56-4.11 3.42 3.54-1.71 14.58-14.9 14.75-13.21.17-19.4-11.93-19.21-14.33-6.01 8.02 8.58 14.58 20.25 16.37Z" clip-rule="evenodd" opacity=".8"/>
  <path fill="#FCC400" fill-rule="evenodd" d="M32.34 16.573c6.57-5.79-6.92-15.97-18.82-14.12-11.9 1.84-9.1 13.49 1.15 16.86 10.24 3.37 17.67-2.74 17.67-2.74Z" clip-rule="evenodd" opacity=".3"/>
  <path fill="#FCC400" fill-rule="evenodd" d="M32.34 15.504c2.73-4.72-15.36-2.68-18.67.82-3.31 3.5 13.95 7.33 18.67-.82Z" clip-rule="evenodd" opacity=".4"/>
  <path fill="#CC7CD4" fill-rule="evenodd" d="M33.149 4.953c.81.63-7.62-3.48-17.02-2.72-9.4.76-12.52 3.72-12.52 3.72s3.55-4.83 13.34-5.6c9.79-.77 16.2 4.6 16.2 4.6Z" clip-rule="evenodd" opacity=".2"/>
  <path fill="#CC6D40" fill-rule="evenodd" d="M30.509 19.013s-9.19 2.48-16.31.78c-7.12-1.7-10.93-7.79-10.93-7.79s2.07 6.63 11.65 9.32c9.59 2.69 15.59-2.31 15.59-2.31Z" clip-rule="evenodd"/>
  <path fill="#DB7F40" fill-rule="evenodd" d="M19.39 19.874c4.97-1.62-.1-4.28-4.39-2.81-4.28 1.46 2.78 3.34 4.39 2.81Z" clip-rule="evenodd"/>
  <path fill="#DB7F40" fill-rule="evenodd" d="M18.799 15.864c1.68 1.22-1.53.52-1.91 0-.38-.52.74-.84 1.91 0Zm-4.429-2c3.11 1.86-3.4 4.8-4.76 3.06-1.36-1.74 2.76-4.26 4.76-3.06Z" clip-rule="evenodd"/>
  <defs>
    <linearGradient id="a" x1="19.062" x2="19.062" y1="24.011" y2="-.005" gradientUnits="userSpaceOnUse">
      <stop stop-color="#A93D54"/>
      <stop offset=".277" stop-color="#AC454A"/>
      <stop offset=".754" stop-color="#B3592E"/>
      <stop offset="1" stop-color="#B8661D"/>
    </linearGradient>
    <linearGradient id="b" x1="19.062" x2="19.062" y1="24.01" y2="6.991" gradientUnits="userSpaceOnUse">
      <stop stop-color="#B1765E"/>
      <stop offset=".176" stop-color="#C28E72"/>
      <stop offset=".547" stop-color="#E3BB97"/>
      <stop offset=".834" stop-color="#F7D7AD"/>
      <stop offset="1" stop-color="#FFE1B6"/>
    </linearGradient>
  </defs>
</svg>
