<svg xmlns="http://www.w3.org/2000/svg" width="55" height="52" fill="none" viewBox="0 0 55 52">
  <path fill="url(#a)" fill-rule="evenodd" d="M22.396 50.992c-17.03-1.58-23.91-16.04-22.12-28.89v-.03c.96-7.03 4.54-13.57 10.47-17.26 15.83-9.83 34.4-3.61 41.09 9.73 0 0 0 .01.01.04a24.13 24.13 0 0 1 2.11 6.27c2.54 13.71-5.2 32.61-31.56 30.14Z" clip-rule="evenodd"/>
  <path fill="url(#b)" fill-rule="evenodd" d="M22.616 49.201c-16.23-1.47-22.79-14.9-21.09-26.85v-.02c.92-6.53 4.33-12.61 9.98-16.03 15.09-9.13 32.79-3.35 39.16 9.04 0 0 0 .01.01.04.93 1.81 1.61 3.76 2.01 5.83 2.44 12.72-4.94 30.28-30.07 27.99Z" clip-rule="evenodd"/>
  <path fill="url(#c)" fill-rule="evenodd" d="M18.056 13.431c-9.31 6.09-8.18 25.62 6.47 27.06 14.65 1.44 18.96-9.63 17.54-17.65-1.82-10.25-13.92-16.01-24.01-9.41Z" clip-rule="evenodd"/>
  <path fill="url(#d)" fill-rule="evenodd" d="M22.616 49.201c-16.23-1.47-22.79-14.9-21.09-26.85-.09 2.19-.37 17 16.04 23.13 14.42 5.38 28.9-1.4 32.17-11.71 3.15-9.93 1.09-17.84.94-18.41.93 1.81 1.61 3.76 2.01 5.83 2.44 12.74-4.94 30.3-30.07 28.01Z" clip-rule="evenodd" opacity=".8"/>
  <path fill="url(#e)" fill-rule="evenodd" d="M12.515 29.791c-3.93-7.76-.5-21.2 14.21-21.75 14.61-.55 17.68 13.5 15.27 21.08 0 0 .32-16-14.79-16.4-16.8-.45-14.69 17.07-14.69 17.07Z" clip-rule="evenodd"/>
  <path fill="#FFDBFF" fill-rule="evenodd" d="M4.396 17.841c-.43 3.63 5.41-8.58 21.23-9.82 15.82-1.23 17.98 12.25 22.57 12.93 4.58.68 0-18.54-20.12-18.55-20.12 0-23.53 14.17-23.68 15.44Z" clip-rule="evenodd" opacity=".5"/>
  <path fill="ivory" fill-rule="evenodd" d="M13.446 38.542c-3.24-1.24-.91 7.69 17.07 7.66 9.7-.01 10.38-5.16 10.82-6.03.43-.88-11.3 4.73-27.89-1.63Z" clip-rule="evenodd" opacity=".5"/>
  <path fill="ivory" fill-rule="evenodd" d="M4.996 15.712c-1.84 4.8 4.82 1.9 5.41-1.52.59-3.41-3.92-2.38-5.41 1.52Zm37.74 23.3c-.36-.09 3.08-6.21 5.31-6.63 2.23-.42-.97 7.77-5.31 6.63Z" clip-rule="evenodd"/>
  <path fill="url(#f)" fill-rule="evenodd" d="M2.256 18.892s7.49 24.12 16.04 27.32c0-.01-19.8-3.52-16.04-27.32Z" clip-rule="evenodd"/>
  <path fill="ivory" fill-rule="evenodd" d="M48.776 19.922c-1.64.4-.96 3.01.19 3.56 1.16.56 1.72-4.03-.19-3.56Z" clip-rule="evenodd"/>
  <path fill="#FFF91D" fill-rule="evenodd" d="M12.795 23.912s1.88-8.89 14.3-9.62c12.42-.73 14.38 10.46 14.38 10.46s-1.09-13.5-14.27-13.07c-13.46.45-14.41 12.23-14.41 12.23Z" clip-rule="evenodd"/>
  <path fill="#000" d="m29.806 16.611-.72 17.68-5.42-.25.3-11.76-1.99 1.37-1.87-4.25 4.05-3.03 5.65.24Z"/>
  <path fill="url(#g)" d="m29.206 35.622-5.67-.26.29-11.64-1.91 1.31-1.97-4.48.08-.06 4.09-3.06 5.81.26v.12l-.72 17.81Zm-5.41-.5 5.17.24.71-17.43-5.48-.24-3.94 2.95 1.76 4.02 2.07-1.42-.29 11.88Z"/>
  <path fill="url(#h)" d="m29.206 35.421-5.67-.26.29-11.64-1.91 1.31-1.97-4.48.08-.06 4.09-3.06 5.81.26v.12l-.72 17.81Zm-5.41-.5 5.17.24.71-17.43-5.48-.24-3.94 2.95 1.76 4.02 2.07-1.42-.29 11.88Z"/>
  <path fill="url(#i)" d="m29.206 35.221-5.67-.26.29-11.64-1.91 1.31-1.97-4.48.08-.06 4.09-3.06 5.81.26v.12l-.72 17.81Zm-5.41-.5 5.17.24.71-17.43-5.48-.24-3.94 2.95 1.76 4.02 2.07-1.42-.29 11.88Z"/>
  <path fill="url(#j)" d="m29.206 35.021-5.67-.26.29-11.64-1.91 1.31-1.97-4.48.08-.06 4.09-3.06 5.81.26v.12l-.72 17.81Zm-5.41-.5 5.17.24.71-17.43-5.48-.24-3.94 2.95 1.76 4.02 2.07-1.42-.29 11.88Z"/>
  <path fill="url(#k)" d="m29.206 34.822-5.67-.26.29-11.64-1.91 1.31-1.97-4.48.08-.06 4.09-3.06 5.81.26v.12l-.72 17.81Zm-5.41-.5 5.17.24.71-17.43-5.48-.24-3.94 2.95 1.76 4.02 2.07-1.42-.29 11.88Z"/>
  <path fill="url(#l)" d="m29.206 34.622-5.67-.26.29-11.64-1.91 1.31-1.97-4.48.08-.06 4.09-3.06 5.81.26v.12l-.72 17.81Zm-5.41-.5 5.17.24.71-17.43-5.48-.24-3.94 2.95 1.76 4.02 2.07-1.42-.29 11.88Z"/>
  <path fill="url(#m)" d="m29.206 34.421-5.67-.26.29-11.64-1.91 1.31-1.97-4.48.08-.06 4.09-3.06 5.81.26v.12l-.72 17.81Zm-5.41-.5 5.17.24.71-17.43-5.48-.24-3.94 2.95 1.76 4.02 2.07-1.42-.29 11.88Z"/>
  <path fill="url(#n)" d="m29.806 16.611-.72 17.68-5.42-.25.3-11.76-1.99 1.37-1.87-4.25 4.05-3.03 5.65.24Z"/>
  <defs>
    <linearGradient id="a" x1="27.202" x2="27.202" y1="51.215" y2=".012" gradientUnits="userSpaceOnUse">
      <stop stop-color="#740054"/>
      <stop offset=".181" stop-color="#7E034E"/>
      <stop offset=".493" stop-color="#9A0A3E"/>
      <stop offset=".895" stop-color="#C71724"/>
      <stop offset="1" stop-color="#D41A1D"/>
    </linearGradient>
    <linearGradient id="b" x1="27.202" x2="27.202" y1="49.4" y2="1.826" gradientUnits="userSpaceOnUse">
      <stop stop-color="#C90054"/>
      <stop offset=".226" stop-color="#D10A4C"/>
      <stop offset=".613" stop-color="#E62637"/>
      <stop offset="1" stop-color="#FF481D"/>
    </linearGradient>
    <linearGradient id="c" x1="27.194" x2="27.194" y1="40.614" y2="10.615" gradientUnits="userSpaceOnUse">
      <stop stop-color="#FFBD00"/>
      <stop offset=".354" stop-color="#FFC700"/>
      <stop offset=".963" stop-color="#FFE300"/>
      <stop offset="1" stop-color="#FFE500"/>
    </linearGradient>
    <linearGradient id="d" x1="27.202" x2="27.202" y1="49.4" y2="15.369" gradientUnits="userSpaceOnUse">
      <stop stop-color="#B1255E"/>
      <stop offset=".178" stop-color="#C34F72"/>
      <stop offset=".463" stop-color="#DC8D8F"/>
      <stop offset=".706" stop-color="#EFBBA4"/>
      <stop offset=".892" stop-color="#FBD7B1"/>
      <stop offset="1" stop-color="#FFE1B6"/>
    </linearGradient>
    <linearGradient id="e" x1="26.871" x2="26.871" y1="29.788" y2="8.021" gradientUnits="userSpaceOnUse">
      <stop stop-color="#FFE1B6"/>
      <stop offset=".094" stop-color="#FDD7B2"/>
      <stop offset=".257" stop-color="#F8BBA7"/>
      <stop offset=".468" stop-color="#EF8D95"/>
      <stop offset=".72" stop-color="#E24E7D"/>
      <stop offset="1" stop-color="#D3005E"/>
    </linearGradient>
    <linearGradient id="f" x1="1.785" x2="18.301" y1="32.545" y2="32.545" gradientUnits="userSpaceOnUse">
      <stop offset=".011" stop-color="#1E72EA"/>
      <stop offset=".031" stop-color="#1F6FE4"/>
      <stop offset=".217" stop-color="#2652AE"/>
      <stop offset=".398" stop-color="#2D3B81"/>
      <stop offset=".571" stop-color="#32295E"/>
      <stop offset=".733" stop-color="#351C44"/>
      <stop offset=".88" stop-color="#371435"/>
      <stop offset="1" stop-color="#381130"/>
    </linearGradient>
    <linearGradient id="g" x1="24.948" x2="24.948" y1="35.49" y2="17.559" gradientUnits="userSpaceOnUse">
      <stop stop-color="#36002E"/>
      <stop offset=".182" stop-color="#400129"/>
      <stop offset=".497" stop-color="#5C021B"/>
      <stop offset=".903" stop-color="#890506"/>
      <stop offset="1" stop-color="#950600"/>
    </linearGradient>
    <linearGradient id="h" x1="24.948" x2="24.948" y1="35.29" y2="17.359" gradientUnits="userSpaceOnUse">
      <stop stop-color="#36002E"/>
      <stop offset=".182" stop-color="#400129"/>
      <stop offset=".497" stop-color="#5C021B"/>
      <stop offset=".903" stop-color="#890506"/>
      <stop offset="1" stop-color="#950600"/>
    </linearGradient>
    <linearGradient id="i" x1="24.948" x2="24.948" y1="35.089" y2="17.158" gradientUnits="userSpaceOnUse">
      <stop stop-color="#36002E"/>
      <stop offset=".182" stop-color="#400129"/>
      <stop offset=".497" stop-color="#5C021B"/>
      <stop offset=".903" stop-color="#890506"/>
      <stop offset="1" stop-color="#950600"/>
    </linearGradient>
    <linearGradient id="j" x1="24.948" x2="24.948" y1="34.889" y2="16.958" gradientUnits="userSpaceOnUse">
      <stop stop-color="#36002E"/>
      <stop offset=".182" stop-color="#400129"/>
      <stop offset=".497" stop-color="#5C021B"/>
      <stop offset=".903" stop-color="#890506"/>
      <stop offset="1" stop-color="#950600"/>
    </linearGradient>
    <linearGradient id="k" x1="24.948" x2="24.948" y1="34.691" y2="16.759" gradientUnits="userSpaceOnUse">
      <stop stop-color="#36002E"/>
      <stop offset=".182" stop-color="#400129"/>
      <stop offset=".497" stop-color="#5C021B"/>
      <stop offset=".903" stop-color="#890506"/>
      <stop offset="1" stop-color="#950600"/>
    </linearGradient>
    <linearGradient id="l" x1="24.948" x2="24.948" y1="34.49" y2="16.559" gradientUnits="userSpaceOnUse">
      <stop stop-color="#36002E"/>
      <stop offset=".182" stop-color="#400129"/>
      <stop offset=".497" stop-color="#5C021B"/>
      <stop offset=".903" stop-color="#890506"/>
      <stop offset="1" stop-color="#950600"/>
    </linearGradient>
    <linearGradient id="m" x1="24.948" x2="24.948" y1="34.29" y2="16.359" gradientUnits="userSpaceOnUse">
      <stop stop-color="#36002E"/>
      <stop offset=".182" stop-color="#400129"/>
      <stop offset=".497" stop-color="#5C021B"/>
      <stop offset=".903" stop-color="#890506"/>
      <stop offset="1" stop-color="#950600"/>
    </linearGradient>
    <linearGradient id="n" x1="24.96" x2="24.96" y1="34.289" y2="16.358" gradientUnits="userSpaceOnUse">
      <stop stop-color="#8B002E"/>
      <stop offset=".244" stop-color="#950827"/>
      <stop offset=".663" stop-color="#B11E13"/>
      <stop offset="1" stop-color="#C30"/>
    </linearGradient>
  </defs>
</svg>
