<svg xmlns="http://www.w3.org/2000/svg" width="154" height="106" fill="none" viewBox="0 0 154 106">
  <path fill="url(#a)" fill-rule="evenodd" d="M13.017 77.14c10.23 9.99 26.81 19.33 50.97 24.53 57.66 12.42 65.75-5.8 81.6-28.97.41-.6.8-1.19 1.17-1.8 6.09-9.74 8.2-20.37 6.54-30.34l-.03-.18c-.05-.26-.09-.52-.14-.78-.08-.41-.16-.81-.25-1.21-3.38-15.11-15.53-28.47-35.68-34.69-7.71-2.38-16.59-3.71-26.61-3.7-1.31 0-2.63.03-3.98.08l-1.34.06c-4 .19-8.17.59-12.5 1.21-17.87 2.57-30.28 5.68-39.07 9.09-13.55 5.25-18.5 11.21-21.63 16.99v.01c-2.65 4.91-3.97 9.67-8.09 13.77-7.06 7-5.12 22.08 9.04 35.93Z" clip-rule="evenodd"/>
  <path fill="url(#b)" fill-rule="evenodd" d="M63.987 101.68c57.66 12.42 65.75-5.8 81.6-28.97 6.99-10.22 9.47-21.54 7.7-32.14 2.6 19.09-19.58 51.85-61.39 55.16-43.47 3.43-80.54-19.83-87.12-34.13-5.92-12.87 3.63-22.73 7.29-34.17-2.65 4.91-3.97 9.67-8.09 13.77-12.15 12.05 2.35 48.06 60.01 60.48Z" clip-rule="evenodd" opacity=".5"/>
  <path fill="url(#c)" fill-rule="evenodd" d="M130.157 24.26c27.32 22.84 2.06 62.33-57.02 54.7-59.08-7.63-54.52-32.97-51.89-42.28 2.63-9.31 1.46-26.86 38.99-31.96 37.53-5.1 43.93.64 53.24 7.57 9.31 6.93 15.13 10.67 16.68 11.97Z" clip-rule="evenodd"/>
  <path fill="url(#d)" fill-rule="evenodd" d="M139.027 35.58s7.81 24.34-21.36 35.4c-29.17 11.06-57.19 7.82-78.73-5.15-21.54-12.96-17.16-25.55-16.01-31.26 1.14-5.72 1.67-10.15 1.67-10.15s-3.39 11.7-5.87 16.93 4.1 37.86 55.38 41.31c51.28 3.44 75.6-19.95 64.92-47.08Z" clip-rule="evenodd" opacity=".8"/>
  <path fill="url(#e)" fill-rule="evenodd" d="M13.027 77.14c10.22 9.99 26.8 19.33 50.96 24.53 57.66 12.42 65.75-5.8 81.6-28.97.41-.6.8-1.19 1.17-1.8 0 0-26.52 26.83-55.43 28.63-28.91 1.8-76.35-20.39-78.3-22.39Z" clip-rule="evenodd" opacity=".5"/>
  <path fill="#9ADD00" fill-rule="evenodd" d="M112.677 68.08c17.35-8.2-27.64-47.5-61-43.67-33.36 3.83-23.98 30.25 8.77 44.25s52.23-.58 52.23-.58Z" clip-rule="evenodd" opacity=".3"/>
  <path fill="#9ADD00" fill-rule="evenodd" d="M127.357 26.33c4.91 15.29-41.37 4.19-66.15-4.19-24.78-8.39 11.93-21.47 33.51-15.98 21.58 5.49 31.78 17.5 32.64 20.17Zm-7.769 15.01c8.61-3.43-12.91-6.65-16.87-4.05-3.96 2.61 6.72 8.1 16.87 4.05Z" clip-rule="evenodd" opacity=".3"/>
  <path fill="url(#f)" fill-rule="evenodd" d="M100.527 11.95s3.56 1.78 3.59 4.37c0 0 4.35 1.89 5.36 3.78 1.01 1.89-12.14 5.18-27.26 3.59-21.87-2.3-20.55-7.75-20.55-7.75s6.14-8.69 10.96-7.95c0 0-.66-6.26 3.75-5.05l.27 2.92s4.66.51 5.45 5.82c0 0 1.44 1.35.29 2.22 0 0 4.58-3.22 9.6 3.09 0 0 .64-1.06 1.59-1.69.01 0 1.01-8.59 6.95-3.35Z" clip-rule="evenodd"/>
  <path fill="url(#g)" fill-rule="evenodd" d="M107.817 18.41s1.15 3.94-13.7 4.57c-14.85.62-29.62-3.55-29.62-3.55s4.32 4.46 26.87 5.61c22.55 1.15 20.16-4.09 19.79-4.64-.35-.56-3.34-1.99-3.34-1.99Z" clip-rule="evenodd" opacity=".5"/>
  <path fill="url(#h)" fill-rule="evenodd" d="M102.087 12.98s1.78 1.52.85 3.94c-.94 2.42-4.93 1.77-6.84.81-1.91-.96-2.51-2.43-2.51-2.43s-1.08.95-1.59 1.69c0 0 2.97 2.06 3.41 3.83.45 1.77-9.79 1.98-13.77-1.69-3.98-3.67 1.12-5.44 1.12-5.44s-2.52-.29-3.45 3.16c-.93 3.45 3.11 5.75 11.61 5.72 8.5-.03 6.26-2.08 8.18-2.71 1.92-.62 4.24-2.11 4.64-2.82l.4-.72s.02-1.98-2.05-3.34Z" clip-rule="evenodd" opacity=".5"/>
  <path fill="url(#i)" fill-rule="evenodd" d="M72.637 7.99s3.5.7 5.12 5.79c0 0 .64-1.69-1.49-4.66s-3.7-1.68-3.7-1.68l.07.55Z" clip-rule="evenodd" opacity=".5"/>
  <path fill="url(#j)" fill-rule="evenodd" d="M82.107 11.68s-2.61-.04-3.39 1.45c0 0-.63-4.13.91-4.83 1.54-.7 2.48 3.38 2.48 3.38Z" clip-rule="evenodd" opacity=".5"/>
  <path fill="#9ADD00" fill-rule="evenodd" d="M92.997 17.78c1.67 1.54.98 3.67-5.6 2.73-6.58-.93-6.31-5.1-5.25-5.93 1.06-.84 4.7-2.48 10.85 3.2Zm9.69-3.78c1.18 1.2 1.61 4.64-4.21 3.9-5.82-.74-4.61-5.72-2.23-6.7 2.37-.98 6.44 2.8 6.44 2.8Zm3.91 4c1.84.1.69 2.89-2.75 3.64s-5 .54-5.23.42c-.23-.11 1.33-4.41 7.98-4.06Zm-28.9 2.74c2.81-.59-.14-11.14-4.98-12.07-4.83-.93-9.38 4.77-9.46 7.75-.07 2.98 10.79 5.08 14.44 4.32Z" clip-rule="evenodd" opacity=".3"/>
  <path fill="url(#k)" fill-rule="evenodd" d="M65.678 69.61c17.09-.59-8.58-26.02-30.17-24.88-21.58 1.14-3 26.02 30.17 24.88Z" clip-rule="evenodd" opacity=".8"/>
  <path fill="url(#l)" fill-rule="evenodd" d="M105.347 57.17c14.94 5.46-9.93 13.44-21.36 7.15-11.44-6.29 7.26-12.3 21.36-7.15Z" clip-rule="evenodd" opacity=".8"/>
  <path fill="#86A500" fill-rule="evenodd" d="M68.517 69.18c4.67-2.29-7.62-18.87-24.28-21.45-16.66-2.57-18 3.29-18 3.29s1.41 11.15 19 16.73c17.58 5.58 23.28 1.43 23.28 1.43Z" clip-rule="evenodd"/>
  <path fill="#639100" fill-rule="evenodd" d="M109.537 62.24s.47-5.82-14.47-6c-14.94-.18-14.37 5.19-14.37 5.19s1.61 4.72 13.37 5.2c11.76.48 15.49-4.07 15.47-4.39Z" clip-rule="evenodd"/>
  <path fill="#D36F3B" fill-rule="evenodd" d="M125.877 55.17c.05-3.36-5.03-5.89-8.67-1.46-3.63 4.43 8.6 6.33 8.67 1.46Z" clip-rule="evenodd"/>
  <path fill="#DB83A9" fill-rule="evenodd" d="M125.517 53.62s.67 3.16-2.86 3.83c-3.53.67-6.3-1.36-5.7-3.4 0 0-.92.77-1.19 1.99-.26 1.22 2.57 3.41 7.79 3.03 5.23-.38 2.77-4.36 1.96-5.45Z" clip-rule="evenodd"/>
  <path fill="#E7792C" fill-rule="evenodd" d="M119.117 53.24c1.21 0 1.06 1.85-.86 1.68-1.91-.16-.03-1.68.86-1.68Z" clip-rule="evenodd"/>
  <path fill="#D36F3B" fill-rule="evenodd" d="M124.797 63.19c.03-1.98-2.97-3.47-5.11-.86-2.14 2.61 5.07 3.73 5.11.86Z" clip-rule="evenodd"/>
  <path fill="#DB83A9" fill-rule="evenodd" d="M124.587 62.28s.39 1.86-1.69 2.26c-2.08.39-3.72-.8-3.36-2 0 0-.54.46-.7 1.17-.16.71 1.52 2.01 4.6 1.79 3.08-.24 1.63-2.58 1.15-3.22Z" clip-rule="evenodd"/>
  <path fill="#E7792C" fill-rule="evenodd" d="M120.817 62.05c.71 0 .62 1.09-.51.99-1.13-.1-.02-.99.51-.99Z" clip-rule="evenodd"/>
  <path fill="#FFDD81" fill-rule="evenodd" d="M115.437 88.31c9.15-6.83-21.45-2.83-53.05-6.26-31.6-3.43-50.61-21.23-53.62-21.12-3 .1 7.44 24.12 52.19 32.13 44.76 8 54.48-4.75 54.48-4.75Z" clip-rule="evenodd" opacity=".5"/>
  <path fill="#DB83A9" fill-rule="evenodd" d="M17.087 23.08s.6 3.6 10.91 6.73c6.93 2.11 18.2-2.8 20.87-4.96 2.66-2.16 5.44-3.21-3.99-5.91s-27.79 4.14-27.79 4.14Z" clip-rule="evenodd"/>
  <path fill="url(#m)" fill-rule="evenodd" d="M47.967 21.62c.97-1.19-2.73-10.97-6.05-12.54-3.32-1.58-10.04-9.62-13.64-8.15-5.25 2.14-12.17 19.84-12.44 20.93-.27 1.09 5.49 4.46 12.54 6.37 7.07 1.91 17.79-4.41 19.59-6.61Z" clip-rule="evenodd"/>
  <path fill="#DB83A9" fill-rule="evenodd" d="M47.657 21.551c1.57-2.03-2.04-7.79-5.74-8.92s-12.22 14.43-11.37 15.19c.86.76 11.21 1.38 17.11-6.27Z" clip-rule="evenodd"/>
  <path fill="#D96840" fill-rule="evenodd" d="M42.737 9.621c.75.59-5.14 7.79-15.14 7.51-11.76-.33-2.66-14.81.68-16.21 2.92-1.21 11.17 6.11 14.46 8.7Z" clip-rule="evenodd"/>
  <path fill="#9ADD00" fill-rule="evenodd" d="M34.077 17.481c1.04.08-.82 4.87-4.92 6.63-4.1 1.76-7.32-.11-7.87-.42-.56-.33 3.63-6.89 12.79-6.21Zm6.14-7.331c.87 1.67.6 4.75-8.23 5.18-8.83.43-.76-6.28 2.94-6.6 3.69-.32 4.97.81 5.29 1.42Zm.33 6.37c7.33 1.86-5.34 7.56-6.27 7.16-.94-.4 2.66-8.07 6.27-7.16Z" clip-rule="evenodd" opacity=".3"/>
  <path fill="#B2562B" fill-rule="evenodd" d="M39.717 13.22s-1.85 2.85-3.08 3.92c-1.23 1.07-4.65.31-4.65.31s4.13-2.64 7.73-4.23Z" clip-rule="evenodd"/>
  <path fill="#EA8E40" fill-rule="evenodd" d="M42.667 10.22s-1.68 2.01-2.95 2.67c-1.26.66-4.87 2.42-8.15 3.4-3.28.98-5.9.63-5.9.63s4.98.8 6.32.35c1.34-.45 5.03-3.08 7.48-3.67 0 0 1.89-1.04 3.2-3.38Z" clip-rule="evenodd"/>
  <path fill="#DB83A9" fill-rule="evenodd" d="M34.967 3.64c.3.78-6.85 7.83-9.3 8.66-2.45.83.59-9.47 2.56-10.7 1.96-1.24 6.74 2.04 6.74 2.04Z" clip-rule="evenodd" opacity=".5"/>
  <path fill="#EA8E40" fill-rule="evenodd" d="M27.997 1.06s-.85 1.84-1.89 4.7c-1.04 2.86-4 5.22-4 5.22s-.42-5.22 5.89-9.92Z" clip-rule="evenodd"/>
  <path fill="#EDE0A9" fill-rule="evenodd" d="M109.197 92.27c.69-1.7.65-6.74-2.33-8.86-2.98-2.12-10.08.79-13.73 4.9-3.65 4.11-1.32 6.31 4.63 6.78 5.95.47 10.89-1.5 11.43-2.82Zm-19.28-8.64c1.44 1.41 1.14 3.35-1.72 3.92-2.86.57-5.22-2.16-5.43-3.15-.21-.98 6.22-1.68 7.15-.77Zm-18.129 8.64c3.11-1.62.88-4.29-3.12-6.58s-15.33 1.46-16.53 2.45c-1.2.99 9.47 9.42 19.65 4.13Zm-16.901-9.06c1.17 1.58-2 3.27-3.79 1.27s3-2.33 3.79-1.27Z" clip-rule="evenodd"/>
  <path fill="#EDE0A9" fill-rule="evenodd" d="M49.117 90.34c2.7-1.55 1.1-10.36-7-11.55-8.1-1.19-2.28 16.89 7 11.55Z" clip-rule="evenodd"/>
  <path fill="#CC81B3" fill-rule="evenodd" d="M72.687 88.93s-.12 5.55-8.74 4.54c-12.2-1.43-10.68-5.91-10.68-5.91s-1.13.59-1.46.92c-.33.33 3.04 5.2 11.77 5.9 8.72.7 10.13-2.91 10.03-3.67-.1-.77-.92-1.78-.92-1.78Zm-17.8-5.72s.71 1.66-1.54 1.7c-2.25.04-2.65-1.36-2.65-1.36s-.32 2.19 2.68 2.2c3.01.02 1.51-2.54 1.51-2.54Z" clip-rule="evenodd" opacity=".7"/>
  <path fill="#EDE0A9" fill-rule="evenodd" d="M27.147 69.69c1.17 1.58-2 3.27-3.79 1.27-1.78-2.01 3.01-2.33 3.79-1.27Z" clip-rule="evenodd"/>
  <path fill="#CC81B3" fill-rule="evenodd" d="M27.147 69.69s.71 1.66-1.54 1.7c-2.25.04-2.65-1.36-2.65-1.36s-.32 2.19 2.68 2.2c3.02.01 1.51-2.54 1.51-2.54Z" clip-rule="evenodd" opacity=".7"/>
  <path fill="#EDE0A9" fill-rule="evenodd" d="M90.677 94.49c.86 1.16-1.47 2.4-2.78.93-1.31-1.47 2.21-1.7 2.78-.93Z" clip-rule="evenodd"/>
  <path fill="#CC81B3" fill-rule="evenodd" d="M90.677 94.49s.52 1.22-1.13 1.25c-1.65.03-1.94-1-1.94-1s-.23 1.61 1.97 1.62c2.21 0 1.1-1.87 1.1-1.87Z" clip-rule="evenodd" opacity=".7"/>
  <path fill="#EDE0A9" fill-rule="evenodd" d="M84.167 87.54c.86 1.57-1.47 3.26-2.78 1.26-1.31-1.98 2.2-2.31 2.78-1.26Z" clip-rule="evenodd"/>
  <path fill="#CC81B3" fill-rule="evenodd" d="M84.167 87.54s.52 1.66-1.13 1.69c-1.65.04-1.94-1.35-1.94-1.35s-.23 2.18 1.97 2.19c2.2.02 1.1-2.53 1.1-2.53Zm24.77-1.28s.76 5.47-3.43 7.15c-4.2 1.68-9.87 1.18-12.12.29-2.25-.89-1.89-2.69-1.89-2.69s-.57 1.33.43 3.12 12.87 2.36 16.41.25c3.53-2.11.6-8.12.6-8.12Zm-18.66-2.22s.66 1.25-.38 2.23-3.74 1.07-5.48-.24c-1.74-1.31-1.56-1.87-1.56-1.87s-.12.19-.15.48c-.02.3 1.37 2.92 4.67 3.26 3.3.36 4.45-2.06 2.9-3.86Z" clip-rule="evenodd" opacity=".7"/>
  <path fill="#EDE0A9" fill-rule="evenodd" d="M117.067 82.59c2.17 1.77 1.27 5.05-2.69 6.04-2.75.68-4.44-2.02-4.58-3-.14-.99 6.03-4.05 7.27-3.04Z" clip-rule="evenodd"/>
  <path fill="#CC81B3" fill-rule="evenodd" d="M117.567 83.1s.87 1.84-.91 3.61c-1.49 1.48-4.31 1.73-5.7.4-1.22-1.15-1.1-1.76-1.1-1.76s-.08.21-.1.52c-.02.31.92 2.85 3.72 3.19 4.05.51 6.47-3.46 4.09-5.96Zm-67.86 1.43s.97 2.75-.59 4.49c-1.56 1.74-4.45 1.8-7.69-1.18s-2.99-6.76-2.99-6.76-.56 1.34 0 4.17c.55 2.83 3.35 6.93 8.92 6.87 5.56-.06 3.03-6.8 2.35-7.59Z" clip-rule="evenodd" opacity=".7"/>
  <path fill="#EDE0A9" fill-rule="evenodd" d="M85.137 97.66c2.47-1.52.08-8.08-7.9-8.02-7.98.07-.6 13.24 7.9 8.02Z" clip-rule="evenodd"/>
  <path fill="#CC81B3" fill-rule="evenodd" d="M85.157 93.13s1.21 1.99-.15 3.52c-1.35 1.52-4.15 1.92-7.59.03-3.44-1.89-3.55-4.83-3.55-4.83s-.41 1.09.39 3.2c.81 2.11 3.92 4.91 9.32 4.19 5.42-.72 2.32-5.59 1.58-6.11Z" clip-rule="evenodd" opacity=".7"/>
  <path fill="#D36F3B" fill-rule="evenodd" d="M14.907 47.45c.05-3.36-5.03-5.89-8.67-1.46-3.63 4.43 8.6 6.33 8.67 1.46Z" clip-rule="evenodd"/>
  <path fill="#DB83A9" fill-rule="evenodd" d="M14.547 45.9s.67 3.16-2.86 3.83c-3.53.67-6.3-1.36-5.7-3.4 0 0-.92.77-1.19 1.99-.26 1.22 2.57 3.41 7.79 3.03 5.23-.38 2.77-4.36 1.96-5.45Z" clip-rule="evenodd"/>
  <path fill="#E7792C" fill-rule="evenodd" d="M8.147 45.52c1.21 0 1.06 1.85-.86 1.68-1.91-.16-.03-1.68.86-1.68Z" clip-rule="evenodd"/>
  <path fill="#B0FF00" fill-rule="evenodd" d="M88.247 73.46c2.71-1.58-1.22-2.76-5.54-1.6-4.32 1.17 1.61 3.89 5.54 1.6Zm-2.749-5.43c.8.53.43 1.38-1.43.58-1.86-.8.04-1.51 1.43-.58Zm-16.621 4.2c5.13.45 3.35 4.04-3.22 3.16-6.57-.87.78-3.37 3.22-3.16Zm3.43-3.13c2.11.5-.67 1.84-1.05 1.57-.38-.28.12-1.79 1.05-1.57Zm-10.44-21.59c.92 2.02-4.15.93-5.22-.86-1.07-1.78 3.72-2.43 5.22.86Zm16.59 13.42c.36 1.49-2.07 1.48-3 0-.93-1.48 2.71-1.17 3 0Zm5.311 8.72c2.3.92-.57 2.11-3.88 1.75-3.31-.37 1.26-2.8 3.88-1.75Zm27.65-2.06c3.59 1.01-.58 2.44-2.77 2.06-2.19-.38-.13-2.88 2.77-2.06Zm-2.671-11.9c.97.54-.62 1.29-1.48.55-.86-.75.62-1.03 1.48-.55Z" clip-rule="evenodd"/>
  <path fill="#DB83A9" fill-rule="evenodd" d="M54.787 57.61c11.13 3.32 1.43 15.9-18.67 10.34-20.09-5.57 3.95-14.73 18.67-10.34Z" clip-rule="evenodd"/>
  <path fill="url(#n)" fill-rule="evenodd" d="M50.917 62.77c1.78-1.94 3.22-11.3-4.78-15.43-8-4.13-17.45 5.16-18.63 8.72-1.18 3.55 4.47 8.77 7.26 10.16 2.78 1.4 11.64 1.45 16.15-3.45Z" clip-rule="evenodd"/>
  <path fill="#DB83A9" fill-rule="evenodd" d="M48.358 51.62c2.13 3.17.07 11.81-7.7 12.61-7.77.8-12.67-6.85-10.78-10.62 1.88-3.78 14.53-7.87 18.48-1.99Z" clip-rule="evenodd"/>
  <path fill="#FFA7FF" fill-rule="evenodd" d="M48.797 49.8c.78 1.76-4.56 6.86-8.87 8.47-4.31 1.62-11.37-1.89-11.77-2.34-.41-.44 8.01-9.81 13.58-9.62 5.57.19 7.06 3.49 7.06 3.49Z" clip-rule="evenodd"/>
  <path fill="#FFA7FF" fill-rule="evenodd" d="M42.237 66.55c1.49.62 7.24-1.72 8.77-4.78 1.53-3.07-.23-10.14-.52-10.57-.29-.43-8.48 6.83-9.84 7.88-1.35 1.05 1.07 7.25 1.59 7.47Z" clip-rule="evenodd"/>
  <path fill="#DB83A9" fill-rule="evenodd" d="M40.868 66.65c.6-.2-.26-5.26-1.6-6.49-1.33-1.23-10.72-3.01-11.17-2.99-.44.02 1.12 9.87 12.77 9.48Z" clip-rule="evenodd"/>
  <path fill="ivory" fill-rule="evenodd" d="M43.798 56.13c.26-.09-3.56 4.35-3.87 4.37-.32.02-5.03-1.85-5.17-1.97-.14-.13 5.19-1.06 9.04-2.4Zm-11.281 1.73s-2.15-.25-3.42-.54c-1.26-.29-1.38-1.47-1.24-1.59.15-.11 2.02 1.2 4.66 2.13Z" clip-rule="evenodd"/>
  <path fill="#FFB5E8" fill-rule="evenodd" d="M42.947 56.02c2.96-1.52.74-6.87-4.53-6.91-5.27-.04-7.09 4.75-7.32 6.42-.23 1.66 5.28 3.85 11.85.49Z" clip-rule="evenodd" opacity=".5"/>
  <path fill="#DB83A9" fill-rule="evenodd" d="M58.557 63.22c3.07.42 10.33 4.73 2.79 5.56-7.54.83-11.17-1.14-12.19-2.93-1.03-1.79 5.17-3.21 9.4-2.63Z" clip-rule="evenodd"/>
  <path fill="url(#o)" fill-rule="evenodd" d="M56.867 66.4c3.77-.33 3.36-6.63 1.07-8.43-2.29-1.8-9.09-1.03-10.3.93-1.21 1.97 1.44 7.72 4.61 8.03 3.16.3 4.62-.53 4.62-.53Z" clip-rule="evenodd"/>
  <path fill="#DB83A9" fill-rule="evenodd" d="M59.047 59.82c.99 2.2-3.79 5.01-7.49 3.89-3.7-1.13-3.78-3.84-3.14-4.85.64-1.03 8.8-3.08 10.63.96Z" clip-rule="evenodd"/>
  <path fill="#FFA7FF" fill-rule="evenodd" d="M57.937 57.97c.55.97-2.92 3.06-5.34 3.42-2.41.37-5.25-1.47-5.09-2.23.17-.76 1.26-1.68 4.5-2.09 3.25-.42 5.75.59 5.93.9Z" clip-rule="evenodd"/>
  <path fill="#FFA7FF" fill-rule="evenodd" d="M58.497 65.38c-.77 1.07-3.21 1.51-3.83 1.24-.62-.27-1.88-4.62-1.61-5 .27-.38 4.53-2.49 4.95-2.83.42-.34 2.45 2.97.49 6.59Z" clip-rule="evenodd"/>
  <path fill="#DB83A9" fill-rule="evenodd" d="M53.897 66.63c.43.02-1.07-4.09-1.51-4.55-.44-.46-2.96-.71-4.67-1.91 0 0 .19 3.49 2.16 5.21 1.98 1.73 4.02 1.25 4.02 1.25Z" clip-rule="evenodd"/>
  <path fill="ivory" fill-rule="evenodd" d="M54.137 60.99c.13-.03-1 1.98-1.15 1.94-.16-.04-2.41-1.62-2.41-1.62s2.27-.05 3.56-.32Zm3.66-2.29s-.43.84-1.58 1.48c-1.16.64-2.03.83-2.03.83s1.77-1.07 3.61-2.31Z" clip-rule="evenodd"/>
  <defs>
    <linearGradient id="a" x1="76.914" x2="76.914" y1="105.701" y2=".008" gradientUnits="userSpaceOnUse">
      <stop stop-color="#63902F"/>
      <stop offset=".417" stop-color="#84B017"/>
      <stop offset=".769" stop-color="#99C508"/>
      <stop offset="1" stop-color="#A1CC02"/>
    </linearGradient>
    <linearGradient id="b" x1="76.915" x2="76.915" y1="105.7" y2="27.43" gradientUnits="userSpaceOnUse">
      <stop stop-color="#DF7A70"/>
      <stop offset=".059" stop-color="#E1816E"/>
      <stop offset=".482" stop-color="#F1AE63"/>
      <stop offset=".81" stop-color="#FBCA5D"/>
      <stop offset="1" stop-color="#FFD45A"/>
    </linearGradient>
    <linearGradient id="c" x1="80.543" x2="80.543" y1="79.919" y2="2.763" gradientUnits="userSpaceOnUse">
      <stop stop-color="#63902F"/>
      <stop offset=".417" stop-color="#84B017"/>
      <stop offset=".769" stop-color="#99C508"/>
      <stop offset="1" stop-color="#A1CC02"/>
    </linearGradient>
    <linearGradient id="d" x1="79.888" x2="79.888" y1="82.991" y2="24.41" gradientUnits="userSpaceOnUse">
      <stop stop-color="#8E765E"/>
      <stop offset=".09" stop-color="#938168"/>
      <stop offset=".499" stop-color="#A8AE92"/>
      <stop offset=".816" stop-color="#B5CAAC"/>
      <stop offset="1" stop-color="#BAD4B6"/>
    </linearGradient>
    <linearGradient id="e" x1="79.888" x2="79.888" y1="105.701" y2="70.912" gradientUnits="userSpaceOnUse">
      <stop stop-color="#BA5270"/>
      <stop offset=".124" stop-color="#C56D76"/>
      <stop offset=".428" stop-color="#DEAB83"/>
      <stop offset=".686" stop-color="#F0D98D"/>
      <stop offset=".885" stop-color="#FBF593"/>
      <stop offset="1" stop-color="#FFFF95"/>
    </linearGradient>
    <linearGradient id="f" x1="86.362" x2="86.362" y1="24.113" y2="2.785" gradientUnits="userSpaceOnUse">
      <stop stop-color="#515E00"/>
      <stop offset=".59" stop-color="#457500"/>
      <stop offset="1" stop-color="#407F00"/>
    </linearGradient>
    <linearGradient id="g" x1="88.598" x2="88.598" y1="25.197" y2="18.409" gradientUnits="userSpaceOnUse">
      <stop stop-color="#8E765E"/>
      <stop offset=".09" stop-color="#938168"/>
      <stop offset=".499" stop-color="#A8AE92"/>
      <stop offset=".816" stop-color="#B5CAAC"/>
      <stop offset="1" stop-color="#BAD4B6"/>
    </linearGradient>
    <linearGradient id="h" x1="92.359" x2="92.359" y1="22.57" y2="12.984" gradientUnits="userSpaceOnUse">
      <stop stop-color="#8E765E"/>
      <stop offset=".09" stop-color="#938168"/>
      <stop offset=".499" stop-color="#A8AE92"/>
      <stop offset=".816" stop-color="#B5CAAC"/>
      <stop offset="1" stop-color="#BAD4B6"/>
    </linearGradient>
    <linearGradient id="i" x1="75.68" x2="75.68" y1="13.784" y2="7.163" gradientUnits="userSpaceOnUse">
      <stop stop-color="#BAD4B6"/>
      <stop offset=".184" stop-color="#B5CAAC"/>
      <stop offset=".501" stop-color="#A8AE92"/>
      <stop offset=".91" stop-color="#938168"/>
      <stop offset="1" stop-color="#8E765E"/>
    </linearGradient>
    <linearGradient id="j" x1="81.973" x2="78.449" y1="10.678" y2="11.137" gradientUnits="userSpaceOnUse">
      <stop stop-color="#8E765E"/>
      <stop offset=".09" stop-color="#938168"/>
      <stop offset=".499" stop-color="#A8AE92"/>
      <stop offset=".816" stop-color="#B5CAAC"/>
      <stop offset="1" stop-color="#BAD4B6"/>
    </linearGradient>
    <linearGradient id="k" x1="71.259" x2="26.238" y1="57.17" y2="57.17" gradientUnits="userSpaceOnUse">
      <stop stop-color="#8E765E"/>
      <stop offset=".09" stop-color="#938168"/>
      <stop offset=".499" stop-color="#A8AE92"/>
      <stop offset=".816" stop-color="#B5CAAC"/>
      <stop offset="1" stop-color="#BAD4B6"/>
    </linearGradient>
    <linearGradient id="l" x1="109.996" x2="80.44" y1="60.926" y2="60.926" gradientUnits="userSpaceOnUse">
      <stop stop-color="#8E765E"/>
      <stop offset=".09" stop-color="#938168"/>
      <stop offset=".499" stop-color="#A8AE92"/>
      <stop offset=".816" stop-color="#B5CAAC"/>
      <stop offset="1" stop-color="#BAD4B6"/>
    </linearGradient>
    <linearGradient id="m" x1="31.982" x2="31.982" y1="28.583" y2=".748" gradientUnits="userSpaceOnUse">
      <stop stop-color="#A93D54"/>
      <stop offset=".277" stop-color="#AC454A"/>
      <stop offset=".754" stop-color="#B3592E"/>
      <stop offset="1" stop-color="#B8661D"/>
    </linearGradient>
    <linearGradient id="n" x1="36.219" x2="46.594" y1="67.244" y2="41.041" gradientUnits="userSpaceOnUse">
      <stop stop-color="#FF9572"/>
      <stop offset=".017" stop-color="#FF9271"/>
      <stop offset=".359" stop-color="#FF5465"/>
      <stop offset=".648" stop-color="#FF265C"/>
      <stop offset=".871" stop-color="#FF0A56"/>
      <stop offset="1" stop-color="#FF0054"/>
    </linearGradient>
    <linearGradient id="o" x1="51.393" x2="56.472" y1="66.926" y2="54.097" gradientUnits="userSpaceOnUse">
      <stop stop-color="#FF9572"/>
      <stop offset=".017" stop-color="#FF9271"/>
      <stop offset=".359" stop-color="#FF5465"/>
      <stop offset=".648" stop-color="#FF265C"/>
      <stop offset=".871" stop-color="#FF0A56"/>
      <stop offset="1" stop-color="#FF0054"/>
    </linearGradient>
  </defs>
</svg>
