<svg xmlns="http://www.w3.org/2000/svg" width="212" height="154" fill="none" viewBox="0 0 212 154">
  <path fill="url(#a)" fill-rule="evenodd" d="M44.626 148.281c50.23 15.36 78.49-8.43 110.3-18.87.02-.01.05-.02.1-.03 1.08-.36 2.17-.69 3.25-1.02a95.78 95.78 0 0 1 6.26-1.62c36.03-8.01 26.59-30.59 39.17-42.61 8.15-7.77 8.87-15.42 6.72-21.48-.02-.04-.02-.08-.03-.1l-.03-.09c-1.18-3.22-3.15-5.98-5.23-8.07-3.43-3.43-6.71-8.96-11.94-15.21h-.01c-9.16-10.96-24.31-24.11-56.69-31.97-50.39-12.23-76.42 13.67-96.3 33.66-4.11 4.13-7.95 8.01-11.7 11.24-3.12 2.7-6.17 4.95-9.24 6.53 0 0-.02.01-.05.03-4.44 2.29-8.41 6.1-11.56 10.9a39.48 39.48 0 0 0-2.21 3.76c-11.67 22.47-7.11 60.8 39.19 74.95Z" clip-rule="evenodd"/>
  <path fill="url(#b)" fill-rule="evenodd" d="M44.626 148.281c55.22 16.88 83.88-13.54 119.92-21.54 36.03-8.01 26.59-30.59 39.17-42.61 12.59-12.01 7.44-23.73 1.43-29.74-3.43-3.43-6.71-8.96-11.94-15.21h-.01c7.64 10.01 12.51 16.08 12.8 27.51.29 11.44-4.01 11.43-13.15 31.74-6.37 14.13-18.63 20.45-39.75 28.45-9.21 3.49-19.03 8.81-32.6 12.73-63.48 18.3-117.53-17.16-117.53-43.75 0-25.76 15.3-36.55 16.25-37.2-24.55 12.68-34.41 71.34 25.41 89.62Z" clip-rule="evenodd" opacity=".5"/>
  <path fill="url(#c)" fill-rule="evenodd" d="M185.656 43.77c15.92 21.39-18.66 71.741-80.53 77.461-61.88 5.72-93.14-11.06-84.37-42.32 8.77-31.26 48.8-41.18 60.24-46.13 11.44-4.96-6.77-3.05-10.01-7.24s28.24-22.9 66.6-13.31c38.35 9.59 43.5 27.89 43.78 29.32.29 1.42 1.76-1.18 4.29 2.22Z" clip-rule="evenodd"/>
  <path fill="url(#d)" fill-rule="evenodd" d="M185.096 43.09s10.67 17.7-14.69 44.2c-25.36 26.501-89.22 40.801-125.63 27.071s-17.96-48.44-17.96-48.44-15.3 18.32-4.67 36.62c10.63 18.3 53.62 29.84 112.9 16.49 59.28-13.34 60.54-69.81 50.05-75.94Z" clip-rule="evenodd" opacity=".8"/>
  <path fill="url(#e)" fill-rule="evenodd" d="M165.536 115.301s-27.46 17.93-68.2 21.88c-40.74 3.95-39.61-8.72-55.33-11.72-15.73-3-20.45-11.44-20.45-11.44s1.72 4.62 18.16 8.32c16.44 3.69 17.72 9.78 34.6 12.56 16.89 2.77 62.2-4.73 91.22-19.6Z" clip-rule="evenodd" opacity=".5"/>
  <path fill="#FFDD81" fill-rule="evenodd" d="M122.506 129.17c5.43-1.86-39.18-5.84-56.48-4.78-17.3 1.06 5 18.93 56.48 4.78Z" clip-rule="evenodd" opacity=".5"/>
  <path fill="#FFDD81" fill-rule="evenodd" d="M123.036 132.651c5.04-.34-18.6 14.01-48.74 11.48-30.15-2.53-35.44-15.68-35.44-15.68s8.01 5.15 35.46 8.86c27.45 3.73 48.72-4.66 48.72-4.66Z" clip-rule="evenodd" opacity=".8"/>
  <path fill="url(#f)" fill-rule="evenodd" d="M138.446 133.08s-24.94 15.45-66.37 12.53c-41.43-2.92-56.05-15.88-56.05-15.88s23.83 22.74 57.38 22.36c33.56-.38 65.04-19.01 65.04-19.01Z" clip-rule="evenodd" opacity=".5"/>
  <path fill="url(#g)" fill-rule="evenodd" d="M130.867 128.461s-16.37 8.45-37.32 9.05c-20.95.6-31.12-1.63-36.47-5.2-5.35-3.57-10.16-7.92-10.16-7.92s6.74 3.43 18.11 8.72c11.36 5.28 44.11.78 65.84-4.65Z" clip-rule="evenodd" opacity=".5"/>
  <path fill="#FFDD81" fill-rule="evenodd" d="M18.376 120.451c3.18-1.43-5.84-31.29 4.82-50.47 9.95-17.89 13.8-20.64 13.8-20.64s-25.01 8.11-32.08 32.46c-7.71 26.59 13.46 38.65 13.46 38.65Z" clip-rule="evenodd" opacity=".5"/>
  <path fill="#9ADD00" fill-rule="evenodd" d="M143.786 98.95c20.73-13.3-33.97-48.15-89.08-33.65-55.11 14.49-18.88 44.521 23.2 48.091 42.07 3.58 57.85-9.29 65.88-14.44Zm14.46-75.44c17 12.9-71.28 6.23-75.68-2.95-4.41-9.19 46.44-19.25 75.68 2.95Zm-34.53 10.021c10.91 4.68-.55 8.26-9.89 5.65-9.34-2.61 5.36-7.6 9.89-5.65Z" clip-rule="evenodd" opacity=".3"/>
  <path fill="url(#h)" fill-rule="evenodd" d="M158.276 128.36a95.78 95.78 0 0 1 6.26-1.62c36.03-8.01 26.59-30.59 39.17-42.61 8.15-7.77 8.87-15.42 6.72-21.48.27.99 1.23 5.77-3.77 12.43-5.62 7.5-7.82 10.77-10.39 17.92-2.57 7.15-6.39 21.73-19.06 27.74-8.15 3.86-15.05 6.34-18.93 7.62Z" clip-rule="evenodd" opacity=".5"/>
  <path fill="#FFDD81" fill-rule="evenodd" d="M201.286 54.961c4.07 4.61 8.01 14.15-4.86 32.03-12.87 17.87-19.16 18.73-20.16 18.44-1-.29 8.39-17.41 12.06-33.51 3.66-16.1 10.3-19.97 12.96-16.96Z" clip-rule="evenodd" opacity=".5"/>
  <path fill="#9ADD00" fill-rule="evenodd" d="M60.006 59.46c.15.49-1.57 2.08-2.96 1.22-1.39-.86.22-3.26.91-3 .68.26 1.73.77 2.05 1.78Zm16.32 53.791c15.11 1.99-6.63-34.74-24.89-38.94-18.25-4.19-25.49 8.42-21.4 19.37 4.1 10.95 27.86 17.14 46.29 19.57Z" clip-rule="evenodd" opacity=".3"/>
  <path fill="#9ADD00" fill-rule="evenodd" d="M168.696 11.4c1.37-1.98-8.9-10.67-13.77-11.34-4.87-.67-4.78 4.29-3.92 10.67.85 6.39 16.7 2.1 17.69.67Z" clip-rule="evenodd" opacity=".5"/>
  <path fill="url(#i)" fill-rule="evenodd" d="M181.827 107.1c5.4-4-8.99-23.05-17.34-23.15-8.34-.11-24.52 30.76-24.82 33.92-.29 3.15 25.17 5.16 42.16-10.77Z" clip-rule="evenodd"/>
  <path fill="#D96840" fill-rule="evenodd" d="M170.406 87.291c4.87 3.19 5.29 14.67-4.87 20.96-10.15 6.29-23.79 4.49-23.88 4.68-.09.19 17.11-28.65 21.08-28.6 3.97.05 7.67 2.96 7.67 2.96Z" clip-rule="evenodd"/>
  <path fill="#DB83A9" fill-rule="evenodd" d="M182.806 105.71c.96-1.81-2.02-9.99-8.6-6.13-1.11.65-3.29 6.46-11.31 10.09s-18.78 10.14-19.1 10.09c-.33-.05 1.15 4.17 19.88.28 18.73-3.88 19.13-14.33 19.13-14.33Z" clip-rule="evenodd"/>
  <path fill="#9ADD00" fill-rule="evenodd" d="M168.116 105.201c3.56-4.25 4.34-9.34-1.57-11.15-5.91-1.81-13.3 10.44-12.68 13.73.62 3.28 11.77.37 14.25-2.58Z" clip-rule="evenodd" opacity=".3"/>
  <path fill="#9ADD00" fill-rule="evenodd" d="M163.636 87.471c.92.57-4.86 10.25-8.1 12.53-3.25 2.29 3.33-15.49 8.1-12.53Z" clip-rule="evenodd" opacity=".3"/>
  <path fill="url(#j)" fill-rule="evenodd" d="M139.666 97.29c1.73-6.17-14-12.39-36.97-5.34-22.97 7.05-11.96 17.851-2.03 19.251 9.95 1.4 36.92-6.48 39-13.91Z" clip-rule="evenodd" opacity=".8"/>
  <path fill="#86A500" fill-rule="evenodd" d="M139.006 98.68c1.9-3.96-5.92-9.59-27.18-6.54-21.26 3.05-22.62 12.001-21.59 13.341 1.03 1.33.15 8.02 20.55 5.54 20.39-2.49 28.22-12.34 28.22-12.34Z" clip-rule="evenodd"/>
  <path fill="url(#k)" fill-rule="evenodd" d="M165.536 78.681c3.04-1.72-3.37-10.97-20.35-8.84-16.98 2.12 5.53 17.2 20.35 8.84Z" clip-rule="evenodd" opacity=".8"/>
  <path fill="#639100" fill-rule="evenodd" d="M164.936 79c1.79-1.54-3.44-7.579-14.54-7.919-11.1-.33-11.33 2.67-11.12 3.13.21.47 2.78 5.1 11.49 6.53 8.71 1.44 14.17-1.74 14.17-1.74Z" clip-rule="evenodd"/>
  <path fill="url(#l)" fill-rule="evenodd" d="M143.856 64.02c2.98 2.63-6.01 5.7-13.15 3.04-7.16-2.66 8.19-7.43 13.15-3.04Z" clip-rule="evenodd" opacity=".8"/>
  <path fill="#639100" fill-rule="evenodd" d="M143.656 66.35c1.48-1.61-9-5.13-14.69-.43 0 0 .99 1.82 6.38 2.11 5.39.3 8.31-1.68 8.31-1.68Z" clip-rule="evenodd"/>
  <path fill="#9ADD00" fill-rule="evenodd" d="M139.807 91.951c8.47.09.9-14.87-14.06-17.82-14.97-2.95-25.55 11.4-27.17 13.8-1.62 2.4 23.51-2.12 41.23 4.02Z" clip-rule="evenodd" opacity=".3"/>
  <path fill="#B2562B" fill-rule="evenodd" d="M165.006 108.601s-4.51.64-7.8 1.52c-3.29.89-4.39 2.43-4.39 2.43s4.98.75 12.19-3.95Z" clip-rule="evenodd"/>
  <path fill="#9ADD00" fill-rule="evenodd" d="M171.546 114.011c2.43-1.79-5.88-4.07-12.63-1.79-6.75 2.29-9.18 6.72-9.25 7.15-.07.43 10.15.08 21.88-5.36Z" clip-rule="evenodd" opacity=".3"/>
  <path fill="#EA8E40" fill-rule="evenodd" d="M172.376 100.761s-4.3 6.13-8.23 6.88c-8.06 1.54-8.97 2.43-12.08 3.72-3.11 1.29-8.47 1.66-8.47 1.66s3.52.03 9.23-.48c0 0 1.97-1.78 5.16-2.43 3.19-.65 7.02-1.33 7.02-1.33s4.58-2.22 7.37-8.02Z" clip-rule="evenodd"/>
  <path fill="#D36F3B" fill-rule="evenodd" d="M12.346 102c1.04-1.56-.04-5.05-2.8-5.39-2.76-.33-4.07 1.53-4.59 3.96-.51 2.43 5.62 4.1 7.39 1.43Zm2.37-6.72c2.95.33 2.13-4.47-1.3-6.05-3.43-1.58-7.26 5.11 1.3 6.05Zm12.5 28.411c1.67-1.5-1.74-3.22-3-1.72-1.27 1.5 1.33 3.22 3 1.72Z" clip-rule="evenodd"/>
  <path fill="#DB83A9" fill-rule="evenodd" d="M16.356 92.581c.48 1.7-1.57 2.68-4.62 1.46-3.05-1.22-1.85-3.58-1.85-3.58s-.82 1.29-.9 2.39c-.07 1.1 2.24 3.21 6.29 3.15 4.07-.07 1.08-3.42 1.08-3.42Zm-3.82 6.71s1.11 2.03-2.63 2.68c-3.74.64-4.66-2.42-4.66-2.42s-.6 1.01-.49 2.01c.12 1 2.36 2.84 6.74 1.98 4.38-.86 1.04-4.25 1.04-4.25Zm14.8 22.8c.89.86-1.27 1.63-2.42 1.5-1.14-.13-1.04-.89-1.04-.89s-.54 1.43 1.89 1.66c2.44.24 2.89-1.81 1.57-2.27Z" clip-rule="evenodd"/>
  <path fill="#E7792C" fill-rule="evenodd" d="M8.836 97c1.39.5.72 2.47-.86 2.97-1.58.51-2.56-.87-2.56-.87s.9-3.01 3.42-2.1Zm3.9-7.359c1.28.64-.07 2.03-1.4 1.86-1.33-.17-1.02-1.31-1.02-1.31s1.28-1.13 2.42-.55Zm13.191 33.039c.32-.53-.22-1.11-.94-1.15-.72-.04-.93 1.17-.84 1.35.09.18 1.32.57 1.78-.2Z" clip-rule="evenodd"/>
  <path fill="#D36F3B" fill-rule="evenodd" d="M85.897 101.56c1.67-1.5-1.74-3.22-3-1.72-1.27 1.5 1.33 3.22 3 1.72Z" clip-rule="evenodd"/>
  <path fill="#DB83A9" fill-rule="evenodd" d="M86.016 99.96c.89.861-1.27 1.631-2.42 1.501-1.15-.13-1.04-.89-1.04-.89s-.54 1.43 1.89 1.66c2.44.24 2.89-1.81 1.57-2.27Z" clip-rule="evenodd"/>
  <path fill="#E7792C" fill-rule="evenodd" d="M84.617 100.541c.32-.53-.22-1.11-.94-1.15-.72-.04-.93 1.17-.84 1.35.09.18 1.31.57 1.78-.2Z" clip-rule="evenodd"/>
  <path fill="#D36F3B" fill-rule="evenodd" d="M138.207 124.28c2.39-2.15-2.5-4.61-4.31-2.46-1.8 2.15 1.92 4.61 4.31 2.46Z" clip-rule="evenodd"/>
  <path fill="#DB83A9" fill-rule="evenodd" d="M138.376 121.99c1.27 1.24-1.83 2.33-3.47 2.15-1.64-.18-1.49-1.27-1.49-1.27s-.77 2.05 2.72 2.38c3.49.33 4.14-2.6 2.24-3.26Z" clip-rule="evenodd"/>
  <path fill="#E7792C" fill-rule="evenodd" d="M136.366 122.831c.46-.76-.32-1.58-1.35-1.65-1.03-.06-1.33 1.67-1.2 1.93.13.26 1.88.82 2.55-.28Z" clip-rule="evenodd"/>
  <path fill="#D36F3B" fill-rule="evenodd" d="M79.467 106.891c.05-3.36-5.03-5.89-8.67-1.46-3.63 4.44 8.6 6.34 8.67 1.46Z" clip-rule="evenodd"/>
  <path fill="#DB83A9" fill-rule="evenodd" d="M79.106 105.352s.67 3.16-2.86 3.83c-3.53.67-6.3-1.36-5.7-3.4 0 0-.92.77-1.19 1.99-.27 1.22 2.57 3.41 7.79 3.03 5.23-.38 2.77-4.36 1.96-5.45Z" clip-rule="evenodd"/>
  <path fill="#E7792C" fill-rule="evenodd" d="M72.707 104.971c1.21 0 1.06 1.85-.86 1.68-1.91-.17-.03-1.68.86-1.68Z" clip-rule="evenodd"/>
  <path fill="url(#m)" fill-rule="evenodd" d="M27.917 61.841c2.43-3.87-5.88-12.29-8.62-13.01-2.74-.73-11.75 17.32-11.9 20.09-.14 2.77 8.58 6.37 20.52-7.08Z" clip-rule="evenodd"/>
  <path fill="url(#n)" fill-rule="evenodd" d="M16.716 79c1.67-1.77-7.74-11.99-11.46-12.86-3.72-.88-4.6 15.41-3.51 16.78 1.08 1.35 9.33 2.06 14.97-3.92Z" clip-rule="evenodd"/>
  <path fill="#D96840" fill-rule="evenodd" d="M19.296 48.83c1.21-.15 4.5 2.81 4.71 7.33.21 4.53-13.53 10.5-15.98 10.54-.62.01 5.44-16.34 11.27-17.87ZM5.826 66.331c2.09 1.04 7.54 6.08 5.92 10.47-1.62 4.38-8.44-1.95-8.86-6.05-.44-4.11 1.55-5.12 2.94-4.42Z" clip-rule="evenodd"/>
  <path fill="#DB83A9" fill-rule="evenodd" d="M28.206 61.361c.13-.9-.65-4.13-5.22-1.9-4.58 2.22-8.53 6.1-9.6 7.6-1.07 1.5-1.04 4.47-1.04 4.47s6.5 6.17 15.86-10.17ZM2.047 71.541s1.85 2.68 5.35 5.8c2.57 2.29 7.23 3.51 7.23 3.51s-2.59 3.64-9.01 6.43c-4.95 2.15-3.87-4.37-3.87-4.37s-1.12-4.09.3-11.37Z" clip-rule="evenodd"/>
  <path fill="#9ADD00" fill-rule="evenodd" d="M9.096 77.43c2.52.34-1.49-6.35-3.96-6.9-2.47-.56-1.11 6.22 3.96 6.9Zm-1.69 3.941c2.77-.91-1.43-5.39-4.17-5.72-2.74-.34-2.39 6.43 4.17 5.72Zm15.121-23.4c1.6-2.92-2.18-6.93-5.18-6.33-3 .61-5.65 9.08-5.79 10.94-.15 1.86 8.5-.12 10.97-4.61Zm2.42 1.089c2.43-.03.21 3.43-4.11 4.81-4.33 1.39.48-4.76 4.11-4.81Z" clip-rule="evenodd" opacity=".3"/>
  <path fill="#B2562B" fill-rule="evenodd" d="M18.666 62.14s-1.67 2.17-3.02 3c-1.35.83-4.29.62-4.29.62s2.66-2.18 7.31-3.62Zm-9.62 16.39s-2.27-2-3.16-2.89c-.89-.89-2.41-2.3-2.41-2.3s-.19 3.62 5.57 5.19Z" clip-rule="evenodd"/>
  <path fill="#EA8E40" fill-rule="evenodd" d="M13.026 80.34s-3.29-1.28-4.38-2.07c-1.09-.79-3.95-3.8-3.95-3.8s6.59 2.16 8.33 5.87Zm10.31-22.189s-2.81 2.32-5.17 3.42-4.81 1.4-6.13 2.12c-1.31.71-2.24 2.63-2.24 2.63s1.33-.37 1.56-.55c.24-.18 4.16-2.93 7.31-3.62 0-.01 3.58-2.23 4.67-4Z" clip-rule="evenodd"/>
  <path fill="url(#o)" fill-rule="evenodd" d="M81.886 32.9c3.72 4.57 11.92 1.57 11.92 1.57s4.81 13.98 25.13 7.79c20.13-6.14 8.48-18.22 8.48-18.22-.12-4.41-1.15-6.5-2.29-7.45-1.61-1.34-3.46-.42-3.46-.42-1.48-12.06-10.86-9.4-10.86-9.4l.68 7.07c-12.59-4.63-13.05 9.74-13.05 9.74-2.06-2.45-2.69-1.55-2.69-1.55s-2.54-6.72-8.99-6.87c-6.47-.14-5.57 10.16-5.57 10.16s-.8.8-1.06 2.21v.01c-.27 1.32-.03 3.16 1.76 5.36Z" clip-rule="evenodd"/>
  <path fill="url(#p)" fill-rule="evenodd" d="M81.646 34.05c3.72 4.57 12.17.43 12.17.43s6.06 14.89 26.37 8.7c20.13-6.14 7.24-19.14 7.24-19.14-.12-4.41-1.15-6.5-2.29-7.45 1.26 7.26-9.3 11.09-9.3 11.09 8.78 1.79 10.96-3.29 10.96-3.29s.64-.35 1.79 2.36c1.15 2.72.43 15.23-16.01 14.01-16.44-1.21-17.71-10.35-17.71-10.35s-4.78 3.52-8.99 3.09c-4.15-.42-5.7-5.8-5.75-5.96-.27 1.32-.28 4.3 1.52 6.51Z" clip-rule="evenodd" opacity=".5"/>
  <path fill="url(#q)" fill-rule="evenodd" d="M111.486 13.84c3.5 2.05 3.92-.33 2.36-3.82-1.48-3.29-3.04-3.25-3.04-3.25l.68 7.07Z" clip-rule="evenodd" opacity=".5"/>
  <path fill="#9ADD00" fill-rule="evenodd" d="M124.436 26.8c4.14-.05 1.04 12.44-9.97 12.91-11.01.48-16.82-5.96-16.97-7.05-.15-1.09 16.08.2 26.94-5.86Zm-9.4-11.44c5.94 3.6 4.96 10.63-6.77 12.44-11.72 1.81-8.91-10.21-5.7-12.92 3.22-2.71 9.29-1.44 12.47.48Zm-19.75 5.71c.47.59-6.07 3.97-9.89 3.61-3.82-.36-3.84-7.26-.52-8.76 3.3-1.5 6.18-.14 10.41 5.15Zm-1.74 8.97c2.07-2.36-10.19-4.47-11.59-4.15-1.4.32-1.29 6.41 3.67 7.38 4.96.97 7.92-3.23 7.92-3.23Z" clip-rule="evenodd" opacity=".3"/>
  <path fill="#EABA13" fill-rule="evenodd" d="M137.086 16.76c3.62 1.86-1.41 2.46-3.71.87-2.3-1.58 1.08-2.21 3.71-.87Zm-3.559-3.46c3.91 1.77.46 3.31-6.14.7-6.61-2.63 1.2-2.93 6.14-.7Zm-1.961-4.53c2.21.77-2 1.33-4.11.52-2.12-.8.07-1.91 4.11-.52Zm-30.92 25.911c3.43.62-.6 1.51-1.73 1.15-1.12-.37-1.77-1.79 1.73-1.15Zm36.271 2.119c4.39 1.57-2.36 2.36-3.93 1.79-1.57-.58-2.65-4.15 3.93-1.79ZM71.246 77.65c3.62 1.86-1.41 2.46-3.71.87-2.3-1.59 1.08-2.22 3.71-.87Zm-3.56-3.47c3.91 1.77.46 3.31-6.14.7-6.61-2.62 1.2-2.93 6.14-.7Zm-1.96-4.52c2.21.77-2 1.33-4.11.52-2.12-.81.08-1.92 4.11-.52Zm-30.92 25.9c3.43.62-.6 1.51-1.73 1.15-1.12-.37-1.76-1.79 1.73-1.15Zm36.27 2.12c4.39 1.57-2.36 2.36-3.93 1.79-1.57-.57-2.64-4.15 3.93-1.79Z" clip-rule="evenodd" opacity=".5"/>
  <path fill="#FFDD5E" fill-rule="evenodd" d="M90.886 134.491c2.72-1.27-24.23-7.18-31.67-8.52-7.43-1.33-9.97-.69-9.97-.69s7.3 3.36 13.49 6.76c6.2 3.4 24.57 3.21 28.15 2.45Zm-20.76 9.21c-4.12-.61-17.4-9.16-26.06-12.97-8.66-3.8-17.36-2.38-17.36-2.38s16.94 11.39 43.42 15.35Z" clip-rule="evenodd" opacity=".7"/>
  <path fill="#EDE0A9" fill-rule="evenodd" d="M111.996 129.581c2.87-2.02.29-4.37-3.98-6.1-4.27-1.73-14.99 3.51-16.05 4.65-1.05 1.14 10.66 8.06 20.03 1.45Zm-21.48-3.911c1.38 1.4-1.54 3.51-3.58 1.77-2.04-1.75 2.66-2.71 3.58-1.77Zm-66.46-10.619c2.2-2.2-1.64-10.29-9.77-9.32-8.12.96 2.21 16.9 9.77 9.32Z" clip-rule="evenodd"/>
  <path fill="#CC81B3" fill-rule="evenodd" d="M112.447 126.141s.63 5.51-8.05 5.67c-12.28.23-11.38-4.41-11.38-4.41s-1.04.73-1.33 1.11c-.29.38 3.72 4.74 12.45 4.26 8.74-.49 9.64-4.25 9.45-4.99-.2-.75-1.14-1.64-1.14-1.64Z" clip-rule="evenodd" opacity=".7"/>
  <path fill="#CC81B3" fill-rule="evenodd" d="M90.516 125.671s.93 1.55-1.29 1.89c-2.23.34-2.81-.99-2.81-.99s-.02 2.21 2.96 1.82c2.98-.39 1.14-2.72 1.14-2.72Z" clip-rule="evenodd"/>
  <path fill="#CC81B3" fill-rule="evenodd" d="M23.116 109.29s1.65 2.4.6 4.49c-1.06 2.09-3.83 2.9-7.74.87s-4.65-5.75-4.65-5.75-.19 1.44 1.08 4.03c1.27 2.59 5.04 5.81 10.41 4.3 5.36-1.51 1.16-7.36.3-7.94Z" clip-rule="evenodd" opacity=".7"/>
  <path fill="#B0FF00" fill-rule="evenodd" d="M89.666 109.76c2.16 2.43-2.79 2.7-4.22 1.5-1.42-1.19 2.37-3.59 4.22-1.5Zm-2.92-3.939c1.57 1.24-1.16 1.8-2.12.85-.96-.96.98-1.75 2.12-.85Zm80.48-70.93c2.16 2.43-2.79 2.7-4.22 1.5-1.43-1.19 2.36-3.59 4.22-1.5Zm-2.93-3.951c1.57 1.24-1.16 1.8-2.12.85-.96-.95.99-1.74 2.12-.85Zm-89.84 84.821c1.88 1.12-1.69 1.35-2.91.98-1.21-.37 1.03-2.1 2.91-.98Zm75.3-30.89c.54 1.67-3 1.39-3.86-.18-.86-1.57 3.43-1.14 3.86.18Zm-3.97-2.441c.35.42-.89.34-1.25 0-.35-.35.63-.73 1.25 0Zm-8.9 3.23c3.93 1.55 1.32 4.14-1.89 2.27-3.22-1.88-.29-3.13 1.89-2.27Zm-79.23-29.619c.54 1.67-3 1.39-3.86-.18-.86-1.57 3.43-1.14 3.86.18Zm-3.97-2.44c.35.42-.89.34-1.25 0-.35-.34.64-.73 1.25 0Zm-8.9 3.229c3.93 1.55 1.32 4.14-1.89 2.27-3.22-1.88-.29-3.13 1.89-2.27Zm52.53 32.29c2.2 1.53.14 2.36-2.72 1.29-2.85-1.07 1.85-1.89 2.72-1.29Zm28.39-57.92c2.83 1.91-3.07 2.81-4.35 1.14-1.28-1.67 2.44-2.43 4.35-1.14Zm-12.21 6.19c2.57.43 0 2.34-1.81 1.39-1.81-.96-.76-1.83 1.81-1.39Zm-7.43 3.05c2.1.56-2 2.43-3.53 1.83-1.52-.59-.9-3.02 3.53-1.83Z" clip-rule="evenodd"/>
  <path fill="#DB83A9" fill-rule="evenodd" d="M104.557 102.871c-1-1.22 11.95-7.59 22.05-4.14 8.06 2.76-15.23 12.47-22.05 4.14Z" clip-rule="evenodd"/>
  <path fill="url(#r)" fill-rule="evenodd" d="M125.996 98.62c4.03-3.61 5.37-8.77 4.21-11.71-1.16-2.95-14.82-4.6-20.37-1.75-5.55 2.85-5.76 14.58-3.74 17.3 2.02 2.74 12.51 2.8 19.9-3.84Z" clip-rule="evenodd"/>
  <path fill="#DB83A9" fill-rule="evenodd" d="M129.766 87.14c3.09 3.96-14.59 16.331-20.46 11.01-5.87-5.33-1.09-12.23 1.49-12.98 2.58-.76 15.31-2.73 18.97 1.97Z" clip-rule="evenodd"/>
  <path fill="#FFA7FF" fill-rule="evenodd" d="M129.947 86.49c.34 1.38-8.91 5.48-14.95 5.29-6.04-.19-7.24-3.83-6.68-5.49.56-1.66 5.04-2.56 11.13-2.58 6.08-.02 10.26 1.79 10.5 2.78Z" clip-rule="evenodd"/>
  <path fill="#FFA7FF" fill-rule="evenodd" d="M129.876 87.3c1.1.01.56 5.37-2.63 9.12-3.19 3.761-10.03 6.451-10.65 6.451-.62 0-.29-9.64-.2-10.02.08-.37 6.88-.98 13.48-5.55Z" clip-rule="evenodd"/>
  <path fill="#DB83A9" fill-rule="evenodd" d="M114.656 103.2c.96-.23 1.4-8.53.66-9.67-.74-1.14-6.52-2.7-7.51-5.59 0 0-2.02 2.21-2.33 7.86-.31 5.65 1.88 9.11 9.18 7.4Z" clip-rule="evenodd"/>
  <path fill="ivory" fill-rule="evenodd" d="M120.237 91.15c.15.02-3.63 2.11-4.52 2.37-.89.27-3.53-2.159-3.53-2.159s2.98-.9 8.05-.21Zm-8.511.07s-1.31-.28-2.35-1.11c-1.04-.83-1.08-2.23-1.08-2.23s1.96 2.67 3.43 3.34Z" clip-rule="evenodd"/>
  <path fill="#DB83A9" fill-rule="evenodd" d="M112.687 103.191c2.04.7 2.31 5.47-4.55 6.03-6.85.56-3.36-8.74 4.55-6.03Z" clip-rule="evenodd"/>
  <path fill="url(#s)" fill-rule="evenodd" d="M113.206 104.481c.56-1.45-2.77-6.31-6.15-5.16-3.37 1.16-4.47 4.43-2.71 7.19 1.77 2.76 7.03 2.68 8.86-2.03Z" clip-rule="evenodd"/>
  <path fill="#DB83A9" fill-rule="evenodd" d="M112.316 102.931c.3 1.17-3.91 4.43-7.17 2.39-3.26-2.04 1.32-5.62 3-5.68 1.67-.08 3.79 1.83 4.17 3.29Z" clip-rule="evenodd"/>
  <path fill="#FFA7FF" fill-rule="evenodd" d="M112.196 101.621c.41.98-1.85 2.95-4.64 3.19-2.79.24-3.66-1.49-3.71-2-.05-.52 2.53-3.68 4.2-3.48 1.67.19 3.61 1.01 4.15 2.29Z" clip-rule="evenodd"/>
  <path fill="#FFA7FF" fill-rule="evenodd" d="M109.317 108.051c.27.18 2.54-1.54 3.24-2.68.7-1.15.18-2.74-.08-2.72-.25.02-2.39 1.82-4.09 2.3.01-.01-.5 2.16.93 3.1Z" clip-rule="evenodd"/>
  <path fill="#DB83A9" fill-rule="evenodd" d="M108.396 108.161c.31-.06-.41-2.78-.68-2.97-.27-.19-2.95-.29-4.04-2.05-.01 0-.75 4.6 4.72 5.02Z" clip-rule="evenodd"/>
  <path fill="ivory" fill-rule="evenodd" d="M108.906 104.551s-.41.97-.7 1.1c-.29.12-1.74-.82-1.74-.82s1.03.08 2.44-.28Zm-2.819.189s-1.05-.56-1.47-.89c-.42-.33-.66-.66-.66-.66s.38 1.52 2.13 1.55Z" clip-rule="evenodd"/>
  <defs>
    <linearGradient id="a" x1="105.737" x2="105.737" y1="153.304" y2="4.051" gradientUnits="userSpaceOnUse">
      <stop stop-color="#63902F"/>
      <stop offset=".417" stop-color="#84B017"/>
      <stop offset=".769" stop-color="#99C508"/>
      <stop offset="1" stop-color="#A1CC02"/>
    </linearGradient>
    <linearGradient id="b" x1="105.738" x2="105.738" y1="153.304" y2="39.179" gradientUnits="userSpaceOnUse">
      <stop stop-color="#DF7A70"/>
      <stop offset=".059" stop-color="#E1816E"/>
      <stop offset=".482" stop-color="#F1AE63"/>
      <stop offset=".81" stop-color="#FBCA5D"/>
      <stop offset="1" stop-color="#FFD45A"/>
    </linearGradient>
    <linearGradient id="c" x1="104.407" x2="104.407" y1="122.332" y2="9.51" gradientUnits="userSpaceOnUse">
      <stop stop-color="#63902F"/>
      <stop offset=".417" stop-color="#84B017"/>
      <stop offset=".769" stop-color="#99C508"/>
      <stop offset="1" stop-color="#A1CC02"/>
    </linearGradient>
    <linearGradient id="d" x1="104.256" x2="104.256" y1="124.814" y2="43.091" gradientUnits="userSpaceOnUse">
      <stop stop-color="#8E765E"/>
      <stop offset=".09" stop-color="#938168"/>
      <stop offset=".499" stop-color="#A8AE92"/>
      <stop offset=".816" stop-color="#B5CAAC"/>
      <stop offset="1" stop-color="#BAD4B6"/>
    </linearGradient>
    <linearGradient id="e" x1="93.548" x2="93.548" y1="137.932" y2="114.015" gradientUnits="userSpaceOnUse">
      <stop stop-color="#DF7A70"/>
      <stop offset=".059" stop-color="#E1816E"/>
      <stop offset=".482" stop-color="#F1AE63"/>
      <stop offset=".81" stop-color="#FBCA5D"/>
      <stop offset="1" stop-color="#FFD45A"/>
    </linearGradient>
    <linearGradient id="f" x1="77.236" x2="77.236" y1="152.1" y2="129.738" gradientUnits="userSpaceOnUse">
      <stop stop-color="#BA5270"/>
      <stop offset=".124" stop-color="#C56D76"/>
      <stop offset=".428" stop-color="#DEAB83"/>
      <stop offset=".686" stop-color="#F0D98D"/>
      <stop offset=".885" stop-color="#FBF593"/>
      <stop offset="1" stop-color="#FFFF95"/>
    </linearGradient>
    <linearGradient id="g" x1="88.89" x2="88.89" y1="137.604" y2="124.387" gradientUnits="userSpaceOnUse">
      <stop stop-color="#BA5270"/>
      <stop offset=".124" stop-color="#C56D76"/>
      <stop offset=".428" stop-color="#DEAB83"/>
      <stop offset=".686" stop-color="#F0D98D"/>
      <stop offset=".885" stop-color="#FBF593"/>
      <stop offset="1" stop-color="#FFFF95"/>
    </linearGradient>
    <linearGradient id="h" x1="211.469" x2="158.277" y1="95.503" y2="95.503" gradientUnits="userSpaceOnUse">
      <stop stop-color="#BA5270"/>
      <stop offset=".124" stop-color="#C56D76"/>
      <stop offset=".428" stop-color="#DEAB83"/>
      <stop offset=".686" stop-color="#F0D98D"/>
      <stop offset=".885" stop-color="#FBF593"/>
      <stop offset="1" stop-color="#FFFF95"/>
    </linearGradient>
    <linearGradient id="i" x1="161.339" x2="161.339" y1="120.047" y2="83.952" gradientUnits="userSpaceOnUse">
      <stop stop-color="#A93D54"/>
      <stop offset=".277" stop-color="#AC454A"/>
      <stop offset=".754" stop-color="#B3592E"/>
      <stop offset="1" stop-color="#B8661D"/>
    </linearGradient>
    <linearGradient id="j" x1="139.8" x2="89.125" y1="100.092" y2="100.092" gradientUnits="userSpaceOnUse">
      <stop stop-color="#8E765E"/>
      <stop offset=".09" stop-color="#938168"/>
      <stop offset=".499" stop-color="#A8AE92"/>
      <stop offset=".816" stop-color="#B5CAAC"/>
      <stop offset="1" stop-color="#BAD4B6"/>
    </linearGradient>
    <linearGradient id="k" x1="166.269" x2="139.117" y1="75.352" y2="75.352" gradientUnits="userSpaceOnUse">
      <stop stop-color="#8E765E"/>
      <stop offset=".09" stop-color="#938168"/>
      <stop offset=".499" stop-color="#A8AE92"/>
      <stop offset=".816" stop-color="#B5CAAC"/>
      <stop offset="1" stop-color="#BAD4B6"/>
    </linearGradient>
    <linearGradient id="l" x1="144.439" x2="128.833" y1="65.16" y2="65.16" gradientUnits="userSpaceOnUse">
      <stop stop-color="#8E765E"/>
      <stop offset=".09" stop-color="#938168"/>
      <stop offset=".499" stop-color="#A8AE92"/>
      <stop offset=".816" stop-color="#B5CAAC"/>
      <stop offset="1" stop-color="#BAD4B6"/>
    </linearGradient>
    <linearGradient id="m" x1="17.881" x2="17.881" y1="71.537" y2="48.806" gradientUnits="userSpaceOnUse">
      <stop stop-color="#A93D54"/>
      <stop offset=".277" stop-color="#AC454A"/>
      <stop offset=".754" stop-color="#B3592E"/>
      <stop offset="1" stop-color="#B8661D"/>
    </linearGradient>
    <linearGradient id="n" x1="9.115" x2="9.115" y1="83.85" y2="66.103" gradientUnits="userSpaceOnUse">
      <stop stop-color="#A93D54"/>
      <stop offset=".277" stop-color="#AC454A"/>
      <stop offset=".754" stop-color="#B3592E"/>
      <stop offset="1" stop-color="#B8661D"/>
    </linearGradient>
    <linearGradient id="o" x1="105.399" x2="105.399" y1="43.843" y2="6.525" gradientUnits="userSpaceOnUse">
      <stop stop-color="#515E00"/>
      <stop offset=".59" stop-color="#457500"/>
      <stop offset="1" stop-color="#407F00"/>
    </linearGradient>
    <linearGradient id="p" x1="105.737" x2="105.737" y1="44.682" y2="16.59" gradientUnits="userSpaceOnUse">
      <stop stop-color="#8E765E"/>
      <stop offset=".09" stop-color="#938168"/>
      <stop offset=".499" stop-color="#A8AE92"/>
      <stop offset=".816" stop-color="#B5CAAC"/>
      <stop offset="1" stop-color="#BAD4B6"/>
    </linearGradient>
    <linearGradient id="q" x1="112.757" x2="112.757" y1="14.6" y2="6.774" gradientUnits="userSpaceOnUse">
      <stop stop-color="#DF7A8E"/>
      <stop offset=".303" stop-color="#EBACB8"/>
      <stop offset=".616" stop-color="#F6D9DE"/>
      <stop offset=".859" stop-color="#FDF5F6"/>
      <stop offset="1" stop-color="#fff"/>
    </linearGradient>
    <linearGradient id="r" x1="113.024" x2="117.539" y1="105.013" y2="77.04" gradientUnits="userSpaceOnUse">
      <stop stop-color="#FF9572"/>
      <stop offset=".017" stop-color="#FF9271"/>
      <stop offset=".359" stop-color="#FF5465"/>
      <stop offset=".648" stop-color="#FF265C"/>
      <stop offset=".871" stop-color="#FF0A56"/>
      <stop offset="1" stop-color="#FF0054"/>
    </linearGradient>
    <linearGradient id="s" x1="107.724" x2="109.402" y1="108.537" y2="96.738" gradientUnits="userSpaceOnUse">
      <stop stop-color="#FF9572"/>
      <stop offset=".017" stop-color="#FF9271"/>
      <stop offset=".359" stop-color="#FF5465"/>
      <stop offset=".648" stop-color="#FF265C"/>
      <stop offset=".871" stop-color="#FF0A56"/>
      <stop offset="1" stop-color="#FF0054"/>
    </linearGradient>
  </defs>
</svg>
