<svg xmlns="http://www.w3.org/2000/svg" width="113" height="81" fill="none" viewBox="0 0 113 81">
  <path fill="url(#a)" fill-rule="evenodd" d="M6.994 58.115c3.94 5.27 9.33 9.36 15.65 11.28 28.21 8.58 38.44 22.86 79.9-4.61.06-.03.12-.07.18-.11.07-.04.13-.08.16-.1.29-.19.59-.39.88-.59 7.39-4.97 9.92-13.59 8.19-22.92-.02-.11-.03-.19-.04-.24v-.03h-.01c-4.04-20.94-29.41-45.3-69.42-40.08-24.99 3.26-37.42 14.83-41.21 27.65l-.01.03c-3.02 10.33-.44 21.48 5.73 29.72Z" clip-rule="evenodd"/>
  <path fill="url(#b)" fill-rule="evenodd" d="M111.914 40.785s0 .01.01.03l-.01-.03Z" clip-rule="evenodd" opacity=".5"/>
  <path fill="url(#c)" fill-rule="evenodd" d="M22.644 69.396c28.49 8.67 38.64 23.14 81.13-5.42 7.39-4.97 9.92-13.59 8.19-22.92.29 1.97 1.27 14.88-21 26.68-24.18 12.81-57.12 3.4-74.7-8.25-17.57-11.65-14.85-31.52-14.85-31.52l-.13.39-.01.03c-4.98 16.96 5.16 36.07 21.37 41.01Z" clip-rule="evenodd" opacity=".5"/>
  <path fill="url(#d)" fill-rule="evenodd" d="M6.994 58.115c3.94 5.27 9.33 9.36 15.65 11.28 28.21 8.58 38.44 22.86 79.9-4.61-3.03 1.82-23.42 13.26-50.39 8.15-29.25-5.53-45.16-14.82-45.16-14.82Z" clip-rule="evenodd" opacity=".5"/>
  <path fill="url(#e)" fill-rule="evenodd" d="M91.964 19.475c14.78 19.03-2.39 51.4-50.66 35.23-40.52-13.57-23.11-46-.86-50.75 22.24-4.76 40.93 1.89 51.52 15.52Z" clip-rule="evenodd"/>
  <path fill="url(#f)" fill-rule="evenodd" d="M96.704 29.866s1.65 20.5-21.71 24.84-44.36-3.38-52.81-14.55c-8.44-11.17 2.08-26.94 2.08-26.94s-7.62 6.32-8 18.22c-.38 11.9 22.68 33.5 52.68 30.53 29.99-2.97 30.56-20.34 27.76-32.1Z" clip-rule="evenodd" opacity=".8"/>
  <path fill="#9ADD00" fill-rule="evenodd" d="M74.184 52.746c13.38-4.54-6.8-28.07-33.74-32.7-26.94-4.62-21.59 14.27-17.04 21.58 4.54 7.31 28.08 18.81 50.78 11.12Zm10.7-37.96c8.32 8.19-25.58 11.24-38.06 2.47-12.5-8.78 14.51-25.63 38.06-2.47Z" clip-rule="evenodd" opacity=".3"/>
  <path fill="url(#g)" fill-rule="evenodd" d="M42.404 4.835c7.62.6-3.11 7.41-7.63 6.49-4.53-.93-.75-7.15 7.63-6.49Z" clip-rule="evenodd" opacity=".8"/>
  <path fill="#86A500" fill-rule="evenodd" d="M44.604 7.286s-.35-2.65-6.07-1.46c-5.72 1.19-5.34 4.66-5.34 4.66s1.17 1.86 5.56.35c4.4-1.5 5.85-3.55 5.85-3.55Z" clip-rule="evenodd"/>
  <path fill="url(#h)" fill-rule="evenodd" d="M49.434 46.656c9.91-3.81-3.88-17.07-22.43-15.93-18.54 1.15 9.08 21.06 22.43 15.93Z" clip-rule="evenodd" opacity=".8"/>
  <path fill="#86A500" fill-rule="evenodd" d="M51.524 45.455s3.7-6.1-11.81-10.93c-15.7-4.9-17.96 1.92-17.66 2.85.3.92 6.17 7.14 15.26 9.12 10.88 2.37 14.21-1.04 14.21-1.04Z" clip-rule="evenodd"/>
  <path fill="#9ADD00" fill-rule="evenodd" d="M50.164 24.615c3.27 2.42.88 7.14-10.21 6.05-11.09-1.1-14.24-6.05-14.24-6.05s10.21-10.56 24.45 0Zm11.91 30.541c.82-.62-4.41-6.89-15.12-7.22-10.71-.33-20.16-3.04-20.16-3.04s13.03 11.62 35.28 10.26Z" clip-rule="evenodd" opacity=".5"/>
  <path fill="#FFDD81" fill-rule="evenodd" d="M40.464 69.475c2.27-1.75-21.74-19.89-23.91-35.3-2.17-15.41 9.17-25.34 9.17-25.34s-23.26-.46-24.3 25.34c-1.04 25.81 39.04 35.3 39.04 35.3Z" clip-rule="evenodd" opacity=".5"/>
  <path fill="#FFDD81" fill-rule="evenodd" d="M105.024 57.515c2.31-4.95-14.82 2.44-32.07 3.94s-32.81 2.06-33.13 3.89c-.32 1.83 8.44 9.59 30.75 7.5 22.31-2.09 34.45-15.33 34.45-15.33Zm-78.23 4.721c3.93.6-2.81-17.8-14.05-21.42-11.25-3.62-8.95 17.91 14.05 21.42Z" clip-rule="evenodd" opacity=".5"/>
  <path fill="#EABA13" fill-rule="evenodd" d="M54.454 10.935c2.8 2.32-3.54 2.51-5.37.84-1.83-1.68 2.69-3.06 5.37-.84Zm30.94 25c1.8 1.25-.26 5.5-5.14 4.76-4.88-.74 3.31-6.02 5.14-4.76Zm-55.6-19.759c.79.9-.97 1.11-1.78.18-.82-.91.58-1.53 1.78-.18Zm48.75 24.97c5.86 2.92-.47 7.94-6.54 3.89-6.07-4.05 3.22-5.54 6.54-3.89Z" clip-rule="evenodd"/>
  <path fill="#EDE0A9" fill-rule="evenodd" d="M34.124 60.925c2.74-1.86.77-4.95-2.75-7.58-3.52-2.64-13.51 1.69-14.57 2.82-1.05 1.13 8.35 10.86 17.32 4.76Zm-20.7-19.56c1.95-1.47.8-9.82-5.07-10.95-5.87-1.13-1.65 16.01 5.07 10.95Z" clip-rule="evenodd"/>
  <path fill="#CC81B3" fill-rule="evenodd" d="M34.924 57.065s-.11 6.4-7.71 5.23c-10.75-1.65-9.42-6.81-9.42-6.81s-1 .67-1.29 1.06c-.29.38 2.68 6 10.37 6.8 7.69.8 8.93-3.36 8.84-4.24-.07-.87-.79-2.04-.79-2.04Z" clip-rule="evenodd" opacity=".7"/>
  <path fill="#EDE0A9" fill-rule="evenodd" d="M50.784 63.486c.76 1.33-1.29 2.77-2.45 1.07-1.16-1.69 1.94-1.96 2.45-1.07Z" clip-rule="evenodd"/>
  <path fill="#CC81B3" fill-rule="evenodd" d="M50.784 63.485s.46 1.41-.99 1.44c-1.46.03-1.71-1.15-1.71-1.15s-.21 1.85 1.73 1.86c1.94.01.97-2.15.97-2.15Zm-36.93-27.63s.7 2.61-.43 4.26-3.22 1.7-5.57-1.12c-2.35-2.82-2.17-6.41-2.17-6.41s-.4 1.27 0 3.95 2.43 6.57 6.47 6.51c4.03-.05 2.19-6.44 1.7-7.19Z" clip-rule="evenodd" opacity=".7"/>
  <path fill="#EDE0A9" fill-rule="evenodd" d="M45.894 67.135c2.18-1.75.07-9.32-6.96-9.25-7.03.09-.53 15.28 6.96 9.25Z" clip-rule="evenodd"/>
  <path fill="#CC81B3" fill-rule="evenodd" d="M45.914 61.916s1.06 2.3-.13 4.06c-1.19 1.76-3.66 2.21-6.69.03-3.03-2.18-3.13-5.57-3.13-5.57s-.36 1.26.35 3.69c.71 2.43 3.45 5.66 8.22 4.84 4.76-.83 2.03-6.45 1.38-7.05Z" clip-rule="evenodd" opacity=".7"/>
  <path fill="#D36F3B" fill-rule="evenodd" d="M15.994 22.475c.04-3.87-4.44-6.79-7.64-1.68-3.19 5.11 7.58 7.3 7.64 1.68Z" clip-rule="evenodd"/>
  <path fill="#DB83A9" fill-rule="evenodd" d="M15.684 20.695s.59 3.64-2.52 4.41-5.56-1.57-5.03-3.92c0 0-.81.89-1.05 2.29-.23 1.4 2.27 3.93 6.87 3.49 4.61-.43 2.44-5.02 1.73-6.27Z" clip-rule="evenodd"/>
  <path fill="#E7792C" fill-rule="evenodd" d="M10.044 20.255c1.07 0 .93 2.13-.76 1.94-1.68-.2-.03-1.94.76-1.94Z" clip-rule="evenodd"/>
  <path fill="#D36F3B" fill-rule="evenodd" d="M106.644 40.925c.03-3.87-2.97-6.79-5.11-1.68-2.15 5.11 5.07 7.3 5.11 1.68Z" clip-rule="evenodd"/>
  <path fill="#DB83A9" fill-rule="evenodd" d="M106.434 39.145s.39 3.64-1.69 4.41-3.72-1.57-3.36-3.92c0 0-.55.89-.7 2.29-.15 1.4 1.52 3.93 4.6 3.49 3.07-.43 1.63-5.01 1.15-6.27Z" clip-rule="evenodd"/>
  <path fill="#E7792C" fill-rule="evenodd" d="M102.654 38.705c.71 0 .62 2.13-.51 1.94-1.12-.19-.02-1.94.51-1.94Z" clip-rule="evenodd"/>
  <path fill="#B0FF00" fill-rule="evenodd" d="M68.894 21.516c1.45 1.03-.59 1.68-1.99 1.12-1.4-.57.56-2.13 1.99-1.12Zm.35-2.88c.63.17-.24.87-.87.59-.63-.27-.15-.86.87-.59Zm13.49 4.669c1.07.98-1.84 2.52-3.97 1.37-2.14-1.14 2.52-2.7 3.97-1.37Zm-18.16 6.41c.32 1.29-.79 1.55-1.56.5s1.41-1.13 1.56-.5Zm-7.5-.779c.32 1.29-.79 1.55-1.56.5-.76-1.05 1.41-1.13 1.56-.5Zm10.04-5.58c1.26 1.48-1.92 1.94-2.8.58-.88-1.36 1.78-1.77 2.8-.58Zm-2.03 22.859c1.26 1.48-1.92 1.94-2.8.58-.87-1.36 1.78-1.77 2.8-.58Zm-4.23-39.929c1.4.6-1.71 3.96-3.25 3.01-1.55-.95.17-4.34 3.25-3.01Zm2.89 2.74c.8.23.28 1.36-.89 1.16-1.17-.2-1.15-1.76.89-1.16Z" clip-rule="evenodd"/>
  <path fill="#B0FF00" fill-rule="evenodd" d="M69.414 23.416c.8.23.28 1.36-.89 1.16-1.16-.19-1.14-1.76.89-1.16Z" clip-rule="evenodd"/>
  <defs>
    <linearGradient id="a" x1="56.245" x2="56.245" y1="80.839" y2="-.009" gradientUnits="userSpaceOnUse">
      <stop stop-color="#63902F"/>
      <stop offset=".417" stop-color="#84B017"/>
      <stop offset=".769" stop-color="#99C508"/>
      <stop offset="1" stop-color="#A1CC02"/>
    </linearGradient>
    <linearGradient id="b" x1="111.92" x2="111.92" y1="40.816" y2="40.789" gradientUnits="userSpaceOnUse">
      <stop stop-color="#BA5270"/>
      <stop offset=".124" stop-color="#C56D76"/>
      <stop offset=".428" stop-color="#DEAB83"/>
      <stop offset=".686" stop-color="#F0D98D"/>
      <stop offset=".885" stop-color="#FBF593"/>
      <stop offset="1" stop-color="#FFFF95"/>
    </linearGradient>
    <linearGradient id="c" x1="56.244" x2="56.244" y1="80.841" y2="27.963" gradientUnits="userSpaceOnUse">
      <stop stop-color="#BA5270"/>
      <stop offset=".124" stop-color="#C56D76"/>
      <stop offset=".428" stop-color="#DEAB83"/>
      <stop offset=".686" stop-color="#F0D98D"/>
      <stop offset=".885" stop-color="#FBF593"/>
      <stop offset="1" stop-color="#FFFF95"/>
    </linearGradient>
    <linearGradient id="d" x1="54.767" x2="54.767" y1="80.839" y2="58.116" gradientUnits="userSpaceOnUse">
      <stop stop-color="#BA5270"/>
      <stop offset=".124" stop-color="#C56D76"/>
      <stop offset=".428" stop-color="#DEAB83"/>
      <stop offset=".686" stop-color="#F0D98D"/>
      <stop offset=".885" stop-color="#FBF593"/>
      <stop offset="1" stop-color="#FFFF95"/>
    </linearGradient>
    <linearGradient id="e" x1="57.022" x2="57.022" y1="59.089" y2="2.421" gradientUnits="userSpaceOnUse">
      <stop stop-color="#63902F"/>
      <stop offset=".417" stop-color="#84B017"/>
      <stop offset=".769" stop-color="#99C508"/>
      <stop offset="1" stop-color="#A1CC02"/>
    </linearGradient>
    <linearGradient id="f" x1="57.022" x2="57.022" y1="62.236" y2="13.213" gradientUnits="userSpaceOnUse">
      <stop stop-color="#8E765E"/>
      <stop offset=".09" stop-color="#938168"/>
      <stop offset=".499" stop-color="#A8AE92"/>
      <stop offset=".816" stop-color="#B5CAAC"/>
      <stop offset="1" stop-color="#BAD4B6"/>
    </linearGradient>
    <linearGradient id="g" x1="45.049" x2="32.842" y1="8.123" y2="8.07" gradientUnits="userSpaceOnUse">
      <stop stop-color="#8E765E"/>
      <stop offset=".09" stop-color="#938168"/>
      <stop offset=".499" stop-color="#A8AE92"/>
      <stop offset=".816" stop-color="#B5CAAC"/>
      <stop offset="1" stop-color="#BAD4B6"/>
    </linearGradient>
    <linearGradient id="h" x1="52.994" x2="20.418" y1="41.126" y2="36.858" gradientUnits="userSpaceOnUse">
      <stop stop-color="#8E765E"/>
      <stop offset=".09" stop-color="#938168"/>
      <stop offset=".499" stop-color="#A8AE92"/>
      <stop offset=".816" stop-color="#B5CAAC"/>
      <stop offset="1" stop-color="#BAD4B6"/>
    </linearGradient>
  </defs>
</svg>
