<svg xmlns="http://www.w3.org/2000/svg" width="84" height="60" fill="none" viewBox="0 0 84 60">
  <path fill="url(#a)" fill-rule="evenodd" d="M.172 29.65c.01.15.04.31.07.47.04.21.07.43.11.63.01.01.01.03.01.05.96 5.4 2.76 9.97 5.19 13.75v.01c8.34 13.01 24.01 16.8 37.98 13.88 3.34-.7 6.08-1.17 8.43-1.56 10.49-1.74 13.09-1.78 24.51-12.28 4.24-3.9 6.53-8.47 7.2-13.14.03-.18.05-.36.07-.54 1.27-10.57-5.55-21.57-16.29-26.59C42.782-7.23-3.158 5.42.172 29.65Z" clip-rule="evenodd"/>
  <path fill="url(#b)" fill-rule="evenodd" d="M.362 30.79c4.25 23.98 25.13 31.41 43.17 27.63 18.19-3.81 18.96-.98 32.95-13.84 4.24-3.9 6.53-8.47 7.2-13.14-1.73 11.23-20.69 23.69-43.54 23.69-29.26 0-38.21-18.7-39.78-24.34Z" clip-rule="evenodd" opacity=".5"/>
  <path fill="url(#c)" fill-rule="evenodd" d="M5.552 44.55c8.34 13.01 24.01 16.8 37.98 13.88 3.34-.7 6.08-1.17 8.43-1.56v-.01s-11.92.26-25.3-2.71c-13.39-2.98-21.11-9.6-21.11-9.6Z" clip-rule="evenodd" opacity=".5"/>
  <path fill="url(#d)" fill-rule="evenodd" d="M56.892 48.34c1.53-1.33-.49-11.5-11.71-10.39-11.22 1.11-11.24 9.05-10.61 10.38.64 1.32 13.76 7.47 22.32.01Z" clip-rule="evenodd"/>
  <path fill="url(#e)" fill-rule="evenodd" d="M57.181 45.41c.02 2.41-1.62 3.12-2.4 3.47-.77.35 2.23-8.41-8.93-8.17-11.17.25-11.49 6.27-11.49 6.27s-.35-9.03 11.41-9.04c11.76-.01 11.41 7.47 11.41 7.47Z" clip-rule="evenodd" opacity=".2"/>
  <path fill="#FFDD5E" fill-rule="evenodd" d="M55.882 49.14s-3.66 2.13-10.11 2.13c-6.45 0-9.4-1.38-9.4-1.38s10.97 5.6 19.51-.75Z" clip-rule="evenodd" opacity=".7"/>
  <path fill="url(#f)" fill-rule="evenodd" d="M23.412 44.23c6.18-2.61 8.58-6.28 7.13-9.49-1.45-3.2-12.95.1-14.06 5.51-1.11 5.41 4.87 4.86 6.93 3.98Z" clip-rule="evenodd"/>
  <path fill="url(#g)" fill-rule="evenodd" d="M30.892 37.33c-.35-2.58-9.89-1.05-12.63 1.81-2.74 2.87-1.33 4.33-1.33 4.33s-2.87-3.43 2.9-7.46c5.77-4.03 12.13-3.32 11.06 1.32Z" clip-rule="evenodd" opacity=".2"/>
  <path fill="#FFDD5E" fill-rule="evenodd" d="M29.642 39.96s-5.23 4.07-8.72 4.47c-3.49.4-4.37-1.61-4.37-1.61s.48 2.48 4.6 2.18c4.14-.3 7.75-3.91 8.49-5.04Z" clip-rule="evenodd" opacity=".7"/>
  <path fill="#FFDD5E" fill-rule="evenodd" d="M68.292 9.94c9.29 11.46-19.32 24.73-34.59 22.27-15.27-2.46-19.18 2.06-25.76 2.49-6.58.43-11.22-20.88 14.35-28.56 25.58-7.68 43.53.76 46 3.8Z" clip-rule="evenodd" opacity=".5"/>
  <path fill="#FFDD4A" fill-rule="evenodd" d="M69.162 45.08c8.2-.55 14.9-12.46 10.76-19.44-4.14-6.99-25.8 5.92-27.46 8.63-1.65 2.7 9.39 11.3 16.7 10.81Z" clip-rule="evenodd" opacity=".3"/>
  <path fill="#FFDD5E" fill-rule="evenodd" d="M36.371 54.12c1.51-.03-.6-5-11.09-5.92-10.49-.92-5.53 6.23 11.09 5.92ZM55.882 4.65c11.05 2.11-15.93 26.01-41.96 23.88-26.04-2.13-3.94-32.64 41.96-23.88Z" clip-rule="evenodd" opacity=".5"/>
  <path fill="#EDE0A9" fill-rule="evenodd" d="M71.652 42.93c-.11-3.37-4.35-5.38-9.38-4.18-5.04 1.2-2.07 9.06.76 9.37 2.82.3 8.75-1.07 8.62-5.19Zm-42.01 1.62c3.79 3.79-3.07 6.15-5.99 3.61-2.92-2.54 2.69-6.91 5.99-3.61Zm-7.44 5.95c1.33-1.64-.92-3.93-2.8-2.63-1.88 1.3 1.96 3.67 2.8 2.63Zm50.96-24.79c3.16 6.16-13.57 8.25-14.74 2.29-1.17-5.95 11.06-9.47 14.74-2.29Z" clip-rule="evenodd"/>
  <path fill="#CC81B3" fill-rule="evenodd" d="M73.162 25.71c.69 4.05-5.84 5.42-10.95 4.54-5.11-.88-3.57-4.54-3.57-4.54s-1.35 2.25.12 4.31c1.47 2.06 6.49 3.19 11.34 1.52 4.86-1.67 3.06-5.83 3.06-5.83Zm-1.51 16.99s.32 2.67-4.51 3.78c-4.83 1.11-6.47-.02-7.56-3.39 0 0-.16 4.5 2.36 5.8 2.52 1.31 9.94-.58 9.71-6.19Zm-41.06 3.19s.25 2.28-2.96 2.82-4.53-1.39-4.79-2.67c0 0-1.04 3.3 3.69 3.98 4.72.7 4.8-3.01 4.06-4.13Z" clip-rule="evenodd" opacity=".7"/>
  <path fill="#EDE0A9" fill-rule="evenodd" d="M77.012 33.58c3.79 3.79-3.07 6.15-5.99 3.61-2.92-2.54 2.69-6.91 5.99-3.61Z" clip-rule="evenodd"/>
  <path fill="#CC81B3" fill-rule="evenodd" d="M77.951 34.92s.25 2.28-2.96 2.82-4.53-1.39-4.79-2.67c0 0-1.04 3.3 3.69 3.98 4.73.69 4.81-3.01 4.06-4.13Z" clip-rule="evenodd" opacity=".7"/>
  <path fill="#EDE0A9" fill-rule="evenodd" d="M81.492 29.34c2.15 2.15-1.74 3.48-3.39 2.04-1.66-1.44 1.52-3.91 3.39-2.04Z" clip-rule="evenodd"/>
  <path fill="#CC81B3" fill-rule="evenodd" d="M82.022 30.09s-.02.89-1.84 1.2c-1.82.31-2.4-.38-2.55-1.11 0 0-.59 1.87 2.09 2.26 2.68.39 2.73-1.71 2.3-2.35Zm-59.51 18.78s.52 1.13-.87 1.41c-1.39.28-2.59-.86-2.54-2.14 0 0-.37.18-.4 1.09-.03.91 1.46 1.75 2.94 1.89 1.49.13 1.11-1.54.87-2.25Z" clip-rule="evenodd" opacity=".7"/>
  <path fill="#EDE0A9" fill-rule="evenodd" d="M10.342 39.06c1.33-1.64-.92-3.93-2.8-2.63-1.89 1.3 1.95 3.67 2.8 2.63Z" clip-rule="evenodd"/>
  <path fill="#CC81B3" fill-rule="evenodd" d="M10.642 37.43s.52 1.13-.87 1.41c-1.39.28-2.59-.86-2.54-2.14 0 0-.37.18-.4 1.09-.03.91 1.46 1.75 2.94 1.89 1.5.13 1.11-1.54.87-2.25Z" clip-rule="evenodd" opacity=".7"/>
  <path fill="url(#h)" fill-rule="evenodd" d="M65.031 5.08c7.33 10.59-3.47 20.77-20.61 22.97-17.14 2.2-13.04-10.3-12.13-11.48.91-1.18-5.63.77-7.11 3.29-1.05 1.78 5.36-.67 4.79 3.97-.57 4.64-20.97 10.05-27.15 3.76C-3.358 21.3 7.172 9.31 30.762 3c19.15-5.12 32.79-.06 34.27 2.08Z" clip-rule="evenodd"/>
  <path fill="url(#i)" fill-rule="evenodd" d="M66.742 7.91s1.53 9.77-10.4 14.95c-11.92 5.19-19.49 5.29-22.91 1.24-3.42-4.05-.07-7.81-.48-8.83-.41-1.03-10.4 3.56-11.35 4.79-.96 1.23 5.2-.54 7.15 1.64 1.95 2.19-10.21 7.82-18.01 7.33-7.81-.49-9.52-4.31-9.52-4.31s-1.3 6.36 11.84 6.57c13.13.2 16.41-6.48 17.57-6.86 1.15-.38 2.49 6.39 12.43 4.6 9.93-1.79 28.61-6.4 23.68-21.12Z" clip-rule="evenodd" opacity=".8"/>
  <path fill="#9ADD00" fill-rule="evenodd" d="M55.882 21.7c13.64-9.78.87-15.65-15.18-9.6-16.05 6.06-6.83 21.57 15.18 9.6Zm-28.421-.67c2.94 2.13-8.66 8.61-18.06 7.63-9.4-.98-9.16-8.39-2.39-12.79 6.77-4.41 11.78 3.53 13.42 4.53 1.64 1 5.55-.44 7.03.63Zm28.73-18.59c3.22.55-12.43 9.12-23.59 11.03-11.16 1.91-18.54-2.1-18.54-2.1s13.68-13.77 42.13-8.93Z" clip-rule="evenodd" opacity=".3"/>
  <path fill="url(#j)" fill-rule="evenodd" d="M53.862 18.32c.91-4.1-14.64-5.92-18.12 2.33-3.47 8.24 16.35 5.66 18.12-2.33Z" clip-rule="evenodd" opacity=".8"/>
  <path fill="#FFB04B" fill-rule="evenodd" d="M53.681 18.95c.81-3.69-13.85-3.19-16.76 1.81-2.9 4.99 3.65 5.37 8.79 4.22 5.14-1.16 7.75-5.03 7.97-6.03Z" clip-rule="evenodd"/>
  <path fill="#DB83A9" fill-rule="evenodd" d="M57.122 9.44c3.52.24 10.76 3.64 1.46 4.19-6.89.4-9.68-1.3-10.48-2.53-.91-1.38 4.56-1.96 9.02-1.66Z" clip-rule="evenodd"/>
  <path fill="url(#k)" fill-rule="evenodd" d="M55.462 13.05c4.06.32 7.24-5.71 5.04-8.47-2.54-3.19-12.78-2.28-14.12.38-1.08 2.13 1.8 7.22 4.59 7.83 2.88.61 4.49.26 4.49.26Z" clip-rule="evenodd"/>
  <path fill="#DB83A9" fill-rule="evenodd" d="M60.932 7.26c-.01 2.6-6.71 4.43-10.32 3.05-3.69-1.41-3.98-4.18-3.32-5.35.73-1.32 13.66-4.24 13.64 2.3Z" clip-rule="evenodd"/>
  <path fill="#FFA7FF" fill-rule="evenodd" d="M60.502 4.58c.19 1.46-5.54 3.6-8.5 3.7-2.71.1-5.85-2.13-5.74-3.02.11-.96 1.39-2.14 5.77-2.56 5.02-.48 8.4 1.38 8.47 1.88Z" clip-rule="evenodd"/>
  <path fill="#FFA7FF" fill-rule="evenodd" d="M57.482 12.56c-1.16.65-3.68.6-4.22.34-.55-.27-1.14-3.99-.78-4.33.38-.36 6.74-2.37 7.57-2.79.87-.44 1.58 3.88-2.57 6.78Z" clip-rule="evenodd"/>
  <path fill="#DB83A9" fill-rule="evenodd" d="M52.532 12.81c.4.07-.45-3.37-.87-3.86-.43-.5-3.18-1.03-5.07-2.48 0 0 .43 3.37 2.31 4.94 1.71 1.44 3.63 1.4 3.63 1.4Z" clip-rule="evenodd"/>
  <path fill="ivory" fill-rule="evenodd" d="M53.902 8.03c.16-.02-1.55 1.82-1.71 1.77-.16-.06-2.45-1.84-2.45-1.84s2.58.22 4.16.07Zm5.91-2.4s-1.11 1.07-3 1.73c-1.72.6-2.85.7-2.85.7s2.6-1.01 5.85-2.43Z" clip-rule="evenodd"/>
  <path fill="#DB83A9" fill-rule="evenodd" d="M49.342 11.14c1.83.57.85 4.32-5.38 4.01-5.78-.29-2.65-6.53 5.38-4.01Z" clip-rule="evenodd"/>
  <path fill="url(#l)" fill-rule="evenodd" d="M48.552 11.73c.51-1.05-2.52-4.55-5.58-3.72-3.06.83-4.06 3.2-2.46 5.19 1.61 1.99 6.38 1.93 8.04-1.47Z" clip-rule="evenodd"/>
  <path fill="#DB83A9" fill-rule="evenodd" d="M47.742 10.61c.28.84-3.55 3.2-6.51 1.72-2.96-1.47 1.2-4.05 2.72-4.1 1.52-.04 3.45 1.33 3.79 2.38Z" clip-rule="evenodd"/>
  <path fill="#FFA7FF" fill-rule="evenodd" d="M47.632 9.6c.37.71-1.68 2.13-4.21 2.3-2.53.17-3.32-1.07-3.37-1.44-.05-.37.71-2.52 3.82-2.51 1.52 0 3.28.73 3.76 1.65Z" clip-rule="evenodd"/>
  <path fill="#FFA7FF" fill-rule="evenodd" d="M45.032 14.3c.25.13 2.3-1.11 2.94-1.93.64-.83.16-1.98-.07-1.96-.23.02-2.17 1.31-3.71 1.66-.01-.01-.47 1.56.84 2.23Z" clip-rule="evenodd"/>
  <path fill="#DB83A9" fill-rule="evenodd" d="M44.182 14.39c.29-.04-.38-2-.62-2.14-.24-.14-2.68-.21-3.67-1.48.01 0-.67 3.31 4.29 3.62Z" clip-rule="evenodd"/>
  <path fill="ivory" fill-rule="evenodd" d="M44.652 11.78s-.37.7-.63.79c-.26.09-1.58-.59-1.58-.59s.93.06 2.21-.2Zm-2.56.14s-.96-.41-1.34-.65c-.38-.24-.6-.47-.6-.47s.35 1.1 1.94 1.12Z" clip-rule="evenodd"/>
  <path fill="#DB83A9" fill-rule="evenodd" d="M19.502 20.41c.98.75-1.2 3.42-5.22 2.12-3.73-1.21.91-5.42 5.22-2.12Z" clip-rule="evenodd"/>
  <path fill="url(#m)" fill-rule="evenodd" d="M18.732 20.72c.77-.71.19-3.89-2.19-3.78-2.38.11-4.01 1.73-3.76 3.52.25 1.78 3.46 2.56 5.95.26Z" clip-rule="evenodd"/>
  <path fill="#DB83A9" fill-rule="evenodd" d="M18.652 19.73c-.16.69-3.67 1.82-5.04.19-1.36-1.63 2.46-2.87 3.49-2.65 1.04.23 1.75 1.61 1.55 2.46Z" clip-rule="evenodd"/>
  <path fill="#FFA7FF" fill-rule="evenodd" d="M18.992 18.94c-.04.6-1.99 1.33-3.75 1.02-1.75-.3-1.77-1.39-1.65-1.68.12-.29 1.5-1.79 3.57-1.25 1.02.27 1.89 1.13 1.83 1.91Z" clip-rule="evenodd"/>
  <path fill="#FFA7FF" fill-rule="evenodd" d="M15.332 22.07c.11.14 1.99-.45 2.75-.97s.92-1.48.76-1.5c-.16-.03-1.98.62-3.15.62 0 0-.95 1.11-.36 1.85Z" clip-rule="evenodd"/>
  <path fill="#DB83A9" fill-rule="evenodd" d="M14.742 21.99c.21.02.57-1.59.47-1.73-.11-.15-1.7-.62-1.84-1.75 0-.01-1.81 2.39 1.37 3.48Z" clip-rule="evenodd"/>
  <path fill="ivory" fill-rule="evenodd" d="M16.112 20.09s-.54.47-.75.49c-.21.02-.81-.72-.81-.72s.61.21 1.56.23Zm-1.75-.34s-.47-.47-.63-.72c-.16-.25-.2-.46-.2-.46s-.23.9.83 1.18Z" clip-rule="evenodd"/>
  <defs>
    <linearGradient id="a" x1="41.952" x2="41.952" y1="59.359" y2="-.004" gradientUnits="userSpaceOnUse">
      <stop stop-color="#63902F"/>
      <stop offset=".417" stop-color="#84B017"/>
      <stop offset=".769" stop-color="#99C508"/>
      <stop offset="1" stop-color="#A1CC02"/>
    </linearGradient>
    <linearGradient id="b" x1="42.02" x2="42.02" y1="59.359" y2="30.794" gradientUnits="userSpaceOnUse">
      <stop stop-color="#BA5270"/>
      <stop offset=".124" stop-color="#C56D76"/>
      <stop offset=".428" stop-color="#DEAB83"/>
      <stop offset=".686" stop-color="#F0D98D"/>
      <stop offset=".885" stop-color="#FBF593"/>
      <stop offset="1" stop-color="#FFFF95"/>
    </linearGradient>
    <linearGradient id="c" x1="28.754" x2="28.754" y1="59.358" y2="44.55" gradientUnits="userSpaceOnUse">
      <stop stop-color="#BA5270"/>
      <stop offset=".124" stop-color="#C56D76"/>
      <stop offset=".428" stop-color="#DEAB83"/>
      <stop offset=".686" stop-color="#F0D98D"/>
      <stop offset=".885" stop-color="#FBF593"/>
      <stop offset="1" stop-color="#FFFF95"/>
    </linearGradient>
    <linearGradient id="d" x1="45.852" x2="45.852" y1="51.964" y2="37.864" gradientUnits="userSpaceOnUse">
      <stop stop-color="#FFB447"/>
      <stop offset=".41" stop-color="#FCAA47"/>
      <stop offset="1" stop-color="#F59346"/>
    </linearGradient>
    <linearGradient id="e" x1="45.771" x2="45.771" y1="48.894" y2="37.945" gradientUnits="userSpaceOnUse">
      <stop stop-color="#FFFF95"/>
      <stop offset=".115" stop-color="#FBF593"/>
      <stop offset=".314" stop-color="#F0D98D"/>
      <stop offset=".572" stop-color="#DEAB83"/>
      <stop offset=".876" stop-color="#C56D76"/>
      <stop offset="1" stop-color="#BA5270"/>
    </linearGradient>
    <linearGradient id="f" x1="23.652" x2="23.652" y1="44.793" y2="33.489" gradientUnits="userSpaceOnUse">
      <stop stop-color="#FFB447"/>
      <stop offset=".41" stop-color="#FCAA47"/>
      <stop offset="1" stop-color="#F59346"/>
    </linearGradient>
    <linearGradient id="g" x1="23.619" x2="23.619" y1="43.469" y2="33.374" gradientUnits="userSpaceOnUse">
      <stop stop-color="#FFFF95"/>
      <stop offset=".115" stop-color="#FBF593"/>
      <stop offset=".314" stop-color="#F0D98D"/>
      <stop offset=".572" stop-color="#DEAB83"/>
      <stop offset=".876" stop-color="#C56D76"/>
      <stop offset="1" stop-color="#BA5270"/>
    </linearGradient>
    <linearGradient id="h" x1="34.225" x2="34.225" y1="30.439" y2=".78" gradientUnits="userSpaceOnUse">
      <stop stop-color="#63902F"/>
      <stop offset=".417" stop-color="#84B017"/>
      <stop offset=".769" stop-color="#99C508"/>
      <stop offset="1" stop-color="#A1CC02"/>
    </linearGradient>
    <linearGradient id="i" x1="34.37" x2="34.37" y1="31.296" y2="7.907" gradientUnits="userSpaceOnUse">
      <stop stop-color="#8E765E"/>
      <stop offset=".09" stop-color="#938168"/>
      <stop offset=".499" stop-color="#A8AE92"/>
      <stop offset=".816" stop-color="#B5CAAC"/>
      <stop offset="1" stop-color="#BAD4B6"/>
    </linearGradient>
    <linearGradient id="j" x1="53.898" x2="35.338" y1="20.282" y2="20.282" gradientUnits="userSpaceOnUse">
      <stop stop-color="#8E765E"/>
      <stop offset=".09" stop-color="#938168"/>
      <stop offset=".499" stop-color="#A8AE92"/>
      <stop offset=".816" stop-color="#B5CAAC"/>
      <stop offset="1" stop-color="#BAD4B6"/>
    </linearGradient>
    <linearGradient id="k" x1="49.877" x2="57.277" y1="12.586" y2="-1.244" gradientUnits="userSpaceOnUse">
      <stop stop-color="#FF9572"/>
      <stop offset=".017" stop-color="#FF9271"/>
      <stop offset=".359" stop-color="#FF5465"/>
      <stop offset=".648" stop-color="#FF265C"/>
      <stop offset=".871" stop-color="#FF0A56"/>
      <stop offset="1" stop-color="#FF0054"/>
    </linearGradient>
    <linearGradient id="l" x1="43.701" x2="44.918" y1="14.689" y2="6.13" gradientUnits="userSpaceOnUse">
      <stop stop-color="#FF9572"/>
      <stop offset=".017" stop-color="#FF9271"/>
      <stop offset=".359" stop-color="#FF5465"/>
      <stop offset=".648" stop-color="#FF265C"/>
      <stop offset=".871" stop-color="#FF0A56"/>
      <stop offset="1" stop-color="#FF0054"/>
    </linearGradient>
    <linearGradient id="m" x1="14.294" x2="17.439" y1="22.135" y2="15.306" gradientUnits="userSpaceOnUse">
      <stop stop-color="#FF9572"/>
      <stop offset=".017" stop-color="#FF9271"/>
      <stop offset=".359" stop-color="#FF5465"/>
      <stop offset=".648" stop-color="#FF265C"/>
      <stop offset=".871" stop-color="#FF0A56"/>
      <stop offset="1" stop-color="#FF0054"/>
    </linearGradient>
  </defs>
</svg>
