<svg xmlns="http://www.w3.org/2000/svg" width="99" height="67" fill="none" viewBox="0 0 99 67">
  <path fill="url(#a)" fill-rule="evenodd" d="M60.318 66.224c19.42-2.72 41.89-15.91 37.94-40.82-.02-.15-.04-.28-.05-.39-.02-.14-.04-.25-.06-.32l-.02-.1c-.13-.69-.26-1.38-.43-2.09-6.25-26.79-61.4-27.6-86.97-13.22-6.35 3.57-9.79 9.34-10.56 15.89-2.34 19.82 19.85 46.7 60.15 41.05Z" clip-rule="evenodd"/>
  <path fill="#EDE0A9" fill-rule="evenodd" d="M34.268 56.154c2.03-1.65-.49-7.8-7.38-7.13-6.9.68.38 12.82 7.38 7.13Z" clip-rule="evenodd"/>
  <path fill="#CC81B3" fill-rule="evenodd" d="M33.978 51.784s1.18 1.83.11 3.4c-1.07 1.57-3.46 2.17-6.56.6-3.1-1.56-3.41-4.38-3.41-4.38s-.28 1.09.56 3.06c.84 1.97 3.73 4.44 8.36 3.33 4.63-1.1 1.61-5.56.94-6.01Z" clip-rule="evenodd"/>
  <path fill="url(#b)" fill-rule="evenodd" d="m98.148 24.694.06.32c-.03-.13-.05-.25-.06-.32Z" clip-rule="evenodd" opacity=".5"/>
  <path fill="url(#c)" fill-rule="evenodd" d="M98.118 24.594s.01.04.02.11l-.02-.11Z" clip-rule="evenodd" opacity=".5"/>
  <path fill="url(#d)" fill-rule="evenodd" d="M98.198 25.023c.02.13.03.26.05.39-.01-.15-.03-.29-.05-.39Z" clip-rule="evenodd" opacity=".5"/>
  <path fill="url(#e)" fill-rule="evenodd" d="M60.318 66.224c19.42-2.72 41.89-15.91 37.94-40.82.51 4.08 1.17 22.38-26.03 32.1-30.72 10.97-71.96.44-72.06-32.32-2.34 19.81 19.85 46.69 60.15 41.04Z" clip-rule="evenodd" opacity=".5"/>
  <path fill="url(#f)" fill-rule="evenodd" d="M7.538 16.674c.2-13.47 47.92-24.14 74.21-7.07 26.29 17.07-8.17 40.37-36.89 40.24-28.72-.12-37.42-26.07-37.32-33.17Z" clip-rule="evenodd"/>
  <path fill="url(#g)" fill-rule="evenodd" d="M89.458 17.154s2.79 18.72-26.68 28.01c-29.47 9.29-52.13-9.8-55.18-27.26 0 0-.25 23.76 28.69 32.68 28.94 8.93 66.17-19.23 53.17-33.43Z" clip-rule="evenodd" opacity=".8"/>
  <path fill="#9ADD00" fill-rule="evenodd" d="M69.748 39.674c12.29-6.35-10.01-30.01-40.64-22.82-30.63 7.2 1.08 43.25 40.64 22.82Z" clip-rule="evenodd" opacity=".3"/>
  <path fill="#FFDD81" fill-rule="evenodd" d="M67.588 57.924c5.36-1.61-24.92-3.19-37.36-8.28-12.45-5.09-19.13-16.91-21.39-17.98-2.26-1.07-6.48 11.43 8.89 21.87 15.37 10.46 37.73 8.04 49.86 4.39Z" clip-rule="evenodd" opacity=".5"/>
  <path fill="#FFDD81" fill-rule="evenodd" d="M96.348 26.754c1.85-1.73-3.32 20.27-15.36 25.5-12.04 5.24-19.85 1.95-21.4 1.69-1.55-.26 16.23-4.2 36.76-27.19Z" clip-rule="evenodd" opacity=".5"/>
  <path fill="#D36F3B" fill-rule="evenodd" d="M9.958 28.654c-.19-3.24-4.76-5.3-7.6-.75-2.84 4.56 7.87 5.46 7.6.75Z" clip-rule="evenodd"/>
  <path fill="#DB83A9" fill-rule="evenodd" d="M9.548 27.194s.79 3-2.21 3.91c-3.01.91-5.55-.83-5.17-2.84 0 0-.75.82-.89 2.01s2.46 3.09 6.95 2.32c4.49-.76 2.09-4.41 1.32-5.4Z" clip-rule="evenodd"/>
  <path fill="#E7792C" fill-rule="evenodd" d="M3.978 27.314c1.05-.09 1.04 1.7-.63 1.69-1.66-.02-.14-1.62.63-1.69Z" clip-rule="evenodd"/>
  <path fill="#EDE0A9" fill-rule="evenodd" d="M79.448 52.834c.48-1.7.1-6.55-2.63-8.37-2.72-1.81-8.67 1.53-11.54 5.77-2.87 4.24-.71 6.18 4.47 6.18 5.19.01 9.33-2.26 9.7-3.58Zm-59.19-5.46c1.34 1.25 1.22 3.14-1.22 3.91s-4.66-1.69-4.92-2.62c-.25-.93 5.27-2.1 6.14-1.29Z" clip-rule="evenodd"/>
  <path fill="#CC81B3" fill-rule="evenodd" d="M78.818 47.063s1.04 5.22-2.48 7.15c-3.52 1.94-8.46 1.89-10.47 1.2s-1.82-2.45-1.82-2.45-.4 1.33.58 2.98c.99 1.65 11.3 1.29 14.22-1.01 2.91-2.3-.03-7.87-.03-7.87Z" clip-rule="evenodd" opacity=".7"/>
  <path fill="#CC81B3" fill-rule="evenodd" d="M20.598 47.734s.66 1.16-.18 2.18c-.83 1.02-3.16 1.32-4.76.19-1.6-1.13-1.48-1.68-1.48-1.68s-.09.19-.09.48 1.39 2.71 4.27 2.79c2.88.08 3.7-2.34 2.24-3.96Z" clip-rule="evenodd"/>
  <path fill="#EDE0A9" fill-rule="evenodd" d="M85.608 42.904c2 1.54 1.45 4.77-1.92 6.03-2.33.87-3.98-1.61-4.17-2.54-.19-.95 4.95-4.37 6.09-3.49Z" clip-rule="evenodd"/>
  <path fill="#CC81B3" fill-rule="evenodd" d="M86.068 43.353s.88 1.7-.54 3.55c-1.19 1.54-3.61 1.99-4.91.82-1.13-1.02-1.07-1.61-1.07-1.61s-.06.21-.05.51c.01.3.99 2.68 3.44 2.8 3.54.18 5.36-3.84 3.13-6.07Z" clip-rule="evenodd" opacity=".7"/>
  <path fill="url(#h)" fill-rule="evenodd" d="M54.708 43.404c8.95-5.38-6.41-13.12-24.1-7.96-17.69 5.16 12.04 15.21 24.1 7.96Z" clip-rule="evenodd" opacity=".8"/>
  <path fill="url(#i)" fill-rule="evenodd" d="M22.118 6.934c9.83-.23-3.37 8.72-9.25 8.22-5.89-.51-1.56-7.96 9.25-8.22Z" clip-rule="evenodd" opacity=".8"/>
  <path fill="#86A500" fill-rule="evenodd" d="M56.538 41.944s2.61-5.84-13.08-6.28c-15.89-.44-17 5.67-16.57 6.36.44.69 7.06 4.45 16.12 4.01 10.86-.53 13.53-4.09 13.53-4.09Zm-31.38-32.51s-.67-2.94-7.91-.91c-7.24 2.02-6.47 5.88-6.47 5.88s1.66 1.95 7.17-.27c5.52-2.22 7.21-4.7 7.21-4.7Z" clip-rule="evenodd"/>
  <path fill="#A1B3D4" fill-rule="evenodd" d="M35.158 16.934c.4.12.68.18.8.21-.12-.05-.41-.12-.8-.21Z" clip-rule="evenodd"/>
  <path fill="#EABA13" fill-rule="evenodd" d="M82.238 30.154c3.26.25-2.17 3.69-4.36 3.41-2.18-.29 1.24-3.66 4.36-3.41Zm11.5 3.27c1.78 1.05-.26 4.62-5.07 3.99-4.8-.62 3.27-5.05 5.07-3.99Zm-80.94-15.36c3.07 1.3-.35 1.7-1.68 1.12-1.34-.58.94-1.43 1.68-1.12Zm-1.38 19.831c.78.75-.95.93-1.76.15-.79-.77.59-1.28 1.76-.15Z" clip-rule="evenodd"/>
  <path fill="#B0FF00" fill-rule="evenodd" d="M29.488 28.164c1.29.77-.53 1.27-1.77.84-1.24-.43.49-1.61 1.77-.84Zm.31-2.181c.56.13-.22.66-.78.45-.56-.21-.12-.66.78-.45Zm11.96 3.53c.95.74-1.63 1.9-3.53 1.04-1.89-.87 2.25-2.05 3.53-1.04Zm-16.11 4.841c.28.97-.7 1.17-1.38.38-.68-.8 1.25-.86 1.38-.38Zm2.25-4.811c1.12 1.12-1.71 1.47-2.48.44s1.58-1.34 2.48-.44Zm-5.55-12.889c1.24.46-1.52 2.99-2.89 2.27-1.36-.72.16-3.28 2.89-2.27Zm2.57 2.069c.71.18.24 1.03-.79.88-1.04-.15-1.02-1.34.79-.88Z" clip-rule="evenodd"/>
  <defs>
    <linearGradient id="a" x1="55.816" x2="44.339" y1="67.018" y2="-.205" gradientUnits="userSpaceOnUse">
      <stop stop-color="#63902F"/>
      <stop offset=".417" stop-color="#84B017"/>
      <stop offset=".769" stop-color="#99C508"/>
      <stop offset="1" stop-color="#A1CC02"/>
    </linearGradient>
    <linearGradient id="b" x1="98.202" x2="98.147" y1="25.02" y2="24.698" gradientUnits="userSpaceOnUse">
      <stop stop-color="#BA5270"/>
      <stop offset=".124" stop-color="#C56D76"/>
      <stop offset=".428" stop-color="#DEAB83"/>
      <stop offset=".686" stop-color="#F0D98D"/>
      <stop offset=".885" stop-color="#FBF593"/>
      <stop offset="1" stop-color="#FFFF95"/>
    </linearGradient>
    <linearGradient id="c" x1="98.144" x2="98.125" y1="24.697" y2="24.59" gradientUnits="userSpaceOnUse">
      <stop stop-color="#BA5270"/>
      <stop offset=".124" stop-color="#C56D76"/>
      <stop offset=".428" stop-color="#DEAB83"/>
      <stop offset=".686" stop-color="#F0D98D"/>
      <stop offset=".885" stop-color="#FBF593"/>
      <stop offset="1" stop-color="#FFFF95"/>
    </linearGradient>
    <linearGradient id="d" x1="98.261" x2="98.195" y1="25.405" y2="25.02" gradientUnits="userSpaceOnUse">
      <stop stop-color="#BA5270"/>
      <stop offset=".124" stop-color="#C56D76"/>
      <stop offset=".428" stop-color="#DEAB83"/>
      <stop offset=".686" stop-color="#F0D98D"/>
      <stop offset=".885" stop-color="#FBF593"/>
      <stop offset="1" stop-color="#FFFF95"/>
    </linearGradient>
    <linearGradient id="e" x1="55.809" x2="47.292" y1="67.019" y2="17.136" gradientUnits="userSpaceOnUse">
      <stop stop-color="#BA5270"/>
      <stop offset=".124" stop-color="#C56D76"/>
      <stop offset=".428" stop-color="#DEAB83"/>
      <stop offset=".686" stop-color="#F0D98D"/>
      <stop offset=".885" stop-color="#FBF593"/>
      <stop offset="1" stop-color="#FFFF95"/>
    </linearGradient>
    <linearGradient id="f" x1="54.294" x2="45.871" y1="49.114" y2="-.217" gradientUnits="userSpaceOnUse">
      <stop stop-color="#63902F"/>
      <stop offset=".417" stop-color="#84B017"/>
      <stop offset=".769" stop-color="#99C508"/>
      <stop offset="1" stop-color="#A1CC02"/>
    </linearGradient>
    <linearGradient id="g" x1="55.09" x2="48.123" y1="51.792" y2="10.991" gradientUnits="userSpaceOnUse">
      <stop stop-color="#8E765E"/>
      <stop offset=".09" stop-color="#938168"/>
      <stop offset=".499" stop-color="#A8AE92"/>
      <stop offset=".816" stop-color="#B5CAAC"/>
      <stop offset="1" stop-color="#BAD4B6"/>
    </linearGradient>
    <linearGradient id="h" x1="57.251" x2="25.28" y1="38.699" y2="41.227" gradientUnits="userSpaceOnUse">
      <stop stop-color="#8E765E"/>
      <stop offset=".09" stop-color="#938168"/>
      <stop offset=".499" stop-color="#A8AE92"/>
      <stop offset=".816" stop-color="#B5CAAC"/>
      <stop offset="1" stop-color="#BAD4B6"/>
    </linearGradient>
    <linearGradient id="i" x1="25.826" x2="10.101" y1="10.406" y2="11.649" gradientUnits="userSpaceOnUse">
      <stop stop-color="#8E765E"/>
      <stop offset=".09" stop-color="#938168"/>
      <stop offset=".499" stop-color="#A8AE92"/>
      <stop offset=".816" stop-color="#B5CAAC"/>
      <stop offset="1" stop-color="#BAD4B6"/>
    </linearGradient>
  </defs>
</svg>
