<svg xmlns="http://www.w3.org/2000/svg" width="92" height="96" fill="none" viewBox="0 0 92 96">
  <path fill="url(#a)" fill-rule="evenodd" d="M.092 64.485c4.09 29.63 55.55 47.52 88.44 9.93 3.27-3.74 3.99-11.04 1.04-19.12-3.89-10.61-14.11-22.57-33.21-29.56-2.94-1.07-5.79-1.76-8.58-2.12h-.03c-.13-.02-.26-.04-.39-.05-.51-.05-1.01-.1-1.51-.14l-.27-.02c-9.98-.67-18.84 2.91-26.03 8.33-4.51 3.39-8.37 7.49-11.42 11.72 0 0-.02.02-.04.05-2.9 4-5.08 8.1-6.44 11.8-1.33 3.6-1.88 6.81-1.56 9.18Z" clip-rule="evenodd"/>
  <path fill="url(#b)" fill-rule="evenodd" d="M13.462 31.004c2.1.36 4.13.59 6.09.73 12.78.84 22.41-3.01 27.8-8.17l.01-.01c4.17-3.97 5.78-8.73 4.31-12.69l-.01-.01c-.74-2.03-2.3-3.85-4.73-5.24-20.19-11.59-38.8-3.23-44.87 7 0 0-.02.03-.04.08-4.41 7.51-2.04 16 11.44 18.31Z" clip-rule="evenodd"/>
  <path fill="url(#c)" fill-rule="evenodd" d="M.092 64.485c4.09 29.63 55.55 47.52 88.44 9.93 3.27-3.74 3.99-11.04 1.04-19.12l-.02-.03c.59 16.58-19.82 40.66-48.85 36.89-29.02-3.76-38.78-23.25-39.55-31.59-.16-1.76.06-3.55.5-5.25-1.33 3.59-1.88 6.8-1.56 9.17Z" clip-rule="evenodd" opacity=".5"/>
  <path fill="url(#d)" fill-rule="evenodd" d="M13.462 31.004c2.1.36 4.13.59 6.09.73l1.37-1.56s-9.19-2.3-14.82-5.92c-7.1-4.57-4.42-10.72-4.07-11.56-4.42 7.51-2.05 16 11.43 18.31Z" clip-rule="evenodd" opacity=".5"/>
  <path fill="url(#e)" fill-rule="evenodd" d="m44.791 23.324.79.08.27.02 1.51.15.4.05c-.13-.02-.26-.04-.39-.05 4.17-3.97 5.78-8.73 4.31-12.69l-.01-.01c.95 8.33-6.88 12.45-6.88 12.45Z" clip-rule="evenodd" opacity=".5"/>
  <path fill="#FFDD4A" fill-rule="evenodd" d="M80.152 42.585c8.31 10.77-9.4 31.54-41.7 35.43-32.3 3.89-31.58-36.79-17.53-47.84 14.05-11.06 44.92-6.13 59.23 12.41Z" clip-rule="evenodd" opacity=".3"/>
  <path fill="#FFDD4A" fill-rule="evenodd" d="M50.002 9.195c7.66 6.09-4.35 13.32-23.89 15.14-19.54 1.82-23.43-8.41-23.73-10.06-.32-1.66 20.74-26.43 47.62-5.08Z" clip-rule="evenodd" opacity=".5"/>
  <path fill="url(#f)" fill-rule="evenodd" d="M59.882 66.214c2.22-1.67-.71-14.44-17.03-13.04-16.32 1.4-16.34 11.36-15.42 13.03.92 1.66 20 9.37 32.45.01Z" clip-rule="evenodd"/>
  <path fill="url(#g)" fill-rule="evenodd" d="M70.712 50.924c1.02-3.04-8.99-10.42-18.49-6.87-9.51 3.54 16.24 13.53 18.49 6.87Z" clip-rule="evenodd"/>
  <path fill="url(#h)" fill-rule="evenodd" d="M60.302 62.534c.03 3.03-2.36 3.91-3.48 4.36-1.12.44 3.25-10.56-12.99-10.25-16.24.31-16.71 7.87-16.71 7.87s-.5-11.33 16.59-11.35c17.09-.02 16.59 9.37 16.59 9.37Z" clip-rule="evenodd" opacity=".2"/>
  <path fill="url(#i)" fill-rule="evenodd" d="M69.622 52.295c1.74-2.53-1.51-7.08-10.03-7.38-8.52-.3-8.09 3.21-8.09 3.21s-1.23-.79-1.38-2.69c-.15-1.9 5.37-3.2 11.58-2.03 6.2 1.17 11.58 6.49 7.92 8.89Z" clip-rule="evenodd" opacity=".2"/>
  <path fill="url(#j)" fill-rule="evenodd" d="M84.892 63.885s-2.47 20.59-34.06 24.39c-31.59 3.8-42.31-14.89-44.3-19.58 0 0 12.63 19.12 42.14 17.08 29.51-2.03 36.22-21.89 36.22-21.89Z" clip-rule="evenodd" opacity=".5"/>
  <path fill="url(#k)" fill-rule="evenodd" d="M63.992 85.274s-14.46 2.88-30.98-.47c-16.52-3.35-20.05-6.97-20.05-6.97s17.43 18.65 51.03 7.44Z" clip-rule="evenodd" opacity=".5"/>
  <path fill="url(#l)" fill-rule="evenodd" d="M45.712 8.024c6.03 4.59-1.77 13.23-21.42 13.03-19.65-.2-20.46-9.06-17.76-11.82 2.23-2.28 22.21-14.12 39.18-1.21Z" clip-rule="evenodd"/>
  <path fill="url(#m)" fill-rule="evenodd" d="M46.642 8.935c1.82 5.1-7.71 9.98-21.13 10.59-13.42.61-19.94-5.32-20.11-8.14 0 0-3.57 9.83 20.34 10.39 14.95.34 25.48-5.77 20.9-12.84Z" clip-rule="evenodd" opacity=".8"/>
  <path fill="#9ADD00" fill-rule="evenodd" d="M38.392 6.014c9.56 3.07-1.3 11.51-13.03 12.72-11.73 1.21-17.02-6.51-17.32-7.89-.31-1.36 11.19-10.97 30.35-4.83Z" clip-rule="evenodd" opacity=".3"/>
  <path fill="#FFDD5E" fill-rule="evenodd" d="M44.792 43.754c-.08 3.25-13.21 6.65-21.53 12.68-8.32 6.02-16.34-8.81-7.21-20.42 9.12-11.6 28.84 3.24 28.74 7.74Z" clip-rule="evenodd" opacity=".5"/>
  <path fill="#FFDD5E" fill-rule="evenodd" d="M75.802 73.175c2.35-3-23.83 2.09-28.85 6.16-5.03 4.07 13.83 13.04 28.85-6.16Z" clip-rule="evenodd" opacity=".7"/>
  <path fill="#EDE0A9" fill-rule="evenodd" d="M19.152 73.955c3.54-.2 3.77-5.84.35-10.2-3.42-4.36-8.13-1.6-9.27 2.03-1.14 3.62-.59 8.69 8.92 8.17Zm9.97 2.969c1.7-2.12-1-6.94-5.37-3.56-4.37 3.37 2.3 7.38 5.37 3.56Zm59.12-21.13c2.1 8.17-7.07 10.99-9.68-1.82-2.6-12.81 7.63-6.15 9.68 1.82Z" clip-rule="evenodd"/>
  <path fill="#CC81B3" fill-rule="evenodd" d="M88.382 56.395s1.07 4.39-2.66 5.52c-3.73 1.12-7.52-8.69-7.41-13.16 0 0-1.07 4.11 1.38 10.76 2.45 6.63 10.27 6.69 8.69-3.12Zm-59.51 16.86s2.26 3.61-1.95 4.57c-4.22.96-4.3-3.22-4.3-3.22s-.51.63-.4 1.84c.12 1.21 1.2 2.7 4.89 2.1 3.7-.6 3.42-3.2 1.76-5.29Zm-7.52-6.18s1.32 3.71-1.88 5.79-8.15 0-9.15-3.14c-.68-2.12.45-5.18.45-5.18s-1.62 2.32-1.31 4.95c.3 2.63 1.51 5.21 7.54 5.73 6.03.52 5.79-4.73 4.35-8.15Z" clip-rule="evenodd" opacity=".7"/>
  <path fill="#FFDD5E" fill-rule="evenodd" d="M58.402 67.225s-5.32 2.67-14.7 2.68c-9.37 0-13.67-1.73-13.67-1.73s15.96 7.01 28.37-.95Zm11.22-14.93s-6 1.11-15.21-2.16c-.01.01 7.44 4.36 15.21 2.16Zm-21.37 40.23s-8.82-2.2-21.14-6.32-18.68-10.23-18.68-10.23 10.89 17.01 39.82 16.55Z" clip-rule="evenodd" opacity=".7"/>
  <defs>
    <linearGradient id="a" x1="41.045" x2="54.221" y1="97.14" y2="4.454" gradientUnits="userSpaceOnUse">
      <stop stop-color="#63902F"/>
      <stop offset=".417" stop-color="#84B017"/>
      <stop offset=".769" stop-color="#99C508"/>
      <stop offset="1" stop-color="#A1CC02"/>
    </linearGradient>
    <linearGradient id="b" x1="14.161" x2="28.697" y1="100.635" y2="-1.617" gradientUnits="userSpaceOnUse">
      <stop stop-color="#63902F"/>
      <stop offset=".417" stop-color="#84B017"/>
      <stop offset=".769" stop-color="#99C508"/>
      <stop offset="1" stop-color="#A1CC02"/>
    </linearGradient>
    <linearGradient id="c" x1="45.714" x2="45.714" y1="95.69" y2="55.263" gradientUnits="userSpaceOnUse">
      <stop stop-color="#BA5270"/>
      <stop offset=".124" stop-color="#C56D76"/>
      <stop offset=".428" stop-color="#DEAB83"/>
      <stop offset=".686" stop-color="#F0D98D"/>
      <stop offset=".885" stop-color="#FBF593"/>
      <stop offset="1" stop-color="#FFFF95"/>
    </linearGradient>
    <linearGradient id="d" x1="10.461" x2="10.461" y1="31.735" y2="12.694" gradientUnits="userSpaceOnUse">
      <stop stop-color="#BA5270"/>
      <stop offset=".124" stop-color="#C56D76"/>
      <stop offset=".428" stop-color="#DEAB83"/>
      <stop offset=".686" stop-color="#F0D98D"/>
      <stop offset=".885" stop-color="#FBF593"/>
      <stop offset="1" stop-color="#FFFF95"/>
    </linearGradient>
    <linearGradient id="e" x1="48.496" x2="48.496" y1="23.613" y2="10.858" gradientUnits="userSpaceOnUse">
      <stop stop-color="#BA5270"/>
      <stop offset=".124" stop-color="#C56D76"/>
      <stop offset=".428" stop-color="#DEAB83"/>
      <stop offset=".686" stop-color="#F0D98D"/>
      <stop offset=".885" stop-color="#FBF593"/>
      <stop offset="1" stop-color="#FFFF95"/>
    </linearGradient>
    <linearGradient id="f" x1="43.824" x2="43.824" y1="70.761" y2="53.06" gradientUnits="userSpaceOnUse">
      <stop stop-color="#FFB447"/>
      <stop offset=".41" stop-color="#FCAA47"/>
      <stop offset="1" stop-color="#F59346"/>
    </linearGradient>
    <linearGradient id="g" x1="60.451" x2="60.451" y1="53.16" y2="43.103" gradientUnits="userSpaceOnUse">
      <stop stop-color="#FFB447"/>
      <stop offset=".41" stop-color="#FCAA47"/>
      <stop offset="1" stop-color="#F59346"/>
    </linearGradient>
    <linearGradient id="h" x1="43.707" x2="43.707" y1="66.906" y2="53.16" gradientUnits="userSpaceOnUse">
      <stop stop-color="#FFFF95"/>
      <stop offset=".115" stop-color="#FBF593"/>
      <stop offset=".314" stop-color="#F0D98D"/>
      <stop offset=".572" stop-color="#DEAB83"/>
      <stop offset=".876" stop-color="#C56D76"/>
      <stop offset="1" stop-color="#BA5270"/>
    </linearGradient>
    <linearGradient id="i" x1="60.464" x2="60.464" y1="52.299" y2="42.961" gradientUnits="userSpaceOnUse">
      <stop stop-color="#FFFF95"/>
      <stop offset=".115" stop-color="#FBF593"/>
      <stop offset=".314" stop-color="#F0D98D"/>
      <stop offset=".572" stop-color="#DEAB83"/>
      <stop offset=".876" stop-color="#C56D76"/>
      <stop offset="1" stop-color="#BA5270"/>
    </linearGradient>
    <linearGradient id="j" x1="45.714" x2="45.714" y1="88.785" y2="63.889" gradientUnits="userSpaceOnUse">
      <stop stop-color="#DF7A70"/>
      <stop offset=".059" stop-color="#E1816E"/>
      <stop offset=".482" stop-color="#F1AE63"/>
      <stop offset=".81" stop-color="#FBCA5D"/>
      <stop offset="1" stop-color="#FFD45A"/>
    </linearGradient>
    <linearGradient id="k" x1="38.484" x2="38.484" y1="88.856" y2="77.83" gradientUnits="userSpaceOnUse">
      <stop stop-color="#BA5270"/>
      <stop offset=".124" stop-color="#C56D76"/>
      <stop offset=".428" stop-color="#DEAB83"/>
      <stop offset=".686" stop-color="#F0D98D"/>
      <stop offset=".885" stop-color="#FBF593"/>
      <stop offset="1" stop-color="#FFFF95"/>
    </linearGradient>
    <linearGradient id="l" x1="26.557" x2="26.557" y1="21.063" y2="2.091" gradientUnits="userSpaceOnUse">
      <stop stop-color="#63902F"/>
      <stop offset=".417" stop-color="#84B017"/>
      <stop offset=".769" stop-color="#99C508"/>
      <stop offset="1" stop-color="#A1CC02"/>
    </linearGradient>
    <linearGradient id="m" x1="26.472" x2="26.472" y1="21.787" y2="8.937" gradientUnits="userSpaceOnUse">
      <stop stop-color="#8E765E"/>
      <stop offset=".09" stop-color="#938168"/>
      <stop offset=".499" stop-color="#A8AE92"/>
      <stop offset=".816" stop-color="#B5CAAC"/>
      <stop offset="1" stop-color="#BAD4B6"/>
    </linearGradient>
  </defs>
</svg>
