<svg xmlns="http://www.w3.org/2000/svg" width="244" height="132" fill="none" viewBox="0 0 244 132">
  <path fill="url(#a)" fill-rule="evenodd" d="M1.25 102.128c3.43 10.73 14.25 20.56 36.32 24.37 57.26 9.91 78.619 4.95 87.389-7.24l.01-.01c3.3-4.59 16.41-3.14 32.64-.53h.01c.02 0 .05.01.08.02l.38.06c26.87 4.35 62.07 11.73 75.55.26 5.41-4.61 8.67-13.03 9.5-23.23.29-3.55.29-7.31-.02-11.21v-.01c-2.3-29.16-21.7-65.43-62.87-72.2-58.78-9.66-79.29 6.26-103.7 30.62-24.41 24.36-24.13 19.87-50.96 21.54-7.8.48-14.88 5.08-19.6 11.59-5.27 7.29-7.62 16.94-4.73 25.97Z" clip-rule="evenodd"/>
  <path fill="url(#b)" fill-rule="evenodd" d="M37.569 126.498c57.28 9.91 78.63 4.949 87.4-7.241 8.77-12.2 86.93 18.301 108.66-.199 7.3-6.21 10.68-19.37 9.49-34.43-.03.66-1.7 30.39-29.35 34.48-27.96 4.14-66.45-9.14-80.73-6-15.63 3.43-17.12 15.589-55.19 14.679-38.07-.91-65.01-11.759-73.4-22.369-8.38-10.61 1.55-29.23 1.55-29.23-11.57 15.9-9.07 43.28 31.57 50.31Z" clip-rule="evenodd" opacity=".5"/>
  <path fill="url(#c)" fill-rule="evenodd" d="M235.209 84.518c-4.69 21-67.58 23.43-95.61 15.1s-29.45-3.26-24.02 3.21-29.01 18.46-68.65 6.02c-39.63-12.44-32.48-36.51-3.51-40.64 25.65-3.65 25.04-1.26 35.66-2.29 10.61-1.03 11.87-9.01-.01-9.71-14.71-.86 26.5-48.15 85.98-40.57 59.48 7.58 73.97 51.82 70.16 68.88Z" clip-rule="evenodd"/>
  <path fill="url(#d)" fill-rule="evenodd" d="M232.669 62.707s8.36 20.47-13.19 31.15c-21.54 10.68-48.33 11.25-74.06 5.1-25.74-6.15-30.03-7.01-34.17-5.43-4.15 1.57 6.06 10.9-9.39 15.78-15.45 4.88-54.33.38-69.2-7.82-14.87-8.2-13.05-16.48-13.05-16.48s-6.87 14.66 31.31 26.32 60.55 1.15 65.27-2.78c4.72-3.93-2.86-9.94 1.86-11.15 4.72-1.22 40.11 11.44 76.71 8.58 36.6-2.86 41.04-12.58 42.61-22.16 1.56-9.6-4.7-21.11-4.7-21.11Z" clip-rule="evenodd" opacity=".8"/>
  <path fill="url(#e)" fill-rule="evenodd" d="M86.37 63.148s1.81-3.47-1.53-4.86c-3.34-1.38-5.67-.38-8.01-1.1-2.34-.71-1.17-5.33.07-6.85 0 0-1.17 3.18 1.45 4.04 2.62.86 6.85.33 8.48 2.52 2.54 3.4-.46 6.25-.46 6.25Z" clip-rule="evenodd" opacity=".8"/>
  <path fill="#9ADD00" fill-rule="evenodd" d="M104.529 87.578c4.41 4.55 12.01 20.76-25.74 21.14-37.75.38-57-20.95-56.24-28.01.77-7.07 48.05-28.19 81.98 6.87Z" clip-rule="evenodd" opacity=".3"/>
  <path fill="#9ADD00" fill-rule="evenodd" d="M225.589 76.887c8.4 15.94-32.98 24.45-82.74 14.32-49.76-10.13-58.62-26.19-24.59-34.46s-25.17-1.93-35.68-5.6c-10.51-3.67 22.21-38.05 80.1-33.17 57.88 4.87 75.87 47.28 62.91 58.91Zm-129.73 29.651c33.75-13.93-11.71-32.17-45.08-24.33-33.37 7.83.48 35.51 45.08 24.33Z" clip-rule="evenodd" opacity=".3"/>
  <path fill="#FFDD81" fill-rule="evenodd" d="M66.54 125.967c10.54-1.43-22.06-10.01-39.79-24.88s-5.15-25.71-1.86-28.72c3.29-3.02-22.22-5.31-22.91 22-.69 27.31 64.56 31.6 64.56 31.6Z" clip-rule="evenodd" opacity=".5"/>
  <path fill="#FFDD81" fill-rule="evenodd" d="M223.919 108.727c2.14 1.95 1.43 11.13-22.74 11.19-24.16.06-44.91-9.13-64.49-7.25-19.58 1.87-24.14 12.99-38.59 14.07-14.45 1.09-30.66-6.34-31.56-7.05-.9-.71 31.41-2.43 42.85-6.15 11.44-3.72 2.57-13.59 10.15-15.23 7.58-1.64 42.06 10.36 82.42 6.95 40.36-3.41 21.96 3.47 21.96 3.47Z" clip-rule="evenodd" opacity=".5"/>
  <path fill="#FFDD81" fill-rule="evenodd" d="M189.319 116.648c9.01-2.97-19.3-13.21-42.75-12.67-23.45.55 5.92 14.49 42.75 12.67Z" clip-rule="evenodd" opacity=".5"/>
  <path fill="url(#f)" fill-rule="evenodd" d="M1.249 102.138c3.43 10.72 14.25 20.55 36.32 24.37 57.26 9.91 78.62 4.95 87.39-7.24-.43.28-15.31 9.84-58.44 8.71-43.77-1.15-65.27-25.84-65.27-25.84Z" clip-rule="evenodd" opacity=".5"/>
  <path fill="url(#g)" fill-rule="evenodd" d="M157.699 118.748c26.92 4.34 62.38 11.85 75.93.32 5.41-4.61 8.67-13.03 9.5-23.23 0 0-6.01 19.59-31.23 23.56-24.38 3.84-52.38-.37-54.2-.65Z" clip-rule="evenodd" opacity=".5"/>
  <path fill="url(#h)" fill-rule="evenodd" d="M49.48 71.357c10.9 1.12-5.01 14.15-17.44 13.44-12.43-.72-6.29-15.88 17.44-13.44Z" clip-rule="evenodd" opacity=".8"/>
  <path fill="url(#i)" fill-rule="evenodd" d="M138.559 20.448c31.5 1.06 2.76 29.28-37.84 29.89-40.6.61 5.96-30.96 37.84-29.89Z" clip-rule="evenodd" opacity=".8"/>
  <path fill="url(#j)" fill-rule="evenodd" d="M184.549 23.638c11.21 5.98-16.02 7.71-25.92 2.86-9.91-4.83 9.38-11.68 25.92-2.86Z" clip-rule="evenodd" opacity=".8"/>
  <path fill="#FFC74B" fill-rule="evenodd" d="M52.48 75.638c1.15-3.5-7.94-5.3-18.22-1.28-10.28 4.02-7.84 8.06-7.84 8.06s1.2 3.98 13.03 1.43c11.82-2.56 13.03-8.21 13.03-8.21Z" clip-rule="evenodd"/>
  <path fill="#9BB900" fill-rule="evenodd" d="M151.829 28.577s-1.19-12.7-33.57-3.59-31.65 22.44-31.65 22.44 6.47 8.19 35.07.19c28.6-8 30.15-19.04 30.15-19.04Zm34.34-.979s.76-4.53-13.06-6.81c-13.82-2.29-17.31 3.09-17.04 3.56.27.47.5 3.68 13.28 4.97 12.77 1.29 16.82-1.72 16.82-1.72Z" clip-rule="evenodd"/>
  <path fill="#EDE0A9" fill-rule="evenodd" d="M38.55 120.608c3.05-.48 4.42-4.58-3.26-8.44-7.68-3.86-11.52 1.27-12.04 2.86-.53 1.6 7.07 6.87 15.3 5.58Zm3.519-7c0 1.34-1.53 1.86-2.86 0-1.33-1.86 2.86-1.2 2.86 0Zm-25.609-4.871c3.48-1.79 1.05-6.7-4.24-6.6-5.29.1-4.58 3.63-3.96 4.72.62 1.1 5.38 3.32 8.2 1.88Z" clip-rule="evenodd"/>
  <path fill="#EDE0A9" fill-rule="evenodd" d="M44.67 121.678c-2.72-2.45-3.9-6.94 5.81-7.41 9.72-.47 14.11 5.22 14.11 8.65 0 3.44-16.2 2.11-19.92-1.24Zm39-3.981c5.55 1.5.94 3.98-6.11 5.32-7.05 1.33-8.87-5.83-8.96-6.06-.1-.23 9.84-.67 15.07.74Zm24.869 6.531c.41-2.46-4.44-2.76-8.87-2.62-4.43.14-4.29 4.89-2.93 5.2 1.36.31 11.66-1.72 11.8-2.58Zm44.32-17.86c4.91 3.08-2.77 9.35-14.68 4.4-11.91-4.95-8.62-7.73-7.19-8.63 1.42-.9 10-3.22 21.87 4.23Z" clip-rule="evenodd"/>
  <path fill="#CC81B3" fill-rule="evenodd" d="M63.11 119.067s1.29 2.33-.5 3.65c-1.79 1.33-9.79 1.68-15.16-.46-5.36-2.14-4.41-5.3-4.41-5.3s-1.31 1.4.23 4.44c1.54 3.04 7.76 4.18 15.62 3.81 7.86-.38 6.86-2.75 4.22-6.14Zm-22.47-2.36s1.12 5.39-7.91 3.31c-9.03-2.08-8.98-5.06-8.48-6.62 0 0-1.48 1.05-1.31 2.39.17 1.34 4.26 4.92 11.44 5.8 7.17.88 7.89-1.87 6.26-4.88Zm1.27-3.499c.16.4-.17 1.59-1.6.99-1.43-.6-1.18-1.57-1.18-1.57s-.3.08-.33.56c-.04.48.88 1.74 2.22 1.91 1.33.16 1.48-1.05.89-1.89Z" clip-rule="evenodd" opacity=".7"/>
  <path fill="#EDE0A9" fill-rule="evenodd" d="M130.879 108.997c0 2.41-2.76 3.36-5.17 0-2.4-3.36 5.17-2.16 5.17 0Z" clip-rule="evenodd"/>
  <path fill="#CC81B3" fill-rule="evenodd" d="M130.589 108.277c.29.72-.31 2.87-2.89 1.8-2.58-1.08-2.14-2.83-2.14-2.83s-.53.14-.6 1.01c-.06.86 1.59 3.14 4 3.44 2.42.29 2.69-1.9 1.63-3.42Z" clip-rule="evenodd" opacity=".7"/>
  <path fill="#EDE0A9" fill-rule="evenodd" d="M216.409 110.197c0 2.41-2.76 3.36-5.17 0s5.17-2.16 5.17 0Z" clip-rule="evenodd"/>
  <path fill="#CC81B3" fill-rule="evenodd" d="M216.119 109.477c.29.72-.31 2.87-2.89 1.8-2.58-1.08-2.14-2.83-2.14-2.83s-.53.14-.6 1.01c-.06.86 1.59 3.14 4 3.44 2.41.29 2.69-1.9 1.63-3.42ZM18 105.668s-.55 3.68-4.73 3.05c-4.18-.62-5.74-2.7-5.12-4.88 0 0-1.32 1.66-.13 3.49 1.19 1.83 5.5 2.95 8.5 2.03 3.01-.92 1.48-3.69 1.48-3.69Zm66.86 12.43s1.26 3.33-5.53 4.15c-6.79.82-10.11-3.67-10.11-3.67s.46 4.29 6.71 4.89c6.26.6 10.49-3.44 10.39-4.03-.09-.59-1.46-1.34-1.46-1.34Zm23.419 4.99s-.55 1.78-6.51 2.76c-5.96.98-5.84-.37-5.84-.37s-.38 1.3.79 1.78 10.71-1.82 11.85-2.37c1.13-.56-.29-1.8-.29-1.8Zm45.9-15.31s.64 4.04-9.26 3.11c-9.9-.93-14.18-5.41-14.51-6.72-.33-1.31 1.31-2.37 1.31-2.37s-1.63.22-2.7 2.48c-1.07 2.25 3.83 6.65 15.09 8.63 11.25 1.98 12.18-1.55 10.07-5.13Z" clip-rule="evenodd" opacity=".7"/>
  <path fill="#FFDD81" fill-rule="evenodd" d="M18.39 74.198c1.62-.21 1.05 7.29-3.59 13.38-4.64 6.08-12.25 6.8-12.25 6.8s-7.38-17.17 15.84-20.18Z" clip-rule="evenodd" opacity=".7"/>
  <path fill="url(#k)" fill-rule="evenodd" d="M236.499 100.188s-6.43 6.449-13.87 10.699c-7.43 4.24-19.23 3.37-27.88 1.51-8.05-1.72-2.29-1.9-16.3-3.12-14.01-1.22-20.02-1.49-20.02-1.49s24.16 2.07 31.59 4.55c3.38 1.13 12.94 6.1 24.79 4.3 11.86-1.8 16.47-6.89 16.25-8.63-.21-1.73 5.44-7.819 5.44-7.819Z" clip-rule="evenodd" opacity=".5"/>
  <path fill="url(#l)" fill-rule="evenodd" d="M133.469 45.288c0 1.63 4.73 2.38 13.19 2.43l31.39.34s5.04-6.81 1.61-11.06c-3.31-4.12-10.69-1.67-11.15-1.51 1.37-1.01 14.75-2.68 12.11-9.04-2.65-6.38-12.5-3.53-12.5-3.53s12.02-12.82-1.77-20.92c-.89-.52-1.75-.93-2.57-1.24h-.01c-11.92-4.47-16.77 12.25-13.13 13.49.59.2 1.19.47 1.76.78l.02.01c3.1 1.69 5.75 4.63 5.92 4.81-8.24-6.73-11.32 8.35-11.32 8.35s-4.19-2.98-8.55 3.87c-4.34 6.86.42 12.86.42 12.86s-3.82-.9-5.05-.23c-.23.14-.37.33-.37.59Z" clip-rule="evenodd"/>
  <path fill="url(#m)" fill-rule="evenodd" d="M133.469 45.288c0 1.63 4.73 2.38 13.19 2.43l31.39.34s5.04-6.81 1.61-11.06c-3.31-4.12-10.69-1.67-11.15-1.51 1.37-1.01 14.75-2.68 12.11-9.04-2.65-6.38-12.5-3.53-12.5-3.53s12.02-12.82-1.77-20.92c-.89-.52-1.75-.93-2.57-1.24.67.36 8.68 2.86 7.34 10.76-2.1 12.35-18.04 3.73-18.69 3.51 3.1 1.69 5.75 4.63 5.92 4.81l.01.01s5.23 2.61 6.41 8.96c1.56 8.44-11.04 5.69-11.04 5.69s4.09 1.19 8.01 2.23c5.77 1.53 9.69 7.44-.19 9.85-8.95 2.19-25.53.31-27.69-1.88-.25.14-.39.33-.39.59Z" clip-rule="evenodd" opacity=".8"/>
  <path fill="#9ADD00" fill-rule="evenodd" d="M154.159 44.597c2.35-2-2.24-16.16-9.2-16.68-6.96-.52-7.92 11.66-5.32 15.06 2.59 3.39 14.14 1.94 14.52 1.62Z" clip-rule="evenodd" opacity=".5"/>
  <path fill="#9ADD00" fill-rule="evenodd" d="M162.269 34.288c6.27-5.99-1.49-14.51-7.1-15.69-5.61-1.19-8.11 6.24-4.71 11.8 3.4 5.56 11.81 3.89 11.81 3.89Zm5.05-19.88c5.03-2.7 2.75-13.38-7.06-13.89-9.81-.51-11.55 9.12-7.63 12.72 3.93 3.6 14.69 1.17 14.69 1.17Zm7.7 8.87c4.55 1.59-.04 9.9-6.54 10.21-2.91.14-3.04-7.24-2.97-7.96.07-.71 3.08-4.5 9.51-2.25Zm-26.64 6.03c2.13 2.55.1 7.34-4.67 7.73-4.77.38-3.12-6.62-1.41-8.2 1.69-1.57 5.26-.51 6.08.47Z" clip-rule="evenodd" opacity=".5"/>
  <path fill="#9ADD00" fill-rule="evenodd" d="M157.179 20.148c3.11 1.24 2.06 8.09-3.95 8.94-6 .85-3.25-11.82 3.95-8.94Z" clip-rule="evenodd" opacity=".2"/>
  <path fill="url(#n)" fill-rule="evenodd" d="M224.649 110.237s-2.59 5.85-13.89 6.41c-11.3.56-19.74-4.15-19.74-4.15s7.01 2.14 15.78 1.47c8.78-.67 17.85-3.73 17.85-3.73Z" clip-rule="evenodd" opacity=".5"/>
  <path fill="#9ADD00" fill-rule="evenodd" d="M229.579 71.498c-.64 6.68-21.96-11.44-26.54-26.45-4.58-15.01-4.4-17.5-4.4-17.5s34.03 11.64 30.94 43.95Z" clip-rule="evenodd" opacity=".3"/>
  <path fill="#DB83A9" fill-rule="evenodd" d="M162.289 53.447s17.55 6.66 32.42 6.94c14.87.29 24.79-7.02 25.16-7.72 1.22-2.29-9.49-7.98-17.98-9.13-17.05-2.29-39.6 9.91-39.6 9.91Z" clip-rule="evenodd"/>
  <path fill="#A9B1D4" fill-rule="evenodd" d="M201.629 87.357c10.11-7.48-33.2-13.12-48.5-4.85-15.29 8.27 31.09 17.74 48.5 4.85Z" clip-rule="evenodd" opacity=".2"/>
  <path fill="#A9B1D4" fill-rule="evenodd" d="M206.429 74.497c6.46-1.96 7.61-15.27-15.07-14.03-22.68 1.25-20.35 24.8 15.07 14.03Z" clip-rule="evenodd" opacity=".2"/>
  <path fill="#DB83A9" fill-rule="evenodd" d="M158.889 46.357c7.15 1.87 7.34 4.96-3.46 5.47-10.8.51-13.14-3.16-13.14-3.16s10.05-4.02 16.6-2.31Z" clip-rule="evenodd"/>
  <path fill="url(#o)" fill-rule="evenodd" d="M209.379 51.118c2.04-1.53 1.19-7.22 0-9.93-1.19-2.72-15.92-8.29-24.5-7.58-8.58.71-23.16 15.58-24.16 18.3-1 2.72 18.44 5 30.31 5.43 11.87.43 16.54-4.86 18.35-6.22Z" clip-rule="evenodd"/>
  <path fill="#DB83A9" fill-rule="evenodd" d="M209.379 41.188c-.84-.97-12.2 5.77-14.68 8.44-2.48 2.67-10.02 7.36-10.02 7.36s7.29.93 12.35.05 11.92-4.8 13.26-6.68c1.33-1.88-.91-9.17-.91-9.17Z" clip-rule="evenodd"/>
  <path fill="#D96840" fill-rule="evenodd" d="M207.089 40.087c.22 1.57-8.76 7.15-20.92 8.29-12.16 1.14-18.17-1.53-18.45-1.72-.29-.19 7.43-12.01 17.16-13.06 9.73-1.05 22 4.95 22.21 6.49Z" clip-rule="evenodd"/>
  <path fill="#B2562B" fill-rule="evenodd" d="M201.329 44.367s-6.91 5.05-8.63 5.86c-1.72.82-7.53-.98-7.53-.98l16.16-4.88Z" clip-rule="evenodd"/>
  <path fill="#EA8E40" fill-rule="evenodd" d="M206.319 41.308s-4.35 2.39-6.49 3.06c-2.14.67-11.8 3.41-15.73 4.29-3.93.88-12.12-.74-12.12-.74s9.01 1.99 12.83 1.33c3.82-.67 11.61-4.39 15.51-3.8 0 .01 3.37-1.8 6-4.14Z" clip-rule="evenodd"/>
  <path fill="#9ADD00" fill-rule="evenodd" d="M195.679 41.688c1.77 1.27-1.57 6.22-12.3 4.79-10.72-1.43 10.8-5.86 12.3-4.79Zm9.08 2.999c4.08-.09 0 7.29-3.07 9.29-3.07 2-9.29 2.57-9.29 2.57s2.85-11.65 12.36-11.86Zm-25.45-2.07c.91.41-3.79 2.36-5.65 2.07-1.86-.29 3.29-3.15 5.65-2.07Z" clip-rule="evenodd" opacity=".3"/>
  <path fill="url(#p)" fill-rule="evenodd" d="M158.719 48.667c.65-1.1-.33-5.15-7.67-6.05-7.34-.91-9.48 5.39-9.48 5.65 0 .26 5.39 2.32 9.34 2.44 3.95.1 7.33-1.24 7.81-2.04Z" clip-rule="evenodd"/>
  <path fill="#DB83A9" fill-rule="evenodd" d="M158.719 48.667c.16-.55-.57-3.14-2.14-3.48-1.57-.35-9.54 2.11-10.65 2.88-1.11.77-.91 2.21 4.98 2.64 5.88.41 7.81-2.04 7.81-2.04Z" clip-rule="evenodd"/>
  <path fill="#D96840" fill-rule="evenodd" d="M156.069 44.308c.5.12-5.27 2.5-8.1 2.88-2.84.38-5.23-.54-5.36-.69-.13-.15 1.93-3.33 5.98-3.92 4.05-.58 7.48 1.73 7.48 1.73Z" clip-rule="evenodd"/>
  <path fill="#B2562B" fill-rule="evenodd" d="M153.349 45.617s-2.44 1.37-4.07 1.8c-1.63.43-3.04-.14-3.04-.14s3.51-1.35 7.11-1.66Z" clip-rule="evenodd"/>
  <path fill="#EA8E40" fill-rule="evenodd" d="M156.069 44.308s-1.83.9-2.55 1.04c-.71.15-4.17.51-5.81 1.03-1.64.52-3.67.61-3.67.61s2.07.43 2.33.29c.27-.14 2.42-.93 4.15-1.24 1.73-.3 2.94-.47 2.94-.47s2.09-.57 2.61-1.26Z" clip-rule="evenodd"/>
  <path fill="#A9B1D4" fill-rule="evenodd" d="M102.429 54.638c8.18-1.56-.37 9.42-6.57 9.92s-6-7.53 6.57-9.92Z" clip-rule="evenodd" opacity=".2"/>
  <path fill="#FFDD81" fill-rule="evenodd" d="M67.74 56.748c9.11-.36 13.2 7.35-1.22 7.83-14.42.48-6.92-7.51 1.22-7.83Z" clip-rule="evenodd" opacity=".7"/>
  <path fill="#D36F3B" fill-rule="evenodd" d="M99.29 101.998c.05-3.36-5.03-5.89-8.67-1.46-3.63 4.44 8.6 6.33 8.67 1.46Z" clip-rule="evenodd"/>
  <path fill="#DB83A9" fill-rule="evenodd" d="M98.93 100.458s.67 3.16-2.86 3.83c-3.53.67-6.3-1.36-5.7-3.4 0 0-.92.77-1.19 1.99-.27 1.22 2.57 3.41 7.79 3.03 5.229-.39 2.77-4.36 1.96-5.45Z" clip-rule="evenodd"/>
  <path fill="#E7792C" fill-rule="evenodd" d="M92.53 100.077c1.21 0 1.06 1.85-.86 1.68-1.91-.17-.03-1.68.86-1.68Z" clip-rule="evenodd"/>
  <path fill="#D36F3B" fill-rule="evenodd" d="M171.049 56.687c.05-3.36-5.03-5.89-8.67-1.46-3.62 4.44 8.6 6.34 8.67 1.46Z" clip-rule="evenodd"/>
  <path fill="#DB83A9" fill-rule="evenodd" d="M170.699 55.148s.67 3.16-2.86 3.83c-3.53.67-6.3-1.36-5.7-3.4 0 0-.92.77-1.19 1.99-.26 1.22 2.57 3.41 7.79 3.03 5.22-.38 2.76-4.36 1.96-5.45Z" clip-rule="evenodd"/>
  <path fill="#E7792C" fill-rule="evenodd" d="M164.299 54.767c1.21 0 1.06 1.85-.86 1.68-1.92-.17-.04-1.68.86-1.68Z" clip-rule="evenodd"/>
  <path fill="#EABA13" fill-rule="evenodd" d="M129.939 48.398c3.68.79-3.02 3.43-5.47 2.78-2.44-.65 1.96-3.54 5.47-2.78Zm27.26 23.449c2.05 1.08-.3 4.77-5.84 4.13-5.53-.65 3.77-5.23 5.84-4.13ZM32.58 97.118c3.54 1.34-.4 1.76-1.93 1.16-1.54-.6 1.08-1.49 1.93-1.16Zm29.8-20.65c.9.78-1.1.96-2.02.16-.93-.8.66-1.33 2.02-.16Zm-13.97 29.479c1.82-.36-6.93-4.21-10.29-3.81-3.37.39 4.93 4.88 10.29 3.81Zm6.29-10.349c2.24.69-1.07 1.64-2.72 1.07-1.64-.58-.28-2 2.72-1.07Zm94.729-19.23c6.65 2.53-.53 6.89-7.42 3.37-6.89-3.52 3.65-4.81 7.42-3.37Z" clip-rule="evenodd"/>
  <path fill="#B0FF00" fill-rule="evenodd" d="M88.829 105.948c.95 1.02-3.5 2.47-6.22.9-2.71-1.58 4.01-3.3 6.22-.9Zm84.44-41.551c.95 1.02-3.5 2.47-6.22.9-2.72-1.57 4-3.29 6.22-.9Zm-89.01 37.4c3.48.56 2.22 1.99.65 2.1-1.58.11-3.38-2.54-.65-2.1Zm24.34-46.08c3.48.56 2.22 1.99.65 2.1-1.57.11-3.38-2.54-.65-2.1Z" clip-rule="evenodd"/>
  <path fill="#B0FF00" fill-rule="evenodd" d="M82.539 103.197c1.55.81-.57 2.19-2.65 1.56-2.06-.63-.35-3.12 2.65-1.56Zm-23.52.91c.73 1.63-2.57 1.95-4.43.3-1.86-1.64 3.72-1.89 4.43-.3Zm2.321-5.2c1.5.69-1.1 1.841-1.67 1.171-.57-.67.13-1.88 1.67-1.17Zm114.539-36.78c1.5.69-1.1 1.84-1.67 1.17-.57-.67.13-1.89 1.67-1.17Zm-77.04 29.561c2.44 1.43-2.42 2.07-3.57 1.22-1.15-.86.63-2.94 3.57-1.22Z" clip-rule="evenodd"/>
  <path fill="#DB83A9" fill-rule="evenodd" d="M213.609 78.067c14.25.77 6.27 18.59-19.34 17.72-25.61-.89.49-18.74 19.34-17.72Z" clip-rule="evenodd"/>
  <path fill="url(#q)" fill-rule="evenodd" d="M210.469 85.347c1.58-2.83.6-14.43-10.14-17.06-10.75-2.64-19.37 11.18-19.76 15.77-.39 4.59 7.86 9.2 11.59 10.06 3.72.85 14.32-1.62 18.31-8.77Z" clip-rule="evenodd"/>
  <path fill="#DB83A9" fill-rule="evenodd" d="M204.199 72.757c3.45 3.17 3.48 14.1-5.58 17.28-9.06 3.18-17.11-4.54-15.94-9.6s15.11-13.58 21.52-7.68Z" clip-rule="evenodd"/>
  <path fill="#FFA7FF" fill-rule="evenodd" d="M204.199 70.458c1.44 1.88-3.48 9.5-8.16 12.67s-14.13 1-14.74.59c-.62-.41 6.76-14.03 13.47-15.4 6.71-1.38 9.43 2.14 9.43 2.14Z" clip-rule="evenodd"/>
  <path fill="#FFA7FF" fill-rule="evenodd" d="M201.179 92.357c1.96.32 8.15-4.13 9.11-8.23.95-4.11-3.18-12.05-3.65-12.48-.47-.42-8.17 10.6-9.49 12.24-1.33 1.64 3.34 8.36 4.03 8.47Z" clip-rule="evenodd"/>
  <path fill="#DB83A9" fill-rule="evenodd" d="M199.569 92.858c.65-.41-1.83-6.21-3.77-7.3-1.94-1.09-13.67-.51-14.21-.36-.53.16 4.18 11.48 17.98 7.66Z" clip-rule="evenodd"/>
  <path fill="ivory" fill-rule="evenodd" d="M200.049 79.457c.28-.18-3 6.22-3.37 6.33-.37.12-6.54-.76-6.74-.88-.21-.11 5.9-2.75 10.11-5.45Zm-12.98 5.3s-2.64.32-4.24.34c-1.6.01-2.07-1.37-1.94-1.54.14-.18 2.75.85 6.18 1.2Z" clip-rule="evenodd"/>
  <path fill="#FFB5E8" fill-rule="evenodd" d="M198.999 79.567c3.11-2.66-1.09-8.42-7.4-6.96-6.31 1.47-7.11 7.71-6.9 9.77.2 2.06 7.41 3.09 14.3-2.81Z" clip-rule="evenodd" opacity=".5"/>
  <path fill="#DB83A9" fill-rule="evenodd" d="M188.149 95.058c4.06.07 9.61 1.33 9.69 3.06.11 2.29-7.04 4.65-16.81 3.46-9.77-1.19 2.21-6.61 7.12-6.52Z" clip-rule="evenodd"/>
  <path fill="url(#r)" fill-rule="evenodd" d="M190.269 91.648c1.04 3.98-.51 9.19-5.83 9.81-5.32.62-11.86-4.74-14-8.59-2.04-3.65 4.49-10.86 7.12-10.39 2.62.47 11.67 5.19 12.71 9.17Z" clip-rule="evenodd"/>
  <path fill="#DB83A9" fill-rule="evenodd" d="M180.309 84.108c2.29-.95 7.22 5.08 7.26 11.72.04 6.64-13.27 5.62-15.25-1.89-1.98-7.52 7.99-9.83 7.99-9.83Z" clip-rule="evenodd"/>
  <path fill="#FFA7FF" fill-rule="evenodd" d="M180.899 84.358c.42-.29 8.46 4.23 9.05 7.33.6 3.09-1.07 6.76-1.07 7.11 0 .36-9.96-4.94-10.08-5.37-.12-.41 2.39-3.27 2.1-9.07Z" clip-rule="evenodd"/>
  <path fill="#FFA7FF" fill-rule="evenodd" d="M178.729 82.808c1.37.08 2.71 6.38 0 10.01-1.9 2.54-7.5 1.81-8.28-.7-.67-2.12 2.24-9.66 8.28-9.31Z" clip-rule="evenodd"/>
  <path fill="#DB83A9" fill-rule="evenodd" d="M188.219 99.488c.31-.35-8.44-4.71-9.43-4.83-.99-.11-5.78.81-8.35-1.8 0 0 4.14 7.09 11.19 7.74 7.05.66 6.59-1.11 6.59-1.11Z" clip-rule="evenodd"/>
  <path fill="ivory" fill-rule="evenodd" d="M180.049 89.778s-.57 4.16-.58 4.62c-.01.47-2.84-.23-2.84-.23s2.71-2.33 3.42-4.39Z" clip-rule="evenodd"/>
  <path fill="#DB83A9" fill-rule="evenodd" d="M155.579 92.287c2.56.7 2.91 5.47-5.72 6.03-8.63.56-4.23-8.74 5.72-6.03Z" clip-rule="evenodd"/>
  <path fill="url(#s)" fill-rule="evenodd" d="M156.229 93.578c.71-1.45-3.49-6.31-7.73-5.16-4.24 1.16-5.63 4.43-3.41 7.19 2.22 2.76 8.85 2.68 11.14-2.03Z" clip-rule="evenodd"/>
  <path fill="#DB83A9" fill-rule="evenodd" d="M155.109 92.028c.38 1.17-4.92 4.43-9.02 2.39-4.1-2.04 1.67-5.62 3.77-5.68 2.11-.08 4.78 1.83 5.25 3.29Z" clip-rule="evenodd"/>
  <path fill="#FFA7FF" fill-rule="evenodd" d="M154.959 90.617c.52.98-2.33 2.95-5.84 3.19-3.51.24-4.61-1.49-4.67-2-.06-.52.99-3.49 5.29-3.48 2.12 0 4.55 1.02 5.22 2.29Z" clip-rule="evenodd"/>
  <path fill="#FFA7FF" fill-rule="evenodd" d="M151.339 97.147c.34.18 3.19-1.54 4.07-2.68.88-1.15.22-2.74-.1-2.72-.32.02-3.01 1.82-5.15 2.3.02-.01-.62 2.16 1.18 3.1Z" clip-rule="evenodd"/>
  <path fill="#DB83A9" fill-rule="evenodd" d="M150.179 97.257c.4-.06-.52-2.78-.86-2.97-.34-.19-3.71-.29-5.09-2.05 0 0-.94 4.6 5.95 5.02Z" clip-rule="evenodd"/>
  <path fill="ivory" fill-rule="evenodd" d="M150.819 93.647s-.52.97-.88 1.1c-.36.12-2.19-.82-2.19-.82s1.3.08 3.07-.28Zm-3.54.19s-1.33-.56-1.85-.89c-.53-.33-.83-.66-.83-.66s.47 1.52 2.68 1.55Z" clip-rule="evenodd"/>
  <defs>
    <linearGradient id="a" x1="121.676" x2="121.676" y1="131.781" y2="9.556" gradientUnits="userSpaceOnUse">
      <stop stop-color="#63902F"/>
      <stop offset=".417" stop-color="#84B017"/>
      <stop offset=".769" stop-color="#99C508"/>
      <stop offset="1" stop-color="#A1CC02"/>
    </linearGradient>
    <linearGradient id="b" x1="121.676" x2="121.676" y1="131.781" y2="76.176" gradientUnits="userSpaceOnUse">
      <stop stop-color="#BA5270"/>
      <stop offset=".124" stop-color="#C56D76"/>
      <stop offset=".428" stop-color="#DEAB83"/>
      <stop offset=".686" stop-color="#F0D98D"/>
      <stop offset=".885" stop-color="#FBF593"/>
      <stop offset="1" stop-color="#FFFF95"/>
    </linearGradient>
    <linearGradient id="c" x1="127.603" x2="127.603" y1="114.268" y2="14.821" gradientUnits="userSpaceOnUse">
      <stop stop-color="#63902F"/>
      <stop offset=".417" stop-color="#84B017"/>
      <stop offset=".769" stop-color="#99C508"/>
      <stop offset="1" stop-color="#A1CC02"/>
    </linearGradient>
    <linearGradient id="d" x1="128.367" x2="128.367" y1="116.643" y2="62.703" gradientUnits="userSpaceOnUse">
      <stop stop-color="#8E765E"/>
      <stop offset=".09" stop-color="#938168"/>
      <stop offset=".499" stop-color="#A8AE92"/>
      <stop offset=".816" stop-color="#B5CAAC"/>
      <stop offset="1" stop-color="#BAD4B6"/>
    </linearGradient>
    <linearGradient id="e" x1="81.678" x2="81.678" y1="63.151" y2="50.346" gradientUnits="userSpaceOnUse">
      <stop stop-color="#8E765E"/>
      <stop offset=".09" stop-color="#938168"/>
      <stop offset=".499" stop-color="#A8AE92"/>
      <stop offset=".816" stop-color="#B5CAAC"/>
      <stop offset="1" stop-color="#BAD4B6"/>
    </linearGradient>
    <linearGradient id="f" x1="124.961" x2="1.249" y1="116.958" y2="116.958" gradientUnits="userSpaceOnUse">
      <stop stop-color="#BA5270"/>
      <stop offset=".124" stop-color="#C56D76"/>
      <stop offset=".428" stop-color="#DEAB83"/>
      <stop offset=".686" stop-color="#F0D98D"/>
      <stop offset=".885" stop-color="#FBF593"/>
      <stop offset="1" stop-color="#FFFF95"/>
    </linearGradient>
    <linearGradient id="g" x1="243.133" x2="157.704" y1="110.508" y2="110.508" gradientUnits="userSpaceOnUse">
      <stop stop-color="#BA5270"/>
      <stop offset=".124" stop-color="#C56D76"/>
      <stop offset=".428" stop-color="#DEAB83"/>
      <stop offset=".686" stop-color="#F0D98D"/>
      <stop offset=".885" stop-color="#FBF593"/>
      <stop offset="1" stop-color="#FFFF95"/>
    </linearGradient>
    <linearGradient id="h" x1="53.119" x2="25.762" y1="77.955" y2="77.955" gradientUnits="userSpaceOnUse">
      <stop stop-color="#8E765E"/>
      <stop offset=".09" stop-color="#938168"/>
      <stop offset=".499" stop-color="#A8AE92"/>
      <stop offset=".816" stop-color="#B5CAAC"/>
      <stop offset="1" stop-color="#BAD4B6"/>
    </linearGradient>
    <linearGradient id="i" x1="151.953" x2="84.874" y1="35.39" y2="35.39" gradientUnits="userSpaceOnUse">
      <stop stop-color="#8E765E"/>
      <stop offset=".09" stop-color="#938168"/>
      <stop offset=".499" stop-color="#A8AE92"/>
      <stop offset=".816" stop-color="#B5CAAC"/>
      <stop offset="1" stop-color="#BAD4B6"/>
    </linearGradient>
    <linearGradient id="j" x1="187.211" x2="155.923" y1="24.346" y2="24.346" gradientUnits="userSpaceOnUse">
      <stop stop-color="#8E765E"/>
      <stop offset=".09" stop-color="#938168"/>
      <stop offset=".499" stop-color="#A8AE92"/>
      <stop offset=".816" stop-color="#B5CAAC"/>
      <stop offset="1" stop-color="#BAD4B6"/>
    </linearGradient>
    <linearGradient id="k" x1="197.467" x2="197.467" y1="117.033" y2="100.187" gradientUnits="userSpaceOnUse">
      <stop stop-color="#DF7A70"/>
      <stop offset=".059" stop-color="#E1816E"/>
      <stop offset=".482" stop-color="#F1AE63"/>
      <stop offset=".81" stop-color="#FBCA5D"/>
      <stop offset="1" stop-color="#FFD45A"/>
    </linearGradient>
    <linearGradient id="l" x1="158.003" x2="154.959" y1="49.309" y2=".311" gradientUnits="userSpaceOnUse">
      <stop stop-color="#408700"/>
      <stop offset=".42" stop-color="#4A8300"/>
      <stop offset="1" stop-color="#607A00"/>
    </linearGradient>
    <linearGradient id="m" x1="158.003" x2="155.022" y1="49.309" y2="1.325" gradientUnits="userSpaceOnUse">
      <stop stop-color="#AE9D24"/>
      <stop offset=".265" stop-color="#C9BD6C"/>
      <stop offset=".522" stop-color="#E0DAAB"/>
      <stop offset=".738" stop-color="#F1EED9"/>
      <stop offset=".904" stop-color="#FBFAF5"/>
      <stop offset="1" stop-color="#fff"/>
    </linearGradient>
    <linearGradient id="n" x1="207.842" x2="207.842" y1="116.69" y2="110.238" gradientUnits="userSpaceOnUse">
      <stop stop-color="#BA5270"/>
      <stop offset=".124" stop-color="#C56D76"/>
      <stop offset=".428" stop-color="#DEAB83"/>
      <stop offset=".686" stop-color="#F0D98D"/>
      <stop offset=".885" stop-color="#FBF593"/>
      <stop offset="1" stop-color="#FFFF95"/>
    </linearGradient>
    <linearGradient id="o" x1="185.648" x2="185.648" y1="57.366" y2="33.544" gradientUnits="userSpaceOnUse">
      <stop stop-color="#A93D54"/>
      <stop offset=".277" stop-color="#AC454A"/>
      <stop offset=".754" stop-color="#B3592E"/>
      <stop offset="1" stop-color="#B8661D"/>
    </linearGradient>
    <linearGradient id="p" x1="150.225" x2="150.225" y1="50.706" y2="42.525" gradientUnits="userSpaceOnUse">
      <stop stop-color="#A93D54"/>
      <stop offset=".277" stop-color="#AC454A"/>
      <stop offset=".754" stop-color="#B3592E"/>
      <stop offset="1" stop-color="#B8661D"/>
    </linearGradient>
    <linearGradient id="q" x1="194.186" x2="199.061" y1="94.911" y2="60.62" gradientUnits="userSpaceOnUse">
      <stop stop-color="#FF9572"/>
      <stop offset=".017" stop-color="#FF9271"/>
      <stop offset=".359" stop-color="#FF5465"/>
      <stop offset=".648" stop-color="#FF265C"/>
      <stop offset=".871" stop-color="#FF0A56"/>
      <stop offset="1" stop-color="#FF0054"/>
    </linearGradient>
    <linearGradient id="r" x1="179.112" x2="182.4" y1="101.284" y2="78.157" gradientUnits="userSpaceOnUse">
      <stop stop-color="#FF9572"/>
      <stop offset=".017" stop-color="#FF9271"/>
      <stop offset=".359" stop-color="#FF5465"/>
      <stop offset=".648" stop-color="#FF265C"/>
      <stop offset=".871" stop-color="#FF0A56"/>
      <stop offset="1" stop-color="#FF0054"/>
    </linearGradient>
    <linearGradient id="s" x1="149.505" x2="151.192" y1="97.678" y2="85.812" gradientUnits="userSpaceOnUse">
      <stop stop-color="#FF9572"/>
      <stop offset=".017" stop-color="#FF9271"/>
      <stop offset=".359" stop-color="#FF5465"/>
      <stop offset=".648" stop-color="#FF265C"/>
      <stop offset=".871" stop-color="#FF0A56"/>
      <stop offset="1" stop-color="#FF0054"/>
    </linearGradient>
  </defs>
</svg>
