<svg xmlns="http://www.w3.org/2000/svg" width="127" height="100" fill="none" viewBox="0 0 127 100">
  <path fill="url(#a)" fill-rule="evenodd" d="M5.962 83.853c6.69 7.89 20.03 13.84 44.77 15.6 38.73 2.74 60.38-9.57 69.88-24.55 5.39-8.51 6.87-17.89 5.33-25.87-.01-.03-.01-.06-.01-.09-.07-.34-.14-.67-.22-1-.01-.01-.01-.02-.01-.02-1.32-5.71-4.22-10.63-8.35-13.88-7.49-5.9-15.06-21.63-44.08-27.39-29.02-5.76-66.15 3.94-65.78 22.1.07 3.24-.98 7.38-2.32 12.05 0 0 0 .01-.01.01 0 .01 0 .03-.01.04-3.78 13.18-9.79 30.51.81 43Z" clip-rule="evenodd"/>
  <path fill="url(#b)" fill-rule="evenodd" d="M50.722 99.443c60.72 4.29 79.47-28.38 75.21-50.42.67 4.11 1.15 18.92-21.96 33.43-27.18 17.06-67.04 15.59-85.92 1.43-18.42-13.82-13.16-41.69-12.9-43.04-6.16 21.54-18.29 54.09 45.57 58.6Z" clip-rule="evenodd" opacity=".5"/>
  <path fill="url(#c)" fill-rule="evenodd" d="M5.962 83.853c6.69 7.89 20.03 13.84 44.77 15.6 38.73 2.74 60.38-9.57 69.88-24.55 0 0-32.7 21.14-58.7 21.96-26 .82-55.95-13.01-55.95-13.01Z" clip-rule="evenodd" opacity=".5"/>
  <path fill="url(#d)" fill-rule="evenodd" d="M115.172 41.433c8.91 8.64 1.86 40.21-44.45 41.97-59.93 2.28-61.69-25.92-62.2-35.92-.51-10 16.67-15.01 17.86-17.15 1.19-2.14-11.83-23.75 30.37-20.88 42.2 2.88 44.68 19.97 42.26 22.55-2.42 2.59 8.93 2.43 16.16 9.43Z" clip-rule="evenodd"/>
  <path fill="url(#e)" fill-rule="evenodd" d="M117.872 46.133s6.58 26.37-38.37 33.71c-44.95 7.34-65.58-13.67-69.02-24.7-2.34-7.51-1.11-11.8-1.11-11.8s-2.8 4.38.34 16.8c3.15 12.42 17.68 23.34 55.79 25.02 38.11 1.68 56.94-15.61 52.37-39.03Z" clip-rule="evenodd" opacity=".8"/>
  <path fill="url(#f)" fill-rule="evenodd" d="M26.472 17.394c-1.56 6.08 1.61 10.12 3.78 11.1 2.17.98-6.51 3.64-6.51 3.64s2.08-1.47 1.83-3.33-1.4-7.15.9-11.41Z" clip-rule="evenodd" opacity=".8"/>
  <path fill="#9ADD00" fill-rule="evenodd" d="M90.382 76.043c22.75-9.61-16.88-36.48-51.07-37.85-34.19-1.36-23.96 21.96-23.96 21.96s18.27 30.09 75.03 15.89Z" clip-rule="evenodd" opacity=".3"/>
  <path fill="#9ADD00" fill-rule="evenodd" d="M96.882 31.713c3.04-2.35-9.85-18.55-34.62-21.78-24.78-3.23-35.01 6.66-31.66 15.59 3.35 8.93 48.85 19.66 66.28 6.19Zm-46.87 45.94c29.45.67 16.76-30.05-9.38-35.69-26.15-5.64-29.44 9.63-23.29 20.79 6.15 11.16 32.67 14.9 32.67 14.9Z" clip-rule="evenodd" opacity=".3"/>
  <path fill="url(#g)" fill-rule="evenodd" d="M53.882 14.093c9.3 3.04-7.05 11.39-17.75 8.42-10.71-2.98-2.49-15.03 17.75-8.42Z" clip-rule="evenodd" opacity=".8"/>
  <path fill="#9BB900" fill-rule="evenodd" d="M55.682 18.403c1.67-2.83-5.92-6.13-15.65-4.57-9.72 1.56-8.36 5.54-8.36 5.54s.29 3.7 11.09 3.71c10.8.01 12.92-4.68 12.92-4.68Z" clip-rule="evenodd"/>
  <path fill="url(#h)" fill-rule="evenodd" d="M89.962 68.423c7.28 2.48-5.55 8.96-13.96 6.62-8.42-2.34-9.04-14.46 13.96-6.62Z" clip-rule="evenodd" opacity=".8"/>
  <path fill="#FFB04B" fill-rule="evenodd" d="M91.382 71.803c1.31-2.23-4.66-4.82-12.31-3.59-7.65 1.23-6.58 4.36-6.58 4.36s.23 2.91 8.72 2.92c8.5.01 10.17-3.69 10.17-3.69Z" clip-rule="evenodd"/>
  <path fill="#9ADD00" fill-rule="evenodd" d="M35.142 41.044c5.29 1.7.15 16.64-13.19 15.14s-4.04-20.68 13.19-15.14Z" clip-rule="evenodd" opacity=".3"/>
  <path fill="#FFDD81" fill-rule="evenodd" d="M62.532 93.983c8.42-1.74-29.64-13.48-41.72-17.44-12.07-3.97-11.09 16.76 41.72 17.44Z" clip-rule="evenodd" opacity=".5"/>
  <path fill="#FFDD81" fill-rule="evenodd" d="M21.202 14.983c3.32.42 4 12.63 1.53 15.16-2.47 2.53-14.21 9.03-14.21 9.03s-.67-12.2 1.37-17.13c2.04-4.94 11.31-7.06 11.31-7.06Z" clip-rule="evenodd" opacity=".7"/>
  <path fill="#FFDD81" fill-rule="evenodd" d="M121.972 59.423c-.49 2.94-5.51 10.02-6.15 10.24-.64.22 7.02-16.11 0-27.27s-14.54-20.17-14.54-20.17 16.64 9.66 20.69 17.94c4.05 8.29.38 16.93 0 19.26Z" clip-rule="evenodd" opacity=".5"/>
  <path fill="#FFDD81" fill-rule="evenodd" d="M37.192 90.413c6.48.32-2.47-9.18-11.4-11.31-8.93-2.13-11.4 1.56-11.11 1.85.3.29 8.57 8.78 22.51 9.46Z" clip-rule="evenodd" opacity=".7"/>
  <path fill="#EDE0A9" fill-rule="evenodd" d="M56.112 91.653c2.34-.67 3.01-4.01-3.37-6.28-6.38-2.27-8.88 2.12-9.13 3.41s6.2 4.68 12.5 2.87Zm2.07-5.82c.13 1.04-1.01 1.6-2.24.28-1.22-1.32 2.12-1.21 2.24-.28Zm-43.94-9.12c2.97-.85 1.84-5.02-2.27-5.75-4.1-.73-4.09 2.1-3.78 3.05.31.94 3.65 3.39 6.05 2.7Z" clip-rule="evenodd"/>
  <path fill="#EDE0A9" fill-rule="evenodd" d="M61.002 91.893c-2.37-1.65-3.73-5.04 3.82-6.36 7.55-1.32 11.54 2.71 11.87 5.39.34 2.68-12.46 3.22-15.69.97Z" clip-rule="evenodd"/>
  <path fill="#CC81B3" fill-rule="evenodd" d="M75.152 88.053s1.23 1.69-.04 2.9-7.49 2.27-11.89 1.12-3.96-3.71-3.96-3.71-.89 1.22.61 3.45c1.5 2.22 6.47 2.51 12.58 1.45 6.11-1.07 5.11-2.82 2.7-5.21Zm-17.78.34s1.4 4.1-5.86 3.36c-7.26-.74-7.51-3.08-7.27-4.35 0 0-1.05.96-.79 2 .26 1.03 3.81 3.43 9.51 3.42 5.68-.01 5.97-2.23 4.41-4.43Zm.64-2.859c.17.3.02 1.26-1.15.93-1.18-.33-1.08-1.11-1.08-1.11s-.22.09-.2.47c.02.38.86 1.27 1.92 1.27 1.06.01 1.06-.96.51-1.56Zm-42.11-10.951s-.99 2.76-4.12 1.64c-3.14-1.12-4.02-2.96-3.21-4.55 0 0-1.28 1.08-.63 2.68.64 1.6 3.8 3.13 6.26 2.87 2.46-.27 1.7-2.64 1.7-2.64Z" clip-rule="evenodd" opacity=".7"/>
  <path fill="#EDE0A9" fill-rule="evenodd" d="M91.682 87.183c1.99-2.36-1.26-5.19-5.08-3.52-3.82 1.67-2.23 4.02-1.45 4.63.79.61 4.93.79 6.53-1.11Z" clip-rule="evenodd"/>
  <path fill="#CC81B3" fill-rule="evenodd" d="M91.882 84.483s.71 2.84-2.52 3.65-4.99-.23-5.2-2c0 0-.46 1.61.96 2.58s4.89.49 6.8-1.1c1.91-1.58-.04-3.13-.04-3.13Z" clip-rule="evenodd" opacity=".7"/>
  <path fill="#D36F3B" fill-rule="evenodd" d="M69.082 75.693c.04-3-4.49-5.26-7.73-1.3s7.67 5.65 7.73 1.3Z" clip-rule="evenodd"/>
  <path fill="#DB83A9" fill-rule="evenodd" d="M68.772 74.323s.59 2.82-2.55 3.41c-3.15.6-5.62-1.21-5.09-3.03 0 0-.82.69-1.06 1.78-.23 1.08 2.3 3.04 6.95 2.7 4.66-.34 2.47-3.89 1.75-4.86Z" clip-rule="evenodd"/>
  <path fill="#E7792C" fill-rule="evenodd" d="M63.062 73.983c1.08 0 .94 1.65-.77 1.5-1.71-.15-.03-1.5.77-1.5Z" clip-rule="evenodd"/>
  <path fill="#D36F3B" fill-rule="evenodd" d="M112.112 33.983c.68-1.03-.03-3.33-1.85-3.55-1.82-.22-2.68 1-3.02 2.61-.34 1.6 3.7 2.7 4.87.94Zm-90.31-12.51c2.63.29 1.9-3.99-1.16-5.4-3.06-1.41-6.48 4.56 1.16 5.4Z" clip-rule="evenodd"/>
  <path fill="#DB83A9" fill-rule="evenodd" d="M23.272 19.063c.43 1.52-1.4 2.39-4.12 1.31s-1.65-3.2-1.65-3.2-.74 1.16-.8 2.13c-.06.98 2 2.87 5.61 2.81 3.62-.06.96-3.05.96-3.05Zm88.96 13.14s.73 1.34-1.74 1.76c-2.46.42-3.07-1.6-3.07-1.6s-.4.66-.32 1.32c.08.66 1.55 1.87 4.44 1.3 2.9-.56.69-2.78.69-2.78Z" clip-rule="evenodd"/>
  <path fill="#E7792C" fill-rule="evenodd" d="M109.792 30.693c.92.33.47 1.63-.56 1.96-1.04.33-1.69-.57-1.69-.57s.59-1.99 2.25-1.39Zm-89.76-14.26c1.14.57-.06 1.81-1.25 1.66-1.19-.15-.91-1.17-.91-1.17s1.14-1 2.16-.49Z" clip-rule="evenodd"/>
  <path fill="#A990D4" fill-rule="evenodd" d="M70.662 35.553c-.22.68 17.81 2.13 27.16.85 9.36-1.28 12.72-8.52 12.27-9.7-.45-1.18-6.99-9.05-23.06-6.61-19.02 2.88-16.37 15.46-16.37 15.46Z" clip-rule="evenodd"/>
  <path fill="#EABA13" fill-rule="evenodd" d="M82.032 21.743c3.28.71-2.69 3.06-4.88 2.48-2.19-.58 1.74-3.15 4.88-2.48Zm24.32 20.921c1.83.96-.27 4.26-5.21 3.68-4.94-.57 3.36-4.66 5.21-3.68Zm-87.89 4.43c3.09 1.36-.44 1.55-1.78.94-1.33-.59 1.04-1.26 1.78-.94Zm3.28-.301c.8.69-.98.86-1.8.14-.83-.71.59-1.19 1.8-.14Zm12.05 18.88c1.62-.32-6.18-3.75-9.18-3.4-3 .35 4.4 4.35 9.18 3.4Zm5.62-9.24c1.99.61-.96 1.46-2.42.95-1.47-.51-.26-1.77 2.42-.95Zm60-9.74c5.93 2.26-.48 6.14-6.62 3.01-6.14-3.13 3.26-4.29 6.62-3.01Z" clip-rule="evenodd"/>
  <path fill="url(#i)" fill-rule="evenodd" d="M65.992 33.353c.13.17.26.26.37.25l.04.56c15.14-.05 18.9-9.63 18.52-10.15-.39-.52-3.94-1.19-2.74-1.19 1.19-.01 5.73 1.25 9.57-2.85s9.43-19.04 7.37-19.75c-.13-.04-.32-.08-.57-.12-3.75-.49-20.49.49-27.41 9.05-9.41 11.66-6.64 22.43-5.15 24.2Z" clip-rule="evenodd"/>
  <path fill="url(#j)" fill-rule="evenodd" d="M97.382.373s-8.78 2.4-19.33 12.93c-10.56 10.53-12.69 18.89-12.69 18.89s-3.9-12.03 5.81-22.48c9.71-10.45 26.21-9.34 26.21-9.34Z" clip-rule="evenodd" opacity=".8"/>
  <path fill="#A1B3D4" fill-rule="evenodd" d="M65.992 33.353c.13.17.26.26.37.25l.04.56c15.14-.05 18.9-9.63 18.52-10.15-.39-.52-3.94-1.19-2.74-1.19 1.19-.01 5.73 1.25 9.57-2.85s9.43-19.04 7.37-19.75c-.13-.04-.32-.08-.57-.12l.02.16s-2.94 11.55-5.62 16.28c-2.69 4.74-12.65 5.93-12.65 5.93s3.13.65 3.44 2.22c.31 1.57-8.18 6.66-12.24 7.88-2.05.63-4.04.78-5.51.78Z" clip-rule="evenodd"/>
  <path fill="#9ADD00" fill-rule="evenodd" d="M96.802.413c.93-.43-1.79 13.81-5.71 17.57-3.93 3.77-21.15 5.19-21.15 5.19s7.85-13.87 26.86-22.76Z" clip-rule="evenodd" opacity=".5"/>
  <path fill="url(#k)" fill-rule="evenodd" d="M81.372 37.983c3.59-2.31-1.21-12.53-3.51-14.19-2.3-1.66-16.89 9.98-17.98 12.24-1.09 2.27 5.76 8.62 21.49 1.95Z" clip-rule="evenodd"/>
  <path fill="url(#l)" fill-rule="evenodd" d="M101.112 61.613c-1.68-.65 2.37-10.11 4.82-11.79 2.45-1.68 7.46 8.66 7.04 9.87-.41 1.21-6.18 4.13-11.86 1.92Z" clip-rule="evenodd"/>
  <path fill="#D96840" fill-rule="evenodd" d="M77.862 23.793c1.18.34 3.21 4.07 1.84 7.94-1.36 3.87-16.18 3.59-18.47 2.69-.59-.23 10.68-11.58 16.63-10.63Zm27.71 26.331c-1.23 1.3-3.81 6.2-1.46 8.57s5.57-3.79 4.78-6.58-2.5-2.86-3.32-1.99Z" clip-rule="evenodd"/>
  <path fill="#DB83A9" fill-rule="evenodd" d="M81.802 37.694c.44-.71.83-3.7-4.19-3.59-5.02.11-10.02 1.83-11.54 2.67-1.51.84-2.5 3.34-2.5 3.34s3.9 7.65 18.23-2.42Zm27.9 14.689s-.62 2.3-2.31 5.37c-1.24 2.26-4.28 4.44-4.28 4.44s1.69 1.4 7.08 1.3c4.15-.08 2.78-3.8 2.78-3.8s-.29-2.99-3.27-7.31Z" clip-rule="evenodd"/>
  <path fill="#9ADD00" fill-rule="evenodd" d="M106.192 58.324c-1.73.97-.63-4.58 1.01-5.67 1.64-1.1 2.47 3.71-1.01 5.67Zm2.28 2.049c-2.24.24-.41-3.93 1.48-4.96 1.89-1.03 3.45 3.47-1.48 4.96Zm-30.77-27.7c2.5-1.82.37-6.63-2.63-7.28-3-.64-8.38 5.43-9.15 6.93-.78 1.5 7.93 3.16 11.78.35Zm1.86 1.84c2.27.9-.99 2.95-5.48 2.45s2.1-3.8 5.48-2.45Z" clip-rule="evenodd" opacity=".3"/>
  <path fill="#B2562B" fill-rule="evenodd" d="M72.682 34.683s-2.3 1.17-3.84 1.35c-1.55.18-4.2-1.12-4.2-1.12s3.21-.81 8.04-.23Zm33.85 24.34s1.1-1.98 1.51-2.82c.41-.84 1.12-2.22 1.12-2.22s1.1 2.3-2.63 5.04Z" clip-rule="evenodd"/>
  <path fill="#EA8E40" fill-rule="evenodd" d="M104.142 61.393s2.03-1.81 2.61-2.65c.58-.84 1.84-3.65 1.84-3.65s-4.19 3.36-4.45 6.3Zm-25.76-28.26s-3.41.86-5.98.88c-2.57.02-4.95-.68-6.42-.58-1.46.1-2.99 1.34-2.99 1.34s1.36.2 1.64.14c.28-.06 4.87-.85 8.04-.23.01 0 4.09-.48 5.71-1.55Z" clip-rule="evenodd"/>
  <path fill="#B0FF00" fill-rule="evenodd" d="M57.262 33.394c.93-3.3-3.45-2.59-3.95 0-.51 2.6 3.38 2.05 3.95 0Zm-6.57-4.031c.32.53-1.08 1.39-2.3 0-1.2-1.39 1.99-.53 2.3 0Zm2.57 22.721c1.05 2.41-3.14 1.59-4.23 0-1.08-1.59 3.49-1.72 4.23 0Zm7.7-1.461c-.18.66-2.1 1.14-2.55-.65-.44-1.78 3-1 2.55.65Zm-3.14 2.59c.93.57.04 1.23-1.53.94-1.58-.3.76-1.41 1.53-.94Zm20.56 4.331c1.84 1.07-3.9 3.37-5.71 1.67-1.8-1.71 1.83-3.94 5.71-1.67Zm3.62-12.961c1.17 1.32-3.13.6-4.66 0-1.54-.6 2.78-2.12 4.66 0Zm-48.38-19.23c.93 1.58-1.11 1.26-1.7 0-.6-1.27 1.29-.7 1.7 0Z" clip-rule="evenodd"/>
  <path fill="#B0FF00" fill-rule="evenodd" d="M62.802 54.553c1.46 1.15-3.77 2.67-5.39 1.99-1.61-.69 2.53-4.24 5.39-1.99Z" clip-rule="evenodd"/>
  <path fill="#DB83A9" fill-rule="evenodd" d="M51.772 50.053c-1.58-1.21 8.29-7.54 20-4.11 9.35 2.74-9.23 12.38-20 4.11Z" clip-rule="evenodd"/>
  <path fill="url(#m)" fill-rule="evenodd" d="M71.112 45.833c2.29-3.59 1.16-8.71-1.4-11.63-2.56-2.92-16.97-4.57-21.14-1.74-4.17 2.83 1.22 14.47 4.54 17.18 3.32 2.72 13.79 2.78 18-3.81Z" clip-rule="evenodd"/>
  <path fill="#DB83A9" fill-rule="evenodd" d="M69.382 34.433c4.97 3.93-6.74 16.22-15.14 10.93-8.4-5.29-6.93-12.15-4.71-12.89 2.21-.75 13.95-2.71 19.85 1.96Z" clip-rule="evenodd"/>
  <path fill="#FFA7FF" fill-rule="evenodd" d="M69.252 33.784c1 1.37-6.27 5.44-12.38 5.26-6.11-.18-9.04-3.81-9.28-5.45-.24-1.64 3.8-2.54 9.86-2.56 6.06-.03 11.09 1.77 11.8 2.75Z" clip-rule="evenodd"/>
  <path fill="#FFA7FF" fill-rule="evenodd" d="M69.572 34.583c1.1.01 3.12 5.33 1.73 9.06-1.39 3.73-6.92 6.41-7.53 6.41-.62 0-4.9-9.57-4.99-9.95-.1-.37 6.38-.98 10.79-5.52Z" clip-rule="evenodd"/>
  <path fill="#DB83A9" fill-rule="evenodd" d="M61.982 50.374c.85-.22-2.68-8.47-3.96-9.6-1.28-1.13-7.79-2.68-10.16-5.55 0 0-.96 2.19 1.44 7.8 2.39 5.61 6.23 9.05 12.68 7.35Z" clip-rule="evenodd"/>
  <path fill="ivory" fill-rule="evenodd" d="M61.792 38.413c.16.02-2.61 2.09-3.37 2.36-.76.26-4.54-2.14-4.54-2.14s2.53-.9 7.91-.22Zm-8.45.07s-1.44-.28-2.87-1.1c-1.43-.82-2.14-2.22-2.14-2.22s3.23 2.65 5.01 3.32Z" clip-rule="evenodd"/>
  <path fill="#DB83A9" fill-rule="evenodd" d="M45.382 49.914c1.82.62 2.06 4.88-4.06 5.38-6.12.5-3-7.8 4.06-5.38Z" clip-rule="evenodd"/>
  <path fill="url(#n)" fill-rule="evenodd" d="M45.842 51.063c.5-1.3-2.47-5.63-5.48-4.6-3.01 1.03-3.99 3.96-2.42 6.42 1.57 2.46 6.27 2.39 7.9-1.82Z" clip-rule="evenodd"/>
  <path fill="#DB83A9" fill-rule="evenodd" d="M45.042 49.684c.27 1.04-3.49 3.96-6.4 2.13-2.91-1.82 1.18-5.01 2.67-5.07 1.5-.06 3.4 1.64 3.73 2.94Z" clip-rule="evenodd"/>
  <path fill="#FFA7FF" fill-rule="evenodd" d="M44.942 48.513c.37.87-1.65 2.63-4.14 2.85-2.49.21-3.27-1.33-3.31-1.79-.05-.46 2.26-3.29 3.75-3.11 1.49.18 3.22.91 3.7 2.05Z" clip-rule="evenodd"/>
  <path fill="#FFA7FF" fill-rule="evenodd" d="M42.372 54.254c.24.16 2.26-1.37 2.89-2.39.63-1.02.16-2.45-.07-2.43-.23.02-2.13 1.62-3.65 2.05 0 0-.45 1.93.83 2.77Z" clip-rule="evenodd"/>
  <path fill="#DB83A9" fill-rule="evenodd" d="M41.542 54.353c.28-.05-.37-2.48-.61-2.65-.24-.17-2.63-.26-3.61-1.83.01 0-.66 4.1 4.22 4.48Z" clip-rule="evenodd"/>
  <path fill="ivory" fill-rule="evenodd" d="M42.002 51.134s-.37.87-.62.98c-.26.11-1.56-.73-1.56-.73s.92.07 2.18-.25Zm-2.51.159s-.94-.5-1.31-.8c-.37-.3-.59-.59-.59-.59s.33 1.37 1.9 1.39Z" clip-rule="evenodd"/>
  <defs>
    <linearGradient id="a" x1="63.254" x2="63.254" y1="99.829" y2="4.988" gradientUnits="userSpaceOnUse">
      <stop stop-color="#63902F"/>
      <stop offset=".417" stop-color="#84B017"/>
      <stop offset=".769" stop-color="#99C508"/>
      <stop offset="1" stop-color="#A1CC02"/>
    </linearGradient>
    <linearGradient id="b" x1="63.254" x2="63.254" y1="99.829" y2="40.838" gradientUnits="userSpaceOnUse">
      <stop stop-color="#BA5270"/>
      <stop offset=".124" stop-color="#C56D76"/>
      <stop offset=".428" stop-color="#DEAB83"/>
      <stop offset=".686" stop-color="#F0D98D"/>
      <stop offset=".885" stop-color="#FBF593"/>
      <stop offset="1" stop-color="#FFFF95"/>
    </linearGradient>
    <linearGradient id="c" x1="63.282" x2="63.282" y1="99.829" y2="74.894" gradientUnits="userSpaceOnUse">
      <stop stop-color="#BA5270"/>
      <stop offset=".124" stop-color="#C56D76"/>
      <stop offset=".428" stop-color="#DEAB83"/>
      <stop offset=".686" stop-color="#F0D98D"/>
      <stop offset=".885" stop-color="#FBF593"/>
      <stop offset="1" stop-color="#FFFF95"/>
    </linearGradient>
    <linearGradient id="d" x1="63.513" x2="63.513" y1="83.538" y2="9.196" gradientUnits="userSpaceOnUse">
      <stop stop-color="#63902F"/>
      <stop offset=".417" stop-color="#84B017"/>
      <stop offset=".769" stop-color="#99C508"/>
      <stop offset="1" stop-color="#A1CC02"/>
    </linearGradient>
    <linearGradient id="e" x1="63.385" x2="63.385" y1="85.273" y2="43.338" gradientUnits="userSpaceOnUse">
      <stop stop-color="#8E765E"/>
      <stop offset=".09" stop-color="#938168"/>
      <stop offset=".499" stop-color="#A8AE92"/>
      <stop offset=".816" stop-color="#B5CAAC"/>
      <stop offset="1" stop-color="#BAD4B6"/>
    </linearGradient>
    <linearGradient id="f" x1="27.177" x2="27.177" y1="32.132" y2="17.392" gradientUnits="userSpaceOnUse">
      <stop stop-color="#8E765E"/>
      <stop offset=".09" stop-color="#938168"/>
      <stop offset=".499" stop-color="#A8AE92"/>
      <stop offset=".816" stop-color="#B5CAAC"/>
      <stop offset="1" stop-color="#BAD4B6"/>
    </linearGradient>
    <linearGradient id="g" x1="55.801" x2="31.948" y1="20.54" y2="15.361" gradientUnits="userSpaceOnUse">
      <stop stop-color="#8E765E"/>
      <stop offset=".09" stop-color="#938168"/>
      <stop offset=".499" stop-color="#A8AE92"/>
      <stop offset=".816" stop-color="#B5CAAC"/>
      <stop offset="1" stop-color="#BAD4B6"/>
    </linearGradient>
    <linearGradient id="h" x1="91.494" x2="70.743" y1="73.371" y2="68.864" gradientUnits="userSpaceOnUse">
      <stop stop-color="#8E765E"/>
      <stop offset=".09" stop-color="#938168"/>
      <stop offset=".499" stop-color="#A8AE92"/>
      <stop offset=".816" stop-color="#B5CAAC"/>
      <stop offset="1" stop-color="#BAD4B6"/>
    </linearGradient>
    <linearGradient id="i" x1="83.477" x2="80.963" y1="32.925" y2="1.121" gradientUnits="userSpaceOnUse">
      <stop stop-color="#5C9020"/>
      <stop offset=".324" stop-color="#669919"/>
      <stop offset=".879" stop-color="#82AF05"/>
      <stop offset="1" stop-color="#89B500"/>
    </linearGradient>
    <linearGradient id="j" x1="82.334" x2="80.013" y1="30.843" y2="1.474" gradientUnits="userSpaceOnUse">
      <stop stop-color="#AE9D24"/>
      <stop offset=".265" stop-color="#C9BD6C"/>
      <stop offset=".522" stop-color="#E0DAAB"/>
      <stop offset=".738" stop-color="#F1EED9"/>
      <stop offset=".904" stop-color="#FBFAF5"/>
      <stop offset="1" stop-color="#fff"/>
    </linearGradient>
    <linearGradient id="k" x1="68.701" x2="76.55" y1="42.24" y2="23.233" gradientUnits="userSpaceOnUse">
      <stop stop-color="#A93D54"/>
      <stop offset=".277" stop-color="#AC454A"/>
      <stop offset=".754" stop-color="#B3592E"/>
      <stop offset="1" stop-color="#B8661D"/>
    </linearGradient>
    <linearGradient id="l" x1="107.906" x2="103.138" y1="62.503" y2="50.958" gradientUnits="userSpaceOnUse">
      <stop stop-color="#A93D54"/>
      <stop offset=".277" stop-color="#AC454A"/>
      <stop offset=".754" stop-color="#B3592E"/>
      <stop offset="1" stop-color="#B8661D"/>
    </linearGradient>
    <linearGradient id="m" x1="61.228" x2="65.09" y1="52.177" y2="26.3" gradientUnits="userSpaceOnUse">
      <stop stop-color="#FF9572"/>
      <stop offset=".017" stop-color="#FF9271"/>
      <stop offset=".359" stop-color="#FF5465"/>
      <stop offset=".648" stop-color="#FF265C"/>
      <stop offset=".871" stop-color="#FF0A56"/>
      <stop offset="1" stop-color="#FF0054"/>
    </linearGradient>
    <linearGradient id="n" x1="40.951" x2="42.447" y1="54.688" y2="44.16" gradientUnits="userSpaceOnUse">
      <stop stop-color="#FF9572"/>
      <stop offset=".017" stop-color="#FF9271"/>
      <stop offset=".359" stop-color="#FF5465"/>
      <stop offset=".648" stop-color="#FF265C"/>
      <stop offset=".871" stop-color="#FF0A56"/>
      <stop offset="1" stop-color="#FF0054"/>
    </linearGradient>
  </defs>
</svg>
