<svg xmlns="http://www.w3.org/2000/svg" width="180" height="138" fill="none" viewBox="0 0 180 138">
  <path fill="url(#a)" fill-rule="evenodd" d="M17.384 114.407c38.39 35.22 106.61 23.71 129.09 10.09 20.28-12.27 37.92-36.9 31.98-56.55-1.76-5.82-5.58-11.2-12.02-15.69-33.66-23.5-91.08-42.77-131.83-14.94-10.15 6.94-23.13 16.66-29.95 28.71-7.6 13.47-7.53 29.81 12.73 48.38Z" clip-rule="evenodd"/>
  <path fill="url(#b)" fill-rule="evenodd" d="M17.384 114.407c38.39 35.22 106.61 23.71 129.09 10.09 20.28-12.27 37.92-36.9 31.98-56.55l-.01-.01s9.58 57.76-86.8 63.05c-96.38 5.28-86.98-64.96-86.98-64.96h-.01c-7.6 13.47-7.53 29.81 12.73 48.38Z" clip-rule="evenodd" opacity=".5"/>
  <path fill="url(#c)" fill-rule="evenodd" d="M165.505 108.277s-44.43 27.75-82.65 25.9c-38.22-1.84-73.71-28.53-73.71-28.53s19.7 30.04 70.01 31.92c50.31 1.89 74.77-17.14 86.35-29.29Z" clip-rule="evenodd" opacity=".5"/>
  <path fill="url(#d)" fill-rule="evenodd" d="M168.364 59.178c6.85 17.13-19.36 57.269-81.13 55.749-61.77-1.52-77.41-30.49-75.41-50.83 2-20.33 41.51-40.39 86.28-36.6 44.76 3.8 67.29 24.26 70.26 31.68Z" clip-rule="evenodd"/>
  <path fill="url(#e)" fill-rule="evenodd" d="M168.365 59.177c2.19 11.37-18.46 50.82-76.31 52.63-57.85 1.81-80.91-25.1-79.6-50.95 0 0-1.55 5.11-1.96 12.65-.41 7.54 6.75 46.09 81.97 42.16 75.22-3.94 81.48-39.06 75.9-56.49Z" clip-rule="evenodd" opacity=".8"/>
  <path fill="url(#f)" fill-rule="evenodd" d="M99.644 31.607c7.25 4.18-17.22 39.77-46.04 39.77-25.45 0-30.97-12.4-32.66-17.63-1.69-5.24 34.39-47.66 78.7-22.14Z" clip-rule="evenodd"/>
  <path fill="url(#g)" fill-rule="evenodd" d="M89.284 26.767c5.63 2.3-9.11 25.34-32.72 29.75-20.28 3.79-31.58-1.54-33.27-5.84-1.68-4.31 26.35-40.12 65.99-23.91Z" clip-rule="evenodd"/>
  <path fill="url(#h)" fill-rule="evenodd" d="M88.564 26.487c3.04 1.18-6.81 21.4-29.7 24.96-22.88 3.56-34.03.76-34.68-4 0 0-1.65 2.77-1.5 3.85.15 1.08 8.97 10.73 35.11 6.52 26.14-4.21 33.61-27.13 33.65-28.66.04-1.54-2.88-2.67-2.88-2.67Z" clip-rule="evenodd" opacity=".8"/>
  <path fill="#A58DA9" fill-rule="evenodd" d="M89.814 31.387s-7.83 5.88-25.47 6.39c-17.64.5-23.7.5-29.75 1.92-6.06 1.41-7.86 4.13-7.86 4.13s4.52-9.43 28.23-16.32c23.71-6.89 34.85 3.88 34.85 3.88Z" clip-rule="evenodd"/>
  <path fill="url(#i)" fill-rule="evenodd" d="M99.305 40.148s-10.03 20.77-34.77 26.72c-24.73 5.95-42.69-9.54-43.37-14.81 0 0-1.5 1.28-1.5 3.95s9.61 18.04 42.82 14.15c33.22-3.9 36.82-30.01 36.82-30.01Z" clip-rule="evenodd" opacity=".5"/>
  <path fill="url(#j)" fill-rule="evenodd" d="M90.294 30.367c-.18.58-.48 1.02-.48 1.02s-9.27-.18-23.04.45c-3.66.17-7.65.39-11.87.69-20.06 1.43-29.46 12.62-29.46 12.62-.88-3.5-1.15-6.22-1.02-8.34.41-7.64 5.8-7.51 5.8-7.51-1.38-6.66 1.27-8.07 1.27-8.07s-1.32-9.02 4.28-11.78c7.86-3.88 17.75 5.92 17.75 5.92-.15-6.26 2.6-3.23 2.6-4.04 0-.8.16-19.38 8.13-7.2 14.56-10.73 13.41 7.3 13.41 7.3 10.35 3.73 6.06 15.6 6.06 15.6 2.08-1.24 1.7.56 1.7.56 5.02-.35 5.24 1.54 4.87 2.78Z" clip-rule="evenodd"/>
  <path fill="#DB83A9" fill-rule="evenodd" d="M39.964 89.877s-5.5 1.63-12.86 0c-7.36-1.63-11.63-11.21-12.36-13.43-.72-2.23 12.37-3.59 25.22 13.43Zm88.68-49.49s-12.65 3.54-23.84.01c-11.19-3.53-14.96-11.23-14.99-12.08-.03-.84 22.96-2.28 38.83 12.07Z" clip-rule="evenodd"/>
  <path fill="url(#k)" fill-rule="evenodd" d="M128.645 40.388c2-.17-3.68-18.39-9.66-26.85s-18.24-6.24-19.62-4.02c-1.38 2.22-4.45 21.48-4.45 21.48s.62 12.2 33.73 9.39Z" clip-rule="evenodd"/>
  <path fill="url(#l)" fill-rule="evenodd" d="M39.314 90.097c3.84.06-3.58-16.15-8.94-20.19-5.37-4.04-11.04 3.63-10.58 10.09.46 6.46 6.85 9.9 19.52 10.1Z" clip-rule="evenodd"/>
  <path fill="#DB83A9" fill-rule="evenodd" d="M22.134 71.997c2.92.21 7.68 12.14 7.73 14.36.05 2.22-2.76 2.36-7.15-1.01-4.4-3.36-3.52-11.03-.58-13.35Zm94.25-31.61c2.68-.69-12.06-27.02-14.2-29.26-2.14-2.24-3.11-.96-3.11-.96s-3.94 19.4-3.84 20.83c.09 1.43 3.57 9.78 21.15 9.39Z" clip-rule="evenodd"/>
  <path fill="#D96840" fill-rule="evenodd" d="M37.934 81.917c1.48 4.1-6.49 2.08-9.2-1.25-2.71-3.33-4.82-8.36-5.21-9.13-.4-.77 5.05-2.99 8.07-.55 3.02 2.45 6.34 10.93 6.34 10.93Zm84.1-63.24c3.59 7.05-1.01 11.7-3.25 13.51-2.25 1.82-14.62-17.19-15.43-20.73-.82-3.53 11.87-6.16 18.68 7.22Z" clip-rule="evenodd"/>
  <path fill="#B2562B" fill-rule="evenodd" d="M28.914 82.827s-.16-1.83-.62-3.38c-.46-1.55-2.33-3-2.33-3s.69 4.34 2.95 6.38Zm83.45-54s-.45-3.83-1.65-6.09c-1.2-2.25-3.89-4.22-3.89-4.22s2.67 6.37 5.54 10.31Z" clip-rule="evenodd"/>
  <path fill="#9ADD00" fill-rule="evenodd" d="M116.504 11.697c2.38 2.09-4.01 8.18-6.11 7.77-2.1-.41-6.54-6.59-6.85-8.34-.3-1.75 7.57-4.17 12.96.57Zm-6.919 21.97c.53-2.21-4.3-19.27-8.49-19.46-4.19-.19-6.54 13.04-2.5 18.1 4.04 5.07 10.7 2.57 10.99 1.36Zm-82.43 53.17c.89.22-1.94-12.79-4.6-12.79-2.65 0-4.19 10.63 4.6 12.79Zm-1.941-13.93c-.34-2.42 5.16-2.86 7.59-.2 2.43 2.66 2.91 6.22 2.91 6.93 0 .7-9.2-1.48-10.5-6.73Z" clip-rule="evenodd" opacity=".3"/>
  <path fill="#DB83A9" fill-rule="evenodd" d="M127.205 50.687s-2.71 1.76-11.41.62c-8.7-1.14-14.76-8.4-16.23-11.04-1.46-2.65 14.47-3.07 27.64 10.42Z" clip-rule="evenodd"/>
  <path fill="url(#m)" fill-rule="evenodd" d="M103.114 40.877c-.77-3.14 4.98-7.49 9.69-8.88 4.71-1.4 10.41 7.46 12.65 11.91s2.02 5.55 1.75 6.78c-.27 1.22-21.1 2.36-24.09-9.81Z" clip-rule="evenodd"/>
  <path fill="#DB83A9" fill-rule="evenodd" d="M121.034 51.367s-3.06-11.3-9.94-13.55c-6.87-2.25-7.73 3.95-7.73 3.95s2.88 8.91 17.67 9.6Z" clip-rule="evenodd"/>
  <path fill="#D96840" fill-rule="evenodd" d="M126.354 45.807s-4.48 1.43-7.87-1.67c-3.4-3.1-6.82-8.22-7.11-8.96-.29-.74.19-3.8 4.25-2.66 4.07 1.15 9.14 9.36 10.73 13.29Z" clip-rule="evenodd"/>
  <path fill="#B2562B" fill-rule="evenodd" d="M119.125 46.407s-.09-5.45-5.5-7.27c0 0 2.45 3.99 5.5 7.27Z" clip-rule="evenodd"/>
  <path fill="#9ADD00" fill-rule="evenodd" d="M121.974 38.197c1.26 2.22-5.16 2.31-7.94.27-2.77-2.04-2.98-5.55-.62-6.16 2.35-.6 6.96 3.07 8.56 5.89Zm-4.03 12.38c1.42.12-1.38-9.67-6.87-10.19-5.49-.52-6.2 3.72-5.88 4.4.32.68 5.06 5.16 12.75 5.79Z" clip-rule="evenodd" opacity=".3"/>
  <path fill="url(#n)" fill-rule="evenodd" d="M154.234 50.227c10.42 4.48-7.9 16.81-19.9 12.42-12-4.39-2.78-22.18 19.9-12.42Z" clip-rule="evenodd" opacity=".8"/>
  <path fill="#9BB900" fill-rule="evenodd" d="M156.255 56.577c1.87-4.18-6.64-9.04-17.54-6.74-10.9 2.3-9.37 8.18-9.37 8.18s.32 5.46 12.43 5.48c12.1.02 14.48-6.92 14.48-6.92Z" clip-rule="evenodd"/>
  <path fill="url(#o)" fill-rule="evenodd" d="M71.404 92.577c9.88 4.25-7.49 15.94-18.87 11.78s-2.63-21.04 18.87-11.78Z" clip-rule="evenodd" opacity=".8"/>
  <path fill="#86A500" fill-rule="evenodd" d="M73.324 98.597c1.77-3.96-6.29-8.57-16.63-6.39-10.33 2.18-8.89 7.76-8.89 7.76s.31 5.17 11.78 5.19c11.48.02 13.74-6.56 13.74-6.56Z" clip-rule="evenodd"/>
  <path fill="#9ADD00" fill-rule="evenodd" d="M160.685 65.027c6.29 3.4-1.02 24.67-33.48 35.66-32.46 11-46.36 3.91-48.45 2.29-2.08-1.62 5.43-13.12-13.58-16.15-19.01-3.03-24.99-8.62-26.37-12.79-1.38-4.17 14.59.32 39.95-5.26 25.36-5.58 21.1-18.49 28.06-17.38 6.96 1.11 15.08 16.05 32.56 15.44 17.48-.6 21.31-1.81 21.31-1.81Z" clip-rule="evenodd" opacity=".3"/>
  <path fill="#9ADD00" fill-rule="evenodd" d="M146.014 91.647c17.42-12.26-9.59-23.03-36.78-14.02-27.19 9.01-25.94 26.07-25.64 27.53.29 1.46 33.48 6.84 62.42-13.51Zm-51.819-28.94c4.41-.1-11.78 20.29-24.77 22.51-12.99 2.22-26.31-9.46-27.09-11.25-.78-1.8 18.68 1.95 51.86-11.26Z" clip-rule="evenodd" opacity=".3"/>
  <path fill="#A9B1D4" fill-rule="evenodd" d="M127.365 66.037c4.13 1.28-9.48 8.82-17.08 6.8-7.6-2.02 3.85-10.91 17.08-6.8Zm-30.22 11.01c3.22.6-3.53 4.13-6.13 4.53-2.61.41.22-5.63 6.13-4.53Zm-51.561 7.17c4.46 5.13-2.89 3.84-4.43 0-1.53-3.84 2.93-1.73 4.43 0Z" clip-rule="evenodd" opacity=".2"/>
  <path fill="#FFDD81" fill-rule="evenodd" d="M96.344 127.447c3.37-1.32-13.97-7.7-39.53-13.59-25.57-5.89-32.07-4.28-32.91-3.88-.84.41 15.62 22.02 72.44 17.47Zm-27.84-62.48c12.63-3.84-4.63-6.09-20.77-6.14-16.14-.05-17.87 1.56-17.87 1.56s11.62 12.79 38.64 4.58Zm103.22 29.8c1.56-2.62-3.89 3.36-30.01 10.88-26.13 7.53-49.25 10.02-49.25 10.02s16.84 12.16 44.52 3.98c27.69-8.18 34.74-24.88 34.74-24.88Z" clip-rule="evenodd" opacity=".7"/>
  <path fill="#EA8E40" fill-rule="evenodd" d="M38.024 83.337s-1.59 1.3-4.46.39-4.51-2.95-4.66-3.51c-.14-.56-.91-2.25-1.85-3.17-.94-.92-2.21-2.73-2.21-2.73l1.11 2.12s2.09 1.09 2.83 5.4c0 0 1.41 1.52 5.17 2.37 3.76.86 4.07-.87 4.07-.87Zm83.251-37.59s-1.67.66-1.91.66-.28-2.8-2.41-4.78c-2.13-1.98-3.34-2.49-3.34-2.49s-1.6-1.09-2.68-1.37c0 0 1.39.18 2.99 1.23 1.6 1.05 3.82.59 6.1 6.07.01.01.4.75 1.25.68Zm-5.391-15.17s-2.74-.62-3.53-1.76c0 0-.13-8.04-5.54-10.31l-3.14-5.26s3.48 4.03 4.86 5.04c1.38 1.01 3.47 4.08 4.28 6.81.81 2.74 3.07 5.48 3.07 5.48Z" clip-rule="evenodd"/>
  <path fill="#EABA13" fill-rule="evenodd" d="M127.985 40.737c3.68 1.05-3.02 4.51-5.47 3.66-2.45-.86 1.95-4.66 5.47-3.66Zm27.259 30.87c2.05 1.42-.3 6.29-5.84 5.44-5.53-.85 3.76-6.88 5.84-5.44Zm-98.509 6.549c3.46 2.01-.49 2.28-1.99 1.39-1.5-.89 1.16-1.88 1.99-1.39Zm3.68-.449c.9 1.02-1.1 1.26-2.02.21-.93-1.06.66-1.76 2.02-.21Zm-16.981 22.25c1.82-.48-6.93-5.54-10.29-5.02-3.37.52 4.93 6.43 10.29 5.02Zm36.781-8.02c2.24.91-1.07 2.16-2.72 1.4-1.64-.75-.28-2.62 2.72-1.4Zm67.249-14.371c6.65 3.33-.53 9.07-7.42 4.44-6.88-4.63 3.65-6.33 7.42-4.44Z" clip-rule="evenodd"/>
  <path fill="#B0FF00" fill-rule="evenodd" d="M100.165 70.207c1.04-4.42-3.87-3.48-4.43 0-.57 3.48 3.79 2.74 4.43 0Zm-82.57-3.5c.36.71-1.22 1.86-2.57 0-1.36-1.86 2.22-.7 2.57 0Zm72.23 26.531c1.17 3.23-3.52 2.14-4.74 0-1.21-2.14 3.9-2.31 4.74 0Zm8.63-1.951c-.2.88-2.36 1.53-2.86-.87s3.36-1.35 2.86.87Zm-3.531 3.461c1.04.76.05 1.65-1.72 1.25-1.75-.39.87-1.87 1.72-1.25Zm23.061 5.809c2.06 1.44-4.37 4.52-6.4 2.24-2.02-2.28 2.04-5.28 6.4-2.24Zm4.05-17.38c1.31 1.77-3.51.8-5.23 0-1.72-.8 3.12-2.85 5.23 0Zm-86.21-12.37c1.04 2.11-1.24 1.69-1.91 0-.66-1.7 1.46-.93 1.91 0Z" clip-rule="evenodd"/>
  <path fill="#B0FF00" fill-rule="evenodd" d="M100.514 96.548c1.64 1.54-4.23 3.58-6.04 2.67-1.81-.91 2.83-5.68 6.04-2.67Z" clip-rule="evenodd"/>
  <path fill="#EDE0A9" fill-rule="evenodd" d="M115.665 125.217c3.19-2.21-4.91-9.7-11.24-9.27-6.34.43-11.95 5.47-12.98 8.68-1.03 3.21 14.72 7.19 24.22.59Zm-25.121-8.02c1.6.45-1.14 7.69-11.26 6.37-10.12-1.33-10.31-5.84-10.66-6.37-.35-.53 11.25-3.01 21.92 0Zm-47.53 4.48c6.23-.05 1.82-10.02-6.66-12.73-8.48-2.71-12.31 1.7-12.85 3.3-.53 1.6 4.5 9.54 19.51 9.43Zm-15.689-17.45c1.73 3.31-7.12 4.9-9.37-.61-2.25-5.52 6.47-4.93 9.37.61Zm132.08-5.83c3.98 1.65 3.04 7.27-3.44 9.91-6.48 2.64-10.07-2.17-10.11-3.89-.04-1.72 9.47-7.72 13.55-6.02Zm-69.391 31.8c2.85-1.42-3.83-5.39-8.05-3.18-4.22 2.21 2.95 5.72 8.05 3.18Z" clip-rule="evenodd"/>
  <path fill="#CC81B3" fill-rule="evenodd" d="M45.794 117.947s-.86 3.02-9.6 1.78-11.65-6.13-11.96-6.78c-.31-.65.43-2.4.43-2.4s-1.38 1.41-1.55 2.34c-.17.93 3.32 5.78 10.94 8.55 7.61 2.77 11.7 1.47 12.26 0 .57-1.47-.52-3.49-.52-3.49Zm-18.47-13.72s-.17 3.24-5.11 2c-4.94-1.24-4.53-4.91-4.53-4.91s-1.15 4.01 4.14 5.92c5.29 1.91 6.55-.9 5.5-3.01Zm62.49 12.78c2.04 2.32-2.25 5.93-9.87 6.07-7.61.14-10.9-5.34-10-6.42 0 0-1.3.32-1.55.68-.26.35 2.45 6.12 11.86 6.77 9.4.65 11.67-4.99 11.37-6.1-.23-.85-1.81-1-1.81-1Zm-.129 10.87s2.64 2.83-3.73 2.92c-6.19.09-4.75-3.26-4.75-3.26s-.63.52-.67 1.25c-.04.73 2.51 2.78 6.42 2.52 3.9-.27 5.33-1.69 2.73-3.43Zm25.549-6.61s3.37 5.55-9.43 6.27c-12.8.72-13.66-4.36-13.66-4.36s-.75.17-1.02 2.21c-.32 2.41 7.39 4.98 16.9 3.4 9.31-1.55 10.21-3.62 7.21-7.52Zm45.68-21.829c2.54 4.139-2.78 8-8.32 8.09-5.34.09-6.53-2.291-6.53-2.291s0 5.481 8.85 4.651c7.25-.68 8.8-8.131 6-10.45Z" clip-rule="evenodd" opacity=".7"/>
  <path fill="#9ADD00" fill-rule="evenodd" d="M69.855 47.437c9.12-3.41-4.71-9.7-23.37-8.24-18.66 1.47-19.3 9.28-19.04 10.34.25 1.07 17.04 7.39 42.41-2.1Z" clip-rule="evenodd" opacity=".3"/>
  <path fill="#9ADD00" fill-rule="evenodd" d="M57.015 50.317c3.66-.96-2.43-8.83-13.76-6.52-11.33 2.31-10.56 7.07-10.44 7.1.11.03 8.23 3.63 24.2-.58Z" clip-rule="evenodd" opacity=".3"/>
  <path fill="url(#p)" fill-rule="evenodd" d="M85.545 30.527c-6.23-.31-6.89-3.72-5.71-4.46 1.19-.74-10.37 1.41-11.03-7.18-.53-6.72 8.86-7.46 8.86-7.46s-9.53.13-10.12 6.57c-.6 6.44 6.66 8.49 6.66 8.49s-1.47 3.41-13.3 4.09c-9.37.54-10.02-3.11-9.96-3.18 9.96-11.7-6.06-14.12-5.17-8.8.89 5.32-4.73 2.89-7.84 1.6-2.96-1.24-6.12.81-6.42 1.01.42-.14 5.91-1.89 7.09 1.42 1.22 3.43-.94 4.4-.94 4.4s4.67-.56 4.01 4.36c-.66 4.91-5.93 4.04-5.93 4.04s1.59-3.24-.79-4.99c-2.39-1.75-4.73-1.14-4.73-1.14s4.9-.14 5.11 3.76c.2 3.91-3.84 7.47-7.52 7.61-3.67.14-3.34-3.86-3.34-3.86h-.06c-.12 2.12.15 4.84 1.02 8.33 0 0 9.4-11.19 29.47-12.62 4.21-.3 8.2-.52 11.87-.69 13.77-.63 23.04-.45 23.04-.45s.3-.44.48-1.02c-1.33.18-2.92.26-4.75.17Z" clip-rule="evenodd" opacity=".8"/>
  <path fill="#DB83A9" fill-rule="evenodd" d="M82.834 32.597s-2.32 3.47-13.24 6.53-21.8-2.49-24.88-4.89c-3.09-2.4 15.63-10.98 38.12-1.64Z" clip-rule="evenodd"/>
  <path fill="url(#q)" fill-rule="evenodd" d="M49.235 33.177c-2.51-3.34 2.12-11.43 7.01-15.47 4.89-4.05 16.15 3.58 21.07 7.73 4.92 4.15 5.21 5.57 5.51 7.17.3 1.6-23.86 13.5-33.59.57Z" clip-rule="evenodd"/>
  <path fill="#DB83A9" fill-rule="evenodd" d="M75.855 36.547s-9.37-11.87-18.68-11.06c-9.31.81-7.18 8.61-7.18 8.61s7.93 9.13 25.86 2.45Z" clip-rule="evenodd"/>
  <path fill="#D96840" fill-rule="evenodd" d="M79.345 27.238s-4.59 3.97-10.2 2.01c-5.61-1.96-12.27-6.3-12.99-7.04-.72-.73-1.7-4.61 3.7-5.31 5.41-.71 15.61 6.47 19.49 10.34Z" clip-rule="evenodd"/>
  <path fill="#B2562B" fill-rule="evenodd" d="M71.064 31.617s-2.88-6.43-10.22-5.84c0 0 4.92 3.49 10.22 5.84Z" clip-rule="evenodd"/>
  <path fill="#9ADD00" fill-rule="evenodd" d="M70.284 20.418c2.63 2-4.96 5.37-9.29 4.35-4.33-1.01-6.35-5.08-3.86-7 2.48-1.91 9.81.11 13.15 2.65Zm1.491 16.759c1.75-.58-6.54-10.79-13.33-8.62-6.78 2.17-5.47 7.56-4.76 8.21.73.64 8.64 3.55 18.09.41Z" clip-rule="evenodd" opacity=".3"/>
  <path fill="#EA8E40" fill-rule="evenodd" d="M73.284 29.737s-1.64 1.63-1.93 1.75c-.29.12-1.76-3.19-5.29-4.46-3.53-1.27-5.22-1.26-5.22-1.26s-2.45-.48-3.88-.27c0 0 1.75-.49 4.18-.05 2.44.43 4.84-1.24 10.32 4.12 0 .01.84.68 1.82.17Z" clip-rule="evenodd"/>
  <path fill="#DB83A9" fill-rule="evenodd" d="M114.825 95.767c-1.44-1.44 13.63-6.01 24.08-4.44 10.46 1.58-14.26 14.25-24.08 4.44Z" clip-rule="evenodd"/>
  <path fill="url(#r)" fill-rule="evenodd" d="M137.664 90.757c3.55-4.26 3.68-10.33 1.61-13.81-2.07-3.47-17.78-5.42-23.22-2.06-5.45 3.36-2.59 17.18.39 20.4 2.97 3.22 14.7 3.29 21.22-4.53Z" clip-rule="evenodd"/>
  <path fill="#DB83A9" fill-rule="evenodd" d="M138.834 77.217c4.5 4.67-11.98 19.25-19.96 12.97-7.97-6.28-4.45-14.42-1.76-15.3 2.69-.88 16.38-3.21 21.72 2.33Z" clip-rule="evenodd"/>
  <path fill="#FFA7FF" fill-rule="evenodd" d="M138.864 76.447c.75 1.63-8.51 6.46-15.31 6.24-6.8-.22-9.1-4.52-8.92-6.47.18-1.95 4.96-3.02 11.75-3.04 6.8-.02 11.95 2.12 12.48 3.27Z" clip-rule="evenodd"/>
  <path fill="#FFA7FF" fill-rule="evenodd" d="M138.994 77.406c1.23.01 2.04 6.33-.53 10.75-2.57 4.43-9.51 7.61-10.19 7.61-.69 0-2.87-11.36-2.87-11.81 0-.45 7.42-1.16 13.59-6.55Z" clip-rule="evenodd"/>
  <path fill="#DB83A9" fill-rule="evenodd" d="M126.184 96.146c1.02-.27-.69-10.06-1.81-11.4-1.12-1.34-8-3.18-9.87-6.59 0 0-1.67 2.6-.52 9.26 1.14 6.67 4.5 10.75 12.2 8.73Z" clip-rule="evenodd"/>
  <path fill="ivory" fill-rule="evenodd" d="M129.244 81.947c.17.02-3.5 2.49-4.42 2.8-.92.31-4.51-2.54-4.51-2.54s3.08-1.07 8.93-.26Zm-9.49.09s-1.54-.33-2.92-1.31c-1.38-.97-1.8-2.63-1.8-2.63s2.9 3.14 4.72 3.94Z" clip-rule="evenodd"/>
  <path fill="#DB83A9" fill-rule="evenodd" d="M105.785 102.527c3.08-.35 11.15 2.53 4.02 5.49-7.14 2.96-11.12 1.73-12.54 0-1.41-1.73 4.28-5 8.52-5.49Z" clip-rule="evenodd"/>
  <path fill="url(#s)" fill-rule="evenodd" d="M104.885 106.547c3.59-1.38 1.72-8.34-.93-9.74-2.65-1.4-9.08 1.29-9.79 3.82-.72 2.53 3.2 8.28 6.35 7.76 3.16-.51 4.37-1.84 4.37-1.84Z" clip-rule="evenodd"/>
  <path fill="#DB83A9" fill-rule="evenodd" d="M105.475 98.577c1.48 2.2-2.51 6.64-6.37 6.38-3.86-.27-4.58-3.29-4.19-4.6.38-1.31 7.84-5.81 10.56-1.78Z" clip-rule="evenodd"/>
  <path fill="#FFA7FF" fill-rule="evenodd" d="M103.955 96.807c.77.94-2.13 4.22-4.39 5.28-2.26 1.06-5.45-.23-5.47-1.13-.01-.9.83-2.22 3.89-3.56 3.06-1.35 5.73-.89 5.97-.59Z" clip-rule="evenodd"/>
  <path fill="#FFA7FF" fill-rule="evenodd" d="M106.235 104.967c-.5 1.4-2.77 2.55-3.43 2.42-.67-.13-2.91-4.67-2.74-5.17.17-.5 3.82-4.02 4.15-4.51.33-.49 3.08 2.68 2.02 7.26Z" clip-rule="evenodd"/>
  <path fill="#DB83A9" fill-rule="evenodd" d="M102.065 107.617c.42-.09-1.99-4.3-2.53-4.7-.54-.39-3.05 0-4.98-.88 0 0 1 3.87 3.32 5.26 2.31 1.4 4.19.32 4.19.32Z" clip-rule="evenodd"/>
  <path fill="ivory" fill-rule="evenodd" d="M100.975 101.217c.12-.07-.51 2.49-.67 2.48-.16 0-2.73-1.17-2.73-1.17s2.21-.65 3.4-1.31Z" clip-rule="evenodd"/>
  <path fill="ivory" fill-rule="evenodd" d="M103.994 97.657s-.22 1.05-1.19 2.08-1.78 1.47-1.78 1.47 1.47-1.65 2.97-3.55Z" clip-rule="evenodd"/>
  <defs>
    <linearGradient id="a" x1="89.814" x2="89.814" y1="137.775" y2="23.57" gradientUnits="userSpaceOnUse">
      <stop stop-color="#63902F"/>
      <stop offset=".417" stop-color="#84B017"/>
      <stop offset=".769" stop-color="#99C508"/>
      <stop offset="1" stop-color="#A1CC02"/>
    </linearGradient>
    <linearGradient id="b" x1="89.814" x2="89.814" y1="137.775" y2="66.038" gradientUnits="userSpaceOnUse">
      <stop stop-color="#BA5270"/>
      <stop offset=".124" stop-color="#C56D76"/>
      <stop offset=".428" stop-color="#DEAB83"/>
      <stop offset=".686" stop-color="#F0D98D"/>
      <stop offset=".885" stop-color="#FBF593"/>
      <stop offset="1" stop-color="#FFFF95"/>
    </linearGradient>
    <linearGradient id="c" x1="87.326" x2="87.326" y1="137.702" y2="105.649" gradientUnits="userSpaceOnUse">
      <stop stop-color="#BA5270"/>
      <stop offset=".124" stop-color="#C56D76"/>
      <stop offset=".428" stop-color="#DEAB83"/>
      <stop offset=".686" stop-color="#F0D98D"/>
      <stop offset=".885" stop-color="#FBF593"/>
      <stop offset="1" stop-color="#FFFF95"/>
    </linearGradient>
    <linearGradient id="d" x1="90.54" x2="90.54" y1="114.967" y2="27.036" gradientUnits="userSpaceOnUse">
      <stop stop-color="#63902F"/>
      <stop offset=".417" stop-color="#84B017"/>
      <stop offset=".769" stop-color="#99C508"/>
      <stop offset="1" stop-color="#A1CC02"/>
    </linearGradient>
    <linearGradient id="e" x1="90.192" x2="90.192" y1="115.945" y2="59.176" gradientUnits="userSpaceOnUse">
      <stop stop-color="#8E765E"/>
      <stop offset=".09" stop-color="#938168"/>
      <stop offset=".499" stop-color="#A8AE92"/>
      <stop offset=".816" stop-color="#B5CAAC"/>
      <stop offset="1" stop-color="#BAD4B6"/>
    </linearGradient>
    <linearGradient id="f" x1="100.931" x2="20.884" y1="47.441" y2="47.441" gradientUnits="userSpaceOnUse">
      <stop stop-color="#63902F"/>
      <stop offset=".417" stop-color="#84B017"/>
      <stop offset=".769" stop-color="#99C508"/>
      <stop offset="1" stop-color="#A1CC02"/>
    </linearGradient>
    <linearGradient id="g" x1="56.856" x2="56.856" y1="57.808" y2="22.584" gradientUnits="userSpaceOnUse">
      <stop stop-color="#63902F"/>
      <stop offset=".417" stop-color="#84B017"/>
      <stop offset=".769" stop-color="#99C508"/>
      <stop offset="1" stop-color="#A1CC02"/>
    </linearGradient>
    <linearGradient id="h" x1="57.059" x2="57.059" y1="58.866" y2="26.483" gradientUnits="userSpaceOnUse">
      <stop stop-color="#8E765E"/>
      <stop offset=".09" stop-color="#938168"/>
      <stop offset=".499" stop-color="#A8AE92"/>
      <stop offset=".816" stop-color="#B5CAAC"/>
      <stop offset="1" stop-color="#BAD4B6"/>
    </linearGradient>
    <linearGradient id="i" x1="59.486" x2="59.486" y1="70.779" y2="40.15" gradientUnits="userSpaceOnUse">
      <stop stop-color="#BA5270"/>
      <stop offset=".124" stop-color="#C56D76"/>
      <stop offset=".428" stop-color="#DEAB83"/>
      <stop offset=".686" stop-color="#F0D98D"/>
      <stop offset=".885" stop-color="#FBF593"/>
      <stop offset="1" stop-color="#FFFF95"/>
    </linearGradient>
    <linearGradient id="j" x1="57.403" x2="57.403" y1="45.147" y2="0" gradientUnits="userSpaceOnUse">
      <stop stop-color="#408700"/>
      <stop offset=".42" stop-color="#4A8300"/>
      <stop offset="1" stop-color="#607A00"/>
    </linearGradient>
    <linearGradient id="k" x1="111.986" x2="111.986" y1="40.807" y2="7.488" gradientUnits="userSpaceOnUse">
      <stop stop-color="#A93D54"/>
      <stop offset=".277" stop-color="#AC454A"/>
      <stop offset=".754" stop-color="#B3592E"/>
      <stop offset="1" stop-color="#B8661D"/>
    </linearGradient>
    <linearGradient id="l" x1="30.075" x2="30.075" y1="90.1" y2="68.79" gradientUnits="userSpaceOnUse">
      <stop stop-color="#A93D54"/>
      <stop offset=".277" stop-color="#AC454A"/>
      <stop offset=".754" stop-color="#B3592E"/>
      <stop offset="1" stop-color="#B8661D"/>
    </linearGradient>
    <linearGradient id="m" x1="115.49" x2="114.667" y1="51.721" y2="31.811" gradientUnits="userSpaceOnUse">
      <stop stop-color="#A93D54"/>
      <stop offset=".277" stop-color="#AC454A"/>
      <stop offset=".754" stop-color="#B3592E"/>
      <stop offset="1" stop-color="#B8661D"/>
    </linearGradient>
    <linearGradient id="n" x1="156.324" x2="129.619" y1="58.744" y2="52.945" gradientUnits="userSpaceOnUse">
      <stop stop-color="#8E765E"/>
      <stop offset=".09" stop-color="#938168"/>
      <stop offset=".499" stop-color="#A8AE92"/>
      <stop offset=".816" stop-color="#B5CAAC"/>
      <stop offset="1" stop-color="#BAD4B6"/>
    </linearGradient>
    <linearGradient id="o" x1="73.391" x2="48.071" y1="100.648" y2="95.15" gradientUnits="userSpaceOnUse">
      <stop stop-color="#8E765E"/>
      <stop offset=".09" stop-color="#938168"/>
      <stop offset=".499" stop-color="#A8AE92"/>
      <stop offset=".816" stop-color="#B5CAAC"/>
      <stop offset="1" stop-color="#BAD4B6"/>
    </linearGradient>
    <linearGradient id="p" x1="24.393" x2="90.295" y1="28.285" y2="28.285" gradientUnits="userSpaceOnUse">
      <stop stop-color="#8E765E"/>
      <stop offset=".09" stop-color="#938168"/>
      <stop offset=".499" stop-color="#A8AE92"/>
      <stop offset=".816" stop-color="#B5CAAC"/>
      <stop offset="1" stop-color="#BAD4B6"/>
    </linearGradient>
    <linearGradient id="q" x1="69.441" x2="58.362" y1="39.773" y2="16.536" gradientUnits="userSpaceOnUse">
      <stop stop-color="#A93D54"/>
      <stop offset=".277" stop-color="#AC454A"/>
      <stop offset=".754" stop-color="#B3592E"/>
      <stop offset="1" stop-color="#B8661D"/>
    </linearGradient>
    <linearGradient id="r" x1="124.563" x2="129.064" y1="98.154" y2="66.49" gradientUnits="userSpaceOnUse">
      <stop stop-color="#FF9572"/>
      <stop offset=".017" stop-color="#FF9271"/>
      <stop offset=".359" stop-color="#FF5465"/>
      <stop offset=".648" stop-color="#FF265C"/>
      <stop offset=".871" stop-color="#FF0A56"/>
      <stop offset="1" stop-color="#FF0054"/>
    </linearGradient>
    <linearGradient id="s" x1="99.574" x2="101.802" y1="108.602" y2="92.931" gradientUnits="userSpaceOnUse">
      <stop stop-color="#FF9572"/>
      <stop offset=".017" stop-color="#FF9271"/>
      <stop offset=".359" stop-color="#FF5465"/>
      <stop offset=".648" stop-color="#FF265C"/>
      <stop offset=".871" stop-color="#FF0A56"/>
      <stop offset="1" stop-color="#FF0054"/>
    </linearGradient>
  </defs>
</svg>
